<?xml version="1.0" encoding="UTF-8" standalone="no"?>
<!-- Generator: Adobe Illustrator 20.0.0, SVG Export Plug-In . SVG Version: 6.00 Build 0)  -->

<svg><g
     class="st0"
     id="g5"><path
       id="kalimantan_1_"
       d="M210,328.3l-2.3,8.7l-12.5,4.2l-3.8-4.4l-1.8,0.5l3.4,13.1l5.1,0.6l6.8,2.6v2.6l3.1-0.6l4.5-6.3v-5.1   l2.5-5.1l2.8,0.6l-3.4-7.1l-0.5-4.6L210,328.3L210,328.3z" /><path
       id="papua_new_guinea_1_"
       d="M281.1,352.2l-0.4,24.4l3.5-0.2l4.6-5.4l3.9,0.2l2.5,2.2l0.8,6.9l8,4.2l2-0.8v-2.5l-6.4-5.3   l-3.2-7.3l2.5-1.2l-1.8-4l-3.7-0.1l-0.9-4.3l-9.8-6.6L281.1,352.2L281.1,352.2z" /><path
       id="australia_1_"
       d="M189.5,431.9l-0.3,25.4l-3.9,2.9l-0.3,2.5l5.3,3.6l13.1-2.5h6.7l2.5-3.6l14.9-2.9l10.6,3.2l-0.7,4.3   l1.4,4.3l8.2-1.4l0.3,2.1l-5.3,3.9l1.8,1.4l3.9-1.4l-1.1,11.8l7.5,5.7l4.3-1.4l2.1,2.1l12.4-1.8l11.7-19l4.3-1.1l8.5-15.7l2.1-13.6   l-5.3-6.8l2.1-1.4l-4.3-13.2l-4.6-3.2l0.7-17.9l-4.3-3.2l-1.1-10h-2.1l-7.1,23.6l-3.9,0.4l-8.9-8.9l5-13.2l-9.2-1.8l-10.2,2.8   l-2.8,8.2l-4.6,1.1l-0.3-5.7l-18.9,11.4l0.3,4.3l-2.8,3.9h-7.1l-15.3,6.4L189.5,431.9L189.5,431.9z" /><path
       id="tasmania_1_"
       d="M254,500.2l-1.8,7.1l0.3,5l5.3-0.4l6-9.3L254,500.2L254,500.2z" /><path
       id="new_zealand_north_island_1_"
       d="M341.3,485.9l1.1,11.8l-1.4,5.4l-5.3,3.9l0.3,4.6v5l1.4,1.8l14.5-12.5V503h-3.5l-5-16.8   L341.3,485.9L341.3,485.9z" /><path
       id="new_zealand_south_island_1_"
       d="M330.7,511.6l2.8,5.4l-7.8,7.5l-0.7,3.9l-5.3,0.7l-8.9,8.2l-8.2-3.9l-0.7-2.9l14.9-6.4   L330.7,511.6L330.7,511.6z" /><path
       id="new_caledonia_1_"
       d="M334.9,424.4l-0.3,1.8l4.6,6.4l2.5,1.1l0.3-2.5L334.9,424.4L334.9,424.4z" /><path
       id="sumatra_1_"
       d="M150.8,321.5l-0.3,2.3l6.8,11.4h2l14.2,23.7l5.7,0.6l2.8-8.3l-4.5-2.9l-0.8-4.6L150.8,321.5L150.8,321.5z" /><path
       id="east_malaysia_1_"
       d="M192.4,336.8l3,3.5l11.6-4l2.3-8.8l5.2-0.4l4.7-3.4l-6.1-4.5l-1.4-2.5l-3,5.6l1.1,3.2l-1.8,2.7   l-3.5-0.9l-8.4,6.2l0.2,3.6L192.4,336.8L192.4,336.8z" /><path
       id="brunei_1_"
       d="M208.1,323.1l-2.9,3.5l2.4,0.7l1.3-1.9L208.1,323.1L208.1,323.1z" /><path
       id="sulawesi_1_"
       d="M217.8,353l2.3,2.8l-1.5,4.2v0.8h3.3l1.2-10.4l1.1,0.3l2,9.5l1.9,0.5l1.8-4.1l-1.8-6.1l-1.5-2.7l4.6-3.4   l-1.1-1.5l-4.4,2.9h-1.2l-2.2-3.2l0.7-1.4l3.6-1.8l5.5,1.7l1.7-0.1l4.1-3.9l-1.7-1.7l-3.8,3h-2.5l-3.7-1.8l-2.7,0.1l-3,4.8   l-1.9,8.2L217.8,353L217.8,353z" /><path
       id="maluku_1_"
       d="M242.5,334.4l-1.9,4.5l3,3.9h1l1.3-2.6l0.7-0.9l-1.3-1.4l-1.9-0.7L242.5,334.4L242.5,334.4z" /><path
       id="seram_1_"
       d="M248.3,349.4l-4,0.9l-1.2,1.3l1,1.7l2.7-1l1.7-1l2.5,2l1.1-0.9l-2-2.4L248.3,349.4L248.3,349.4z" /><path
       id="java_1_"
       d="M181.5,362.2l-2.8,1.9l0.6,1.6l8.8,2l4.4,0.8l1.9,2l5,0.4l2.4,2l2.2-0.5l2-1.8l-3.6-1.7l-3.1-2.7l-8.2-2   L181.5,362.2L181.5,362.2z" /><path
       id="bali_1_"
       d="M210.1,370.8l-2.2,1.2l1.3,1.4l3.1-1.2L210.1,370.8L210.1,370.8z" /><path
       id="lombok_1_"
       d="M213.8,369.9l0.4,1.9l2.3,0.6l0.9-1.1l-1-1.5L213.8,369.9L213.8,369.9z" /><path
       id="sumba_1_"
       d="M219.2,374.9l-2.8,0.4l2.5,2.1h2L219.2,374.9L219.2,374.9z" /><path
       id="flores_2_"
       d="M220,371.6l-0.6,1.2l4.4,0.7l3.4-2l-2-0.6l-3.1,0.9l-1.2-1L220,371.6L220,371.6z" /><path
       id="timor_1_"
       d="M234.4,372.3l-5.1,4.3l0.5,1.1l2.2-0.4l2.5-2.4l5-0.7l-1-1.7L234.4,372.3L234.4,372.3z" /><path
       id="new_ireland_1_"
       d="M308.8,352.9l-0.9,1.2l4.8,4.3l0.7,2.5l1.3-0.1l0.2-2.6l-1.5-1.3L308.8,352.9L308.8,352.9z" /><path
       id="new_britain_1_"
       d="M311.2,358.9l-1,0.2l-0.6,2.6l-1.8,1.2l-5.5,1l0.2,2.1l5.8-0.3l3.7-2.3l-0.2-4L311.2,358.9   L311.2,358.9z" /><path
       id="bougainville_1_"
       d="M317.7,363.4l1.2,3.5l2.2,2.1l0.7-0.6l-0.2-2.3l-2.5-3L317.7,363.4L317.7,363.4z" /><path
       id="choiseul_1_"
       d="M323.7,368.5l0.2,2.3l1.4,1.3l1.3-0.8l-1.2-2.4L323.7,368.5L323.7,368.5z" /><path
       id="new_georgia_1_"
       d="M325.5,374.2l-1.2,1.2l1.2,2.3l1.5,0.4l-0.1-1.5L325.5,374.2L325.5,374.2z" /><path
       id="santa_isabel_1_"
       d="M328.3,372.9l1,2.5l2,2.4l1.1-1.8l-1.5-2.5L328.3,372.9L328.3,372.9z" /><path
       id="malaita_1_"
       d="M333.4,376.6l0.6,3.1l1.4,1.9l1.2-2.4L333.4,376.6L333.4,376.6z" /><path
       id="santa_ana_1_"
       d="M335,383.5l-0.5,0.9l1.7,2.2l1.2,0.1l-0.7-2.9L335,383.5L335,383.5z" /><path
       id="rennell_1_"
       d="M331.3,387.9l-1.8,0.8l1.5,2.1l1.3-0.7L331.3,387.9L331.3,387.9z" /><path
       id="espiritu_santo_1_"
       d="M349.2,401.1l-1.2,1.7l0.5,1.9l0.6,0.4l1.1-1.5L349.2,401.1L349.2,401.1z" /><path
       id="malakula_1_"
       d="M349.8,406.2l0.1,1.4l1.3,0.4l0.9-0.5l-0.9-1.5L349.8,406.2L349.8,406.2z" /><path
       id="efate_1_"
       d="M351.8,418.3l-0.6,0.9l0.9,1l1.5-0.5L351.8,418.3L351.8,418.3z" /><path
       id="fiji_1_"
       d="M376.9,416.2l-1.2,1.7l-0.1,1.9l1.4,1.5L376.9,416.2L376.9,416.2z" /><path
       id="palawan_1_"
       d="M217.7,301.4l-0.9,1.6l-0.5,2l-4.8,6.1l0.3,1.2l2-0.3l6.2-6.9L217.7,301.4L217.7,301.4z" /><path
       id="negros_1_"
       d="M225.4,299.1l-0.1,5l1.8,1.8l0.7,3.6l1.8,0.4l0.9-2.2l-1.4-1.1l-0.4-6.3L225.4,299.1L225.4,299.1z" /><path
       id="cebu_1_"
       d="M230.6,301l-0.1,4.4l1,1.7l1.8-2.1l-0.5-3.9L230.6,301L230.6,301z" /><path
       id="samar_1_"
       d="M231.7,297.2l1.8,2.4l0.9,2.3h1.6l-0.3-4l-1.8-1.2L231.7,297.2L231.7,297.2z" /><path
       id="path7462_1_"
       d="M235.3,306.3l0.4,2.9l-3.3,2.7l-2.8,0.3l-3,3.2l0.1,1.5l2.8-0.9l1.9-1.2l1.6,4.1l2.9,2l1.2-0.4l1-1.2   l-2.3-2.3l1.3-1.1l1.5,1.2l1-1.7l-1-2.1l-0.2-4.7L235.3,306.3L235.3,306.3z" /><path
       id="luzon_1_"
       d="M219.7,276.9l-2.6,1.8l-0.3,5.8l4,7.8l1.3,1.1l1.7-1.2l3,0.5l0.6,2.6l2.2,0.2l1-1.4l-1.3-1.8l-1.6-1.5   l-3.4-0.4l-1.8-3l2.1-3.2l0.2-2.8l-1.4-3.6L219.7,276.9L219.7,276.9z" /><path
       id="mindoro_1_"
       d="M221,294.1l0.8,2.7l1.3,0.9l1-1.2l-1.5-2.1L221,294.1L221,294.1z" /><path
       id="hainan_1_"
       d="M188.1,274.1l-2.4,0.7l-1.7,2.1l1.4,2.8l2.1,0.2l2.4-2.1l0.6-2.8L188.1,274.1L188.1,274.1z" /><path
       id="taiwan_1_"
       d="M215.8,252.2l-3.5,2.7l-0.2,5.2l3.1,3.6l0.8-0.7L215.8,252.2L215.8,252.2z" /><path
       id="kyushu_1_"
       d="M231.5,220.3l-1.6,1.6l0.7,2.3l1.4,0.1l1,5l1.2,1.2l2-1.8l0.9-3.3l-2.5-3.6L231.5,220.3L231.5,220.3z" /><path
       id="shikoku_1_"
       d="M240.3,217l-2.8,2.6l-0.1,3l0.7,0.9l3.7-3.2l-0.3-3.2L240.3,217L240.3,217z" /><path
       id="honshu_1_"
       d="M236.5,210.9l-4.9,5.6l0.9,1.4l2.4,0.3l4.5-3.5l3.2-0.6l2.9,3.4l2.2-0.8l0.9-3.3l4.1-0.1l4-4.8l-2.1-8   l-1-4.2l2.1-1.7l-4.8-7.2l-1.2,0.1l-2.6,2.9v2.4l1.2,1.4l0.4,6.4l-3,3.7l-1.7-1.1l-1.3,3l-0.3,2.8l1,1.6l-0.7,1.2l-2.2-1.8H239   l-1.3,0.8L236.5,210.9L236.5,210.9z" /><path
       id="hokkaido_1_"
       d="M244.7,167.3l-1.5,1.4l0.8,2.9l1.3,1.4l-0.1,4.4l-1.7,0.7l-1.3,3l3.9,5.4l2.6-0.9l0.5-1.4l-2.8-2.5   l1.7-2.2l1.8,0.3l1.4,1.5l0.1-3.2l3.9-3.2l2.2-0.6l-1.8-3.1l-0.9-1.4l-1.4,1l-1.2,1.5l-2.7-0.6l-2.8-1.8L244.7,167.3L244.7,167.3z" /><path
       id="iturup_1_"
       d="M259.2,164.3l-2.7,3.8l0.2,1.8l1.3-0.6l3.2-3.9L259.2,164.3L259.2,164.3z" /><path
       id="urup_1_"
       d="M262.7,158.9l-1,2.6l0.1,1.7l1.6-1.1l1.5-3.1v-1.1L262.7,158.9L262.7,158.9z" /><path
       id="paramushir_1_"
       d="M268.3,135.9l-1.2,1.5l0.1,2.4l1.2-0.1l1.9-3.4L268.3,135.9L268.3,135.9z" /><path
       id="onekotan_1_"
       d="M266.1,141.8v4.2l1.3,0.5l1-1.5v-3.3L266.1,141.8L266.1,141.8z" /><path
       id="sakhalin_1_"
       d="M226.9,126.5l-0.1,6.2l7.7,11.9l2.8,10.4l4.9,9.2l1.9,0.7l1.6-1.4l0.8-2.2l-7-7.6l0.2-3.9l1.5-0.7   l0.4-2.3l-13.7-19.4L226.9,126.5L226.9,126.5z" /><path
       id="bering_island_1_"
       d="M280.9,107.3l-1.9,0.2l1.2,1.6l2.4,1.6l0.7-0.8L280.9,107.3L280.9,107.3z" /><path
       id="medny_1_"
       d="M284.6,108.5l0.3,1.6l3,0.9l0.3-1.2L284.6,108.5L284.6,108.5z" /><path
       id="attu_1_"
       d="M300.8,114.8l1.2,2.2l2.1-0.1l0.4-1.5L300.8,114.8L300.8,114.8z" /><path
       id="amchitka_1_"
       d="M321.8,118.3l1.7,3.1l1.2-1.4v-2.1L321.8,118.3L321.8,118.3z" /><path
       id="st._lawrence_island_1_"
       d="M309.6,42.3l-2.4,1.5l-0.6,2l1.1,1.3l2.5-0.8l2.5,0.8l1.4,0.4l-0.1-4.6L309.6,42.3L309.6,42.3   z" /><path
       id="novaya_zemlya_north_1_"
       d="M7.1,66.7l4.5-3.5l3.3-1.4h1.7v-4.7l-3.8-1.2l0,0l-0.5,2.4l-4,3.5" /><path
       id="komsomolets_1_"
       d="M63.3,22l-2.2-1.4h-2.6L58,22.2l-2.8,1.6l-2.1,0.7l-0.3,2.1l4.8,0.4L63.3,22L63.3,22z" /><path
       id="october_1_"
       d="M68.6,22.6l-1.2,2.6L65,25l-3.8,2.8l-1,3.5h2.4L64,29l3.3,2.4l3.1-1.4l2.2-1.9l-0.9-3L70.5,23L68.6,22.6   L68.6,22.6z" /><path
       id="bolshevik_1_"
       d="M73.6,24.5l1.2,4.9l1.9,4.5l2.1-3.6l4-0.9v-2.6l-2.6-1.9L73.6,24.5L73.6,24.5z" /><path
       id="kotelny_1_"
       d="M168.1,16.7l2.7,2.3l1.9-0.8l0.6-3.2l-4-2.7l-2.6,1.7l-6.3,0.6v2.8l-6.6,0.1v4.6l7.7,5.8l2-1.5l-0.5-4.1   l4.9-1.2l-1-1.9l-1.8-1.8L168.1,16.7L168.1,16.7z" /><path
       id="novaya_sibir_1_"
       d="M175.2,14l1.8,3.4l7-0.8l1.9-2.5l-0.5-2.1l-1.9-0.8l-1.8,1.4l-5.2,1.1L175.2,14L175.2,14z" /><path
       id="lyakhovsky_1_"
       d="M174.8,27.2l-3.5-0.9l-2,2.1l-0.9,2.9l4.7-0.5l3.6-1.8L174.8,27.2L174.8,27.2z" /><path
       id="wrangel_1_"
       d="M265,7.7l-2.9-0.9L258.7,8l-1.7,2.5l2.1,2.8l5.6-2.5l1.1-1.2L265,7.7L265,7.7z" /><path
       id="sri_lanka_1_"
       d="M108.8,311.9l0.2,2.7l0.2,2l-1.5,0.2l0.7,4.5l2.2,1.2l3.4-2l-1-4.7l0.2-1.7l-3.2-3L108.8,311.9   L108.8,311.9z" /><path
       id="irian_jaya_1_"
       d="M260.2,343.2l-4.2,0.5l-2.7,2l1.1,2.2l4.5,0.8v0.8l-2.9,2.3l1.4,4.9l1.4,0.1l1.2-4.8h2.2l0.9,4.7   l10.8,9l0.3,7l3.7,4l1.7-0.1l0.4-24.7l-6.3-4.4l-5.9,4l-2.1,1.3l-3.5-2.2l-0.1-7.1L260.2,343.2L260.2,343.2z" /><path
       id="russia_1_"
       d="M5.1,175.1l9,0.5l1.5,2.8l9.3,0.5l6.8-3.8l-3.5-3.8l0.8-7.1l17.6-8.6l13.5,6.1l4.5-4.1l13.3,12.7l10-1   l3.5,3.5l9.5,1l6.3-8.6l8,3.6l4.3,0.8l4.3-3.8l-3.5-2.9l3.3-5.1l9.3,3l2,4.1l4,0.2l2.5-1.8l6.8-0.2l0.8,1.8l7.8,0.5l5.3-5.6   l10.8,1.3l3.3-1.3l1-6.1l-3.3-7.3l3.3-2.8h10.3l9.8,11.6l12.6,7.1h3.8l0.5-3l4.5-2.8l0.5,16.5l-4,0.2v4.1l2.3,2.8l-0.4,3.6l1.7,0.7   l1-2.5l1.5,0.5l1,1l4.5-1l4.5-13.2l0.5-16.5l-5.8-13.2l-7.3-8.9l-3.5,0.5v2.8l-8.5-3.3l3.3-7.1l2.8-18.7l11.6-3.5l5.5-3.5h6l-1.5,2   l1.5,2.5l5.3-5.6l3,0.2l-0.5-3.3l-4.8-1l3.3-11.9l4.1-3.9l0,0l1.8,6.1l3.5,1l3.5-5.6l-2-3.8l0.8-3.3h5.3l-1.3,2.5l0.4,9.2   l-7.5,18.7l0.8,4.1l-0.2,6.8l14.1,20.5l2.8,0.8l0.2-16.7l2.8-2.5l-3-6.6l2.5-2.8l-5.5-7.3l-3,0.2l-1-12.2l7.8-2l0.5-3.6l4-1l2.3,2   l2.8-11.1l4.8-8.1l3.8-2l3.3,0.2v-3.8l-5.3-1l-7.3-6.1l3.5-4l-3-6.8l2.5-2.5l3,4l7.5,2.8l8.3,0.8l1-3.5l-4.3-4.3l4.8-6.6l-10.8-3.8   l-2.8,5.6l-3.5-4.6l-19.8-6.8l-19.2,3.2l-2.8,1.5v1.5l4,2l-0.5,4.8l-7.3-3L222.5,36l-2.8-5.8h-11.1l-5,5.3l-17.8-4l-16.3,3.3   l-2,5.1l2.5,0.8l-0.2,3.8L154,46.3l1,5.1l-14.6-2.5l3.5-6.6l-14.8-0.8l1.3,6.8l-4.8,2.3l-4-3.8l-16.3,2.7L99,55.3l-0.2,3.5l-4,0.2   l-0.5-4L107,43.9v-7.6L98.7,34l-10.8,3.5l-4.5-4.6h-2L78.9,38l2,2.3l-14.3,7.8l-12.3,9.5L46.8,68v4.3l8,3.3l-4,3l-8.5-3l-3.5,3   l-5.3-6.1l-1,2.3L38.3,93l1.5,0.5l4-2l2,1.5v3.3L42,94.8l-2.3,1.8l1.5,3.3l-1.3,8.6l-7.8,0.8l-0.5-2.8l4.5-2.8l1-7.6l-5-6.6   l-1.8-11.4l-8-1.3l-0.8,4.1l1.5,2l-3.3,2.8l1.3,7.6l4.8,2l1,5.6l-4.8-3L9.7,95.6" /><path
       id="china_1_"
       d="M98.7,174l-3.5,8.7l-4.8-0.2l-5,11l4.3,5.4L80.9,211l-4.5-0.8l-3,3.8l0.8,2.3l3.5,0.2l1.8,4.1l3.5,0.8   l10.8,13.9v7.1l5.3,3.3l5.8-1l7.3,4.3l8.8,2.5l4.3-0.5l4.8-0.5l10-6.6l3.3,0.5l1.2,3l2.8,0.8l3.8,5.6l-2.5,5.6l1.5,3.8l4.3,1.5   l0.8,4.6l5,0.5l0.8-2.3l7.3-3.8l4.5,0.2l5.3,5.8l3.5-1.5l2.3,0.2l1,2.8l1.8,0.2l2.5-3.5l10-3.8l9-10.9l3-10.4l-0.2-6.8l-3.8-0.8   l2.3-2.5l-0.5-4.1l-9.5-9.6v-4.8l2.8-3.5l2.8-1.3l0.2-2.8h-7l-1.3,3.8l-3.3-0.8l-4-4.3l2.5-6.6l3.5-3.8l3.3,0.2l-0.5,5.8l1.8,1.5   l4.3-4.3l1.5-0.2l-0.5-3.3l4-4.8l3,0.2l1.8-5.6l2.1-1.1l0.2-3.5l-2-2.1l-0.2-5.5l3.8-0.2l-0.2-14.1l-2.7,1.6l-1,3.6H210l-13.1-7.4   l-9.4-11.4l-9.6-0.1l-2.4,2.1l3.1,7.1l-1.1,6.7l-3.9,1.6l-2.2-0.2l-0.2,6.6l2.3,0.5l4-1.8l5.3,2.5v2.5L179,172l-3,6.6l-2.8,0.2   l-9.8,12.9l-10.3,4.6l-7,0.5l-4.8-3.3l-6.8,3.6l-7.3-2.3l-1.8-4.8l-12.3-0.8l-6.5-10.6h-2.8l-2.2-4.9L98.7,174z" /><path
       id="mongolia_1_"
       d="M102.1,174.1l5.8-7.7l7,3.2l4.8,1.3l5.8-5.3l-4-2.9l2.6-3.7l7.8,2.7l2.7,4.4l4.9,0.1l2.5-1.9l5.2-0.2   l1.1,1.9l8.7,0.4l5.5-5.6l7.6,0.8l-0.4,7.6l3.3,0.8l4.1-1.9l4.3,2.1l-0.1,1.1l-3.1,0.1l-3.3,6.9l-2.5,0.2l-9.9,12.9l-10.1,4.4   l-6.3,0.5l-5.2-3.4l-6.7,3.6l-6.6-2.1l-1.9-4.8l-12.5-0.9l-6.4-10.9l-3.1-0.2L102.1,174.1L102.1,174.1z" /><path
       id="north_korea_1_"
       d="M206.6,198.2l1.8,0.8l0.6,6.4l3.7,0.2l3.4-4l-1.2-1.1l0.1-4.3l3.2-3.8l-1.6-2.9l1-1.2l0.6-3l-1.8-0.8   l-1.6,0.8l-1.9,5.9l-3.1-0.3l-3.6,4.3L206.6,198.2L206.6,198.2z" /><path
       id="south_korea_1_"
       d="M216.6,202.1l6.2,5l1,4.9l-0.2,2.6l-3,3.4l-2.6,0.1l-3-6.4l-1.1-3l1.2-0.9l-0.3-1.3l-1.5-0.7   L216.6,202.1L216.6,202.1z" /><path
       id="kazakhstan_3_"
       d="M9.3,200.8l2.7,4.4l4,2.2l0.4,2.6l1.5-0.5l1.3-1.6l2.2,0.5l1.1,2.2h2.8v-2.9l-1.7-5.1l-0.8-4.1l5-2.2   l6.8,1.1l4.3,4.3l9.6-0.9l5.4,7.6l6.3,0.3l1.7-2.9l2.2-0.5l0.3-3.2l3.3-0.2l1.7,2.1l1.7-4.1l15,2.1l2.5-3.3l-4.3-5.2l5.7-12.4   l4.6,0.3l3.2-7.6l-6.3-0.6l-3.6-3.5l-10,1.2L65,158.5l-4.5,4l-13.8-6.2l-16.9,8.3l-0.5,5.9l4,4.6l-7.7,4.4l-10-0.2l-2.1-3.1   l-7.8-0.4" /><path
       id="kazakhstan_1_"
       d="M9.1,190.7l4.6-0.2l0.3,7h-2.7l-2,3.3" /><path
       id="turkmenistan_1_"
       d="M22.1,211.5l-0.6,2.6h-4.2v3.6l4.5,2.9l-1.4,4v1.9l1.8,0.3l2.5-3.2l5.5-1.2l11.8,4.5l0.2,3.2l6.6,0.6   l7.4-7.8l-0.9-2.5l-4.9-1.1l-13.8-9l-0.6-3.2h-5.2l-2.3,4.3h-2.3L22.1,211.5L22.1,211.5z" /><path
       id="uzbekistan_1_"
       d="M57.2,223l3.1,0.2v-5.3l-2.9-1.7l4.9-6.2h2l2,2.3l5.2-2l-7.2-2.5l-0.3-1.5l-1.7,0.4l-1.7,2.9l-7.3-0.2   l-5.3-7.6l-9.4,0.9l-4.5-4.4l-6.2-1.1l-4.5,1.8l2.6,8.7v2.9h1.9l2.3-4.4l6.2,0.1l0.9,3.4l13.3,8.8l5.1,1.2L57.2,223L57.2,223z" /><path
       id="tajikistan_1_"
       d="M58.5,215.7l4.1-5.1h1.5l0.5,1.1l-1.9,1.4v1.1l1.2,0.9l6,0.4l2-0.8l0.9,0.2l0.6,1.9l3.6,0.4l1.8,3.8   l-0.5,1.1l-0.7,0.1l-0.7-1.4l-1.5-0.1l-2.7,0.4l-0.2,2.5l-2.7-0.2l0.1-3.2l-2-1.9l-3,2.5l0.1,1.6l-2.6,0.9h-1.5l0.1-5.6L58.5,215.7   L58.5,215.7z" /><path
       id="kirgizstan_1_"
       d="M65.1,203.1l-0.3,2.5l0.2,1.6l8.7,2.9l-7.6,3.1l-0.9-0.7l-1.7,1.1l0.1,0.6l0.9,0.4l5.4,0.1l2.7-0.8   l3.5-4.4l4.4,0.8l5.3-7.3l-14.1-1.9l-2,4.7l-2.5-2.6L65.1,203.1L65.1,203.1z" /><path
       id="afghanistan_1_"
       d="M42.4,231l1.6,12.5l4,0.9l0.4,2.2l-2.8,2.4l5.3,4.3l10.3-3.7l0.8-4.4l6.5-4l2.5-9.4l1.8-2l-1.9-3.3   l6.3-3.9l-0.8-1.1l-2.9,0.2l-0.3,2.7h-3.9l-0.1-3.6l-1.2-1.5l-2.1,1.9L66,223l-3.2,1.2l-5.8-0.4l-7.6,8L42.4,231L42.4,231z" /><path
       id="pakistan_1_"
       d="M51.4,253.7l2.6,3.9l-0.2,2l-3.5,1.4l-0.2,3.2h4l1.4-1.1H63l6.8,6l0.9-2.9h5.1l0.1-3.6l-5.2-5l1.1-2.7   l5.3-0.4l7.2-14.9l-4-3.1l-1.5-5.2l9.6-0.9l-5.7-8.1l-3-0.8l-1.2,1.5l-0.9,0.1l-5.7,3.6l1.9,3.1l-2.1,2.2l-2.6,9.6l-6.4,4.1   l-0.9,4.5L51.4,253.7L51.4,253.7z" /><path
       id="india_1_"
       d="M99.3,316.9l4.6-2.2l2.7-9.8l-0.1-12.1l15.6-16.8v-4l3.2-1.2l-0.1-4.6l-3.5-6.7l2-3.6l4.3,4l5.6,0.3v2.2   l-1.7,1.9l0.4,1l3,0.1l0.6,3.4h0.9l2.2-4l1.1-10.5l3.7-2.6l0.1-3.6l-1.5-2.9l-2.3-0.1l-9.2,6.1l0.6,3.9H125l-2.3-2.8l-1.2,0.2   l0.4,3.9l-14-1l-8.7-3.9l-0.5-4.8l-5.8-3.6l-0.1-7.4l-4-4.5l-9.1,0.9l1,4l4.5,3.6l-7.7,15.8l-5.2,0.4l-0.8,1.9l5.1,4.7l-0.2,4.8   l-5.2-0.1l-0.6,2.4l4.3-0.2l0.1,1.9l-3.1,1.6l2,3.7l3.8,1.2l2.3-1.7l1.1-3.1l1.4-0.6l1.6,1.6l-0.5,4l-1.1,1.9l0.2,3.2L99.3,316.9   L99.3,316.9z" /><path
       id="nepal_1_"
       d="M99.5,246.5l0.5,4.3l8.1,3.7l13,1l-0.5-3.1l-8.7-2.4l-7.3-4.4L99.5,246.5L99.5,246.5z" /><path
       id="bhutan_1_"
       d="M123.7,252l1.5,2.1h5.2l-0.5-2.9L123.7,252L123.7,252z" /><path
       id="bangladesh_1_"
       d="M123.9,257l-1.3,2.4l3.4,6.5l0.1,5l0.6,1.4l4,0.1l2.3-2.2l1.6,1l0.3,3.1l1.3-0.8l0.1-3.9l-1.1-0.1   l-0.7-3.3l-2.8-0.1l-0.7-1.9l1.7-2.3v-1.1h-4.9L123.9,257L123.9,257z" /><path
       id="burma_1_"
       d="M157.7,307.5l-2.8-4.4l2-2.8l-1.9-3.5l-1.8-0.3l-0.3-5.9l-2.7-5.2l-0.8,1.2l-1.8,3l-2.2,0.3l-1.1-1.5l-0.6-4   l-1.7-3.2l-6.8-6.5l1.7-1.1l0.3-4.7l2.5-4.2l1.1-10.4l3.6-2.5l0.1-3.8l2.2,0.7l3.4,4.9l-2.5,5.4l1.7,4.3l4.2,1.7l0.8,4.6l5.7,0.9   l-1.6,2.7l-7.2,2.8l-0.8,4.6l5.3,6.8l0.2,3.6l-1.2,1.2l0.1,1.1l3.9,5.8l0.1,6L157.7,307.5L157.7,307.5z" /><path
       id="thailand_1_"
       d="M158.3,274.4l3.2,4.2v5.1l1.1,0.6l5.2-2.5l1,0.3l6.2,7.1l-0.2,4.9l-2-0.3l-1.8-1.1l-1.3,0.1l-2.3,3.9   l0.5,2.1l1.9,1l-0.1,2.4l-1.3,0.7l-4.6-3.2v-2.8l-1.9-0.1l-0.8,1.2l-0.4,12.6l3,5.4l5.3,5.1l-0.2,1.5l-2.8-0.1l-2.6-3.8h-2.7   l-3.4-2.7l-1-2.8l1.5-2.4l0.5-2.1l1.6-2.8l-0.1-6.4l-3.9-5.6l-0.2-0.7l1.2-1.3l-0.3-4.4l-5.1-6.5l0.6-3.8L158.3,274.4L158.3,274.4z   " /><path
       id="malaysia_1_"
       d="M161,319.4l2,4.5l0.5,5.9l2.7,4.2l6.5,3.9l2.5,0.2l-0.5-4.1l-2.1-5.2l-3.1-6.6l-0.3,1.2l-3.8-0.2   l-2.7-3.9L161,319.4L161,319.4z" /><path
       id="cambodia_1_"
       d="M168.8,303.4l4.1,4.4l7.6-5.6l0.7-8.9l-3.9,2.7l-2-1.1l-2.8-0.4l-1.5-1.1h-0.8l-2,3.3l0.3,1.5l2.1,1.1   l-0.2,3.1L168.8,303.4L168.8,303.4z" /><path
       id="laos_1_"
       d="M163.8,266.8l-2.4,1.2l-2,5.9l3.4,4.3l-0.6,4.7l0.6,0.2l5.6-2.7l7.5,8.4l-0.2,5.3l1.6,0.9l4-3.3l-0.3-2.6   l-11.6-11l0.1-1.7l1.5-1l-1-2.8l-4.8-0.8L163.8,266.8L163.8,266.8z" /><path
       id="vietnam_1_"
       d="M173.4,308.4l1.2,1.9l0.2,2.1l3.1,0.3l3.8-5.1l3.6-1l1.9-5.2l-0.9-8.3l-3.7-5.1l-3.9-3.1l-5-8.5l3.5-5.9   l-5.1-5.8l-4.1-0.2l-3.7,2l1.1,4.7l4.9,0.9l1.3,3.6l-1.7,1.1l0.1,0.9l11.5,11.2l0.5,3.3l-0.7,10.4L173.4,308.4L173.4,308.4z" /><path
       id="azerbaijan_1_"
       d="M8.9,216.8l2.9,0.5l-0.1-1.4l-4.8-4.2" /><path
       id="iran_1_"
       d="M7.4,242l5.6,7.8l3.2,0.2l2.5,1.8l0.1,3.5l9.7,5.7h3.6l2.2-1.9l2.8-0.1l1.6,3.8l10.5,1.5l0.3-3.9l3.5-1.3   l0.2-1.4l-2.8-3.8l-6.2-5l3.2-2.9l-0.2-1.3l-4.1-0.6l-1.7-13.7l-0.2-3.1l-11-4.2l-4.9,1.1l-2.7,3.4l-2.4-0.2l-0.7,0.6l-5.4-0.4   l-6.8-5" /><path
       id="kuwait_1_"
       d="M8,254.6l3.6,1.4v-4.9l0,0l-2.2-1.2" /><path
       id="iraq_1_"
       d="M9.1,248.8l2.9,1.6l0.4-0.4l-5.6-7.4" /></g>
	<g
     id="ap-northeast-2"
     cx="217.96292"
     cy="208.45763"></g>
	<g
     id="ap-south-1"
     cx="84.001587"
     cy="282.60327"></g>
	<g
     id="ap-southeast-2"
     cx="278.56198"
     cy="477.16367" ></g>
	<g
     id="ap-southeast-1"
     cx="172.04449"
     cy="334.85168"></g>
	<g
     id="ap-northeast-1"
     cx="251.13878"
     cy="210.72563"></g><path
     style="fill:#cccccc;fill-opacity:0.2"
     d="m 259.65853,490.6182 c -0.9812,-0.9812 -1.35457,-1.02474 -3.43707,-0.40081 -2.31258,0.69287 -2.37243,0.67216 -5.89718,-2.04007 l -3.5609,-2.74005 0.36617,-4.40748 c 0.20139,-2.42412 0.50975,-5.16094 0.68524,-6.08182 0.27706,-1.45389 0.1775,-1.6196 -0.75617,-1.25856 -2.08028,0.80439 -4.11413,1.02273 -4.45091,0.4778 -0.18722,-0.30292 0.82047,-1.38443 2.2393,-2.40336 1.62425,-1.16644 2.57969,-2.29429 2.57969,-3.04517 0,-1.25766 -0.30745,-1.26273 -6.7215,-0.11093 -1.66467,0.29894 -1.86848,0.1613 -2.47286,-1.67001 -0.36272,-1.09905 -0.49258,-3.03451 -0.289,-4.30757 l 0.36967,-2.31178 -4.08206,-1.23988 c -6.41663,-1.949 -7.03793,-1.97889 -13.70509,-0.65943 -8.36187,1.65485 -8.14728,1.57367 -9.2949,3.51643 -0.92849,1.57181 -1.25274,1.69686 -4.39989,1.69686 -1.86865,0 -6.37171,0.55996 -10.00681,1.24436 l -6.60928,1.24436 -2.37997,-1.67736 c -1.30899,-0.92255 -2.49064,-2.01265 -2.62591,-2.42244 -0.13526,-0.4098 0.75348,-1.68742 1.97498,-2.83915 l 2.22091,-2.09406 0.313,-13.32611 0.31299,-13.32611 2.47025,-6.41948 2.47024,-6.41948 7.75757,-3.25081 c 6.47722,-2.71427 8.32368,-3.2508 11.18764,-3.2508 3.24018,0 3.51521,-0.11162 4.96788,-2.01616 1.24181,-1.62811 1.46671,-2.3951 1.16846,-3.98494 l -0.36935,-1.96878 9.07995,-5.50355 c 4.99397,-3.02695 9.28767,-5.37518 9.54154,-5.21828 0.25387,0.1569 0.46159,1.32091 0.46159,2.58669 l 0,2.30141 2.16499,-0.38485 c 1.19074,-0.21167 2.32768,-0.54819 2.52653,-0.74782 0.19885,-0.19964 0.93047,-2.10456 1.62581,-4.23316 0.76872,-2.3532 1.64533,-3.98417 2.23645,-4.16099 8.19414,-2.4511 9.05683,-2.55769 13.44944,-1.66178 2.34592,0.47847 4.33935,0.93736 4.42983,1.01976 0.0905,0.0824 -0.93176,3.05681 -2.27164,6.6098 l -2.43616,6.45998 4.58096,4.51812 c 4.26178,4.2033 4.72176,4.49936 6.60163,4.24894 l 2.02065,-0.26916 3.47376,-11.6372 c 2.52736,-8.46673 3.72994,-11.68652 4.41406,-11.81827 0.75838,-0.14605 1.01368,0.52298 1.31959,3.45796 0.64056,6.14572 0.84512,6.68881 3.0274,8.03754 l 2.04931,1.26654 -0.41253,9.10309 -0.41253,9.10309 2.34594,1.55247 c 2.18172,1.4438 2.49719,2.01203 4.5067,8.11765 2.07074,6.29169 2.11645,6.59758 1.0972,7.34288 -1.00249,0.73304 -0.91129,0.97384 1.58882,4.19461 l 2.65236,3.41693 -1.09014,6.78671 c -1.04082,6.47968 -1.2812,7.13804 -5.31375,14.55296 -3.90629,7.18278 -4.37512,7.80208 -6.24026,8.24318 -1.85406,0.43848 -3.21013,1.82659 -5.22223,5.34565 -0.3964,0.69327 -0.6405,0.72206 -1.22391,0.14433 -1.13619,-1.12514 -3.25704,-0.878 -3.6715,0.42783 -0.4391,1.3835 0.0285,2.25604 1.50068,2.80065 0.99675,0.36873 0.81008,0.87248 -2.07084,5.58852 l -3.16635,5.18326 -6.04386,0.90903 c -5.82868,0.87668 -6.08305,0.86985 -7.14463,-0.19173 z"
     id="path3442"
     inkscape:connector-curvature="0" /><path
     style="fill:#cccccc;fill-opacity:0.2"
     d="m 259.46305,490.43188 c -0.77738,-0.77738 -1.25743,-0.80895 -3.24511,-0.21343 -2.30813,0.69153 -2.37037,0.66998 -5.89366,-2.04113 l -3.5609,-2.74005 0.36617,-4.40748 c 0.20139,-2.42412 0.50975,-5.16094 0.68524,-6.08182 0.27706,-1.45389 0.1775,-1.6196 -0.75617,-1.25856 -2.08028,0.80439 -4.11413,1.02273 -4.45091,0.4778 -0.18722,-0.30292 0.82047,-1.38443 2.2393,-2.40336 1.62425,-1.16644 2.57969,-2.29429 2.57969,-3.04517 0,-1.25766 -0.30745,-1.26273 -6.7215,-0.11093 -1.66467,0.29894 -1.86848,0.1613 -2.47286,-1.67001 -0.36227,-1.09768 -0.49472,-3.0211 -0.29433,-4.27425 l 0.36434,-2.27846 -5.36109,-1.64455 -5.36109,-1.64453 -6.96365,1.32509 c -7.98302,1.51906 -8.45708,1.70412 -9.53771,3.7233 -0.71843,1.3424 -1.13151,1.48803 -4.22082,1.48803 -1.88345,0 -6.39863,0.55996 -10.03373,1.24436 l -6.60928,1.24436 -2.37997,-1.67736 c -1.30899,-0.92255 -2.49064,-2.01265 -2.62591,-2.42244 -0.13526,-0.4098 0.75225,-1.6865 1.97225,-2.83711 l 2.21819,-2.09202 0.31938,-13.32814 0.31939,-13.32816 2.46658,-6.41948 2.46658,-6.41948 7.75757,-3.25081 c 6.47722,-2.71427 8.32368,-3.2508 11.18764,-3.2508 3.22538,0 3.51982,-0.11766 4.93389,-1.9716 1.11464,-1.46138 1.45841,-2.51692 1.32838,-4.0788 l -0.17544,-2.10719 8.91589,-5.41225 c 4.90374,-2.97675 9.12547,-5.28274 9.38162,-5.12443 0.25615,0.15831 0.46573,1.3117 0.46573,2.56309 0,2.51007 -8.1e-4,2.50961 2.91585,1.69935 1.89848,-0.5274 2.14533,-0.8659 3.34277,-4.58386 0.80808,-2.509 1.66313,-4.12524 2.28013,-4.30997 8.21179,-2.45866 9.0116,-2.55488 13.61787,-1.63832 2.7102,0.53928 4.36516,1.1366 4.22049,1.52329 -0.13089,0.34987 -1.22927,3.3159 -2.44083,6.59117 l -2.20285,5.95504 4.57687,4.51402 c 4.2577,4.19922 4.71779,4.49525 6.59754,4.24485 l 2.02065,-0.26916 3.47376,-11.6372 c 2.52736,-8.46673 3.72994,-11.68652 4.41406,-11.81827 0.75838,-0.14605 1.01368,0.52298 1.31959,3.45796 0.61726,5.92217 0.81713,6.45164 2.99959,7.94594 l 2.07431,1.42025 -0.41113,9.07204 -0.41112,9.07203 2.34594,1.55247 c 2.18172,1.4438 2.49719,2.01203 4.5067,8.11765 2.02602,6.1558 2.0978,6.61122 1.15111,7.30346 -0.9309,0.68069 -0.80743,1.01039 1.58289,4.22703 l 2.59254,3.48875 -1.08422,6.7543 c -1.03383,6.44043 -1.28076,7.11624 -5.31382,14.54332 -3.8855,7.15534 -4.38379,7.81818 -6.12484,8.14735 -1.41589,0.26771 -2.35217,1.03477 -3.70187,3.03285 -0.99365,1.47099 -1.86914,2.75747 -1.94553,2.85886 -0.0764,0.10138 -0.68468,-0.15652 -1.35176,-0.57312 -0.90483,-0.56508 -1.46898,-0.59591 -2.22121,-0.12142 -1.40099,0.88372 -1.26007,2.65992 0.27161,3.42355 1.26809,0.63221 1.25078,0.68588 -1.86759,5.79035 l -3.14754,5.15223 -4.19437,0.67771 c -5.87237,0.94883 -8.12977,0.91278 -9.18929,-0.14673 z"
     id="path3444"
     inkscape:connector-curvature="0" /><path
     style="fill:#cccccc;fill-opacity:0.2"
     d="m 174.04509,358.55881 c -0.50965,-0.29789 -4.01693,-5.73126 -7.79396,-12.07415 -4.69414,-7.88302 -7.22068,-11.5884 -7.98393,-11.70909 -1.3266,-0.20978 -7.86524,-10.67618 -7.41032,-11.86169 0.24949,-0.65016 0.45192,-0.64897 1.23729,0.007 11.35815,9.49104 24.27031,20.81658 24.54301,21.52722 0.19536,0.50911 0.3552,1.55064 0.3552,2.31452 0,0.99248 0.65908,1.80492 2.30932,2.84667 1.27013,0.8018 2.30933,1.66391 2.30933,1.9158 0,0.25189 -0.54345,2.06722 -1.20767,4.03407 -1.18809,3.51815 -1.24187,3.5758 -3.31965,3.55853 -1.16159,-0.01 -2.52897,-0.26129 -3.03862,-0.55918 z"
     id="path3446"
     inkscape:connector-curvature="0" /><path
     style="fill:#cccccc;fill-opacity:0.2"
     d="m 205.28158,354.58379 c 0,-0.82005 -1.00276,-1.45946 -4.07434,-2.59799 -2.24089,-0.83062 -4.95877,-1.51021 -6.03972,-1.51021 -2.1803,0 -1.80942,0.77257 -4.22661,-8.80429 -0.99136,-3.92778 -1.02057,-4.47431 -0.23914,-4.47431 0.4896,0 1.71648,0.9559 2.72642,2.12422 l 1.83625,2.12423 5.73023,-1.9625 c 3.15163,-1.07938 6.02964,-2.17595 6.39558,-2.43684 0.36593,-0.26089 1.10202,-2.25626 1.63574,-4.43416 0.94275,-3.84696 1.02662,-3.96638 2.94297,-4.1901 1.89735,-0.2215 1.97258,-0.15677 1.97258,1.69744 0,1.06025 0.52939,2.96543 1.17642,4.23372 0.64704,1.26829 1.42141,2.95032 1.72082,3.73784 0.49446,1.30054 0.42493,1.40188 -0.75812,1.10495 -1.10035,-0.27617 -1.50185,0.0834 -2.58681,2.31657 -0.74988,1.54348 -1.28431,3.73252 -1.28431,5.26062 0,2.08491 -0.44028,3.2514 -2.16499,5.73596 -1.5121,2.17829 -2.55672,3.12542 -3.46398,3.14072 -0.89523,0.0151 -1.29899,-0.31621 -1.29899,-1.06587 z"
     id="path3448"
     inkscape:connector-curvature="0" /><path
     style="fill:#cccccc;fill-opacity:0.2"
     d="m 218.99231,360.5299 c -0.21249,-0.2125 0.002,-1.31633 0.47714,-2.45297 0.80394,-1.9241 0.7828,-2.17574 -0.30665,-3.64929 l -1.17012,-1.58268 1.37694,-5.82638 c 2.15561,-9.1212 4.50311,-11.77651 8.42785,-9.53293 2.16447,1.23732 4.57823,1.03386 6.67092,-0.5623 1.49988,-1.14402 1.99652,-1.27898 2.49523,-0.67807 0.47029,0.56666 0.13292,1.22489 -1.37882,2.69013 l -2.00146,1.93989 -3.69212,-0.73388 c -3.19658,-0.63538 -3.92653,-0.61265 -5.43876,0.16936 -2.26616,1.17188 -2.51191,2.0163 -1.15201,3.9585 1.3656,1.95033 2.0332,1.97495 4.68869,0.17289 2.91347,-1.97714 3.45103,-0.66315 0.68034,1.66298 -2.1422,1.7985 -2.16293,1.85498 -1.29637,3.53208 1.69892,3.28798 2.27665,6.51848 1.55616,8.70159 -1.02888,3.11754 -2.39896,2.36476 -3.28854,-1.80685 -0.40562,-1.90212 -0.87063,-4.04294 -1.03336,-4.75739 -0.16274,-0.71445 -0.6412,-1.29899 -1.06325,-1.29899 -0.54014,0 -0.92154,1.49587 -1.288,5.05164 -0.45776,4.44172 -0.6629,5.07201 -1.69904,5.22033 -0.64813,0.0928 -1.35228,-0.005 -1.56477,-0.21766 z"
     id="path3450"
     inkscape:connector-curvature="0" /><path
     style="fill:#cccccc;fill-opacity:0.2"
     d="m 276.14242,374.45752 c -1.1864,-1.48691 -1.68866,-2.90234 -1.96373,-5.53401 l -0.36959,-3.53609 -5.32841,-4.42493 c -4.85006,-4.02769 -5.36415,-4.64833 -5.7265,-6.91342 -0.33943,-2.12181 -0.58112,-2.46209 -1.64026,-2.30932 -0.87466,0.12615 -1.41779,0.80747 -1.83573,2.30279 -0.80633,2.88491 -1.58111,2.9454 -2.37836,0.1857 -0.62497,-2.16336 -0.57464,-2.38539 0.7963,-3.51276 1.59758,-1.31376 1.34226,-2.54921 -0.52684,-2.54921 -1.60602,0 -3.39196,-1.03966 -3.39196,-1.97457 0,-1.3274 2.72109,-2.64408 5.46433,-2.64408 l 2.6183,0 0,3.42467 c 0,3.12118 0.14859,3.53048 1.67678,4.61865 0.92223,0.65668 1.90005,1.19397 2.17293,1.19397 0.27289,0 2.17874,-1.13031 4.23522,-2.5118 l 3.73907,-2.51179 3.03662,2.0162 3.03662,2.01621 -0.006,10.16587 c -0.007,10.91503 -0.3448,14.49587 -1.36818,14.49584 -0.35537,-1e-5 -1.36348,-0.89907 -2.24026,-1.99792 z"
     id="path3452"
     inkscape:connector-curvature="0" /><path
     style="fill:#cccccc;fill-opacity:0.2"
     d="m 299.67512,382.0682 -3.46399,-1.86009 -0.42758,-3.44253 c -0.50613,-4.07492 -1.66227,-5.48057 -4.828,-5.86996 -2.12983,-0.26196 -2.37278,-0.12273 -4.55904,2.61283 -1.73929,2.1763 -2.70121,2.89664 -3.89698,2.91828 l -1.58766,0.0287 0.0506,-9.38162 c 0.0278,-5.15989 0.22267,-10.6411 0.433,-12.18046 l 0.38242,-2.79885 5.26943,3.46334 c 4.67491,3.07257 5.32836,3.71405 5.79165,5.68549 0.4583,1.95017 0.75015,2.24435 2.38445,2.40339 1.36169,0.13252 2.08954,0.62079 2.70791,1.81658 0.78703,1.52196 0.75936,1.69265 -0.39917,2.46189 l -1.24484,0.82654 1.63052,3.70752 c 1.2519,2.84658 2.34909,4.28363 4.7249,6.18846 2.22553,1.78435 3.09437,2.87854 3.09437,3.89698 0,1.97599 -1.75109,1.83834 -6.06197,-0.47652 z"
     id="path3454"
     inkscape:connector-curvature="0" /><path
     style="fill:#cccccc;fill-opacity:0.2"
     d="m 185.23532,270.65965 c -0.30712,-0.39692 -0.72047,-1.17632 -0.91856,-1.732 -0.44104,-1.23716 -2.20854,-1.29708 -4.42664,-0.15006 -1.64441,0.85036 -1.69227,0.82799 -4.15698,-1.94275 -3.46588,-3.89625 -5.56196,-4.18592 -10.88654,-1.5045 -2.42505,1.22123 -4.08114,2.44911 -4.32054,3.20339 -0.33566,1.05757 -0.67301,1.16966 -2.49282,0.82826 -2.82857,-0.53064 -2.97942,-0.66632 -2.97942,-2.67984 0,-1.50404 -0.32375,-1.87154 -2.3499,-2.66743 -3.31825,-1.30345 -4.20607,-3.55063 -2.75379,-6.97021 0.58431,-1.37583 1.06127,-2.80472 1.05991,-3.17532 -0.005,-1.3546 -3.48238,-5.8786 -4.7525,-6.18285 -0.71885,-0.17219 -1.63653,-0.99694 -2.0393,-1.83279 -0.44648,-0.92655 -1.3906,-1.66429 -2.41893,-1.89015 -1.41593,-0.31099 -2.50548,0.18015 -6.78891,3.06033 -4.87226,3.2761 -5.3113,3.44927 -9.73852,3.84117 -3.91043,0.34615 -5.30886,0.20986 -8.93271,-0.87056 -2.36306,-0.70453 -5.81371,-2.18907 -7.6681,-3.29898 -3.11226,-1.86277 -3.61683,-1.98919 -6.55892,-1.64341 -2.841114,0.33392 -3.462374,0.20081 -5.720284,-1.22562 l -2.533009,-1.60021 -0.0012,-3.60649 -0.0012,-3.60649 -5.340308,-6.90541 c -4.377683,-5.66067 -5.675793,-6.97292 -7.201464,-7.27987 -1.441589,-0.29003 -2.020496,-0.81508 -2.567926,-2.32898 -0.552147,-1.52692 -1.115085,-2.03112 -2.573162,-2.30466 -2.500638,-0.46913 -2.847019,-1.72443 -1.105761,-4.00733 1.343148,-1.76096 1.585852,-1.85459 3.61869,-1.39612 1.19844,0.2703 2.329719,0.30936 2.513957,0.0868 0.605146,-0.73099 7.812303,-10.78146 8.204322,-11.44103 0.210668,-0.35444 -0.556898,-1.85089 -1.705699,-3.32542 l -2.08873,-2.68097 2.475807,-5.47982 2.475806,-5.47981 2.3354,0.14527 2.3354,0.14528 1.560704,-3.75265 c 0.858381,-2.06396 1.982472,-4.16877 2.49797,-4.67735 0.860996,-0.84945 0.574294,-0.95538 -3.523217,-1.30175 -3.943687,-0.33336 -4.673092,-0.58311 -6.295431,-2.15554 l -1.834941,-1.7785 -4.961446,0.50873 -4.961451,0.50872 -3.908868,-3.96697 c -2.149875,-2.18183 -5.158645,-5.02394 -6.686146,-6.3158 l -2.777283,-2.34883 -2.130026,2.04001 -2.130032,2.04001 -6.804035,-3.09908 -6.804035,-3.09909 -8.856416,4.41731 -8.856417,4.4173 -0.356226,3.40818 c -0.323213,3.09234 -0.213246,3.59564 1.186582,5.43091 1.705183,2.23562 1.752313,2.14634 -2.249959,4.26208 -1.60868,0.85053 -3.284909,1.13233 -6.735238,1.13233 -4.253066,0 -4.672611,-0.10862 -5.661092,-1.46559 -0.918714,-1.26119 -1.650058,-1.51441 -5.2441279,-1.81572 -3.7405424,-0.31359 -4.1787946,-0.477 -4.1982549,-1.56541 -0.031748,-1.77565 4.2518627,-77.390186 4.3962263,-77.602424 0.067169,-0.09875 2.8697805,0.341312 6.2280245,0.977906 4.204717,0.797062 6.784734,1.618736 8.286066,2.638914 1.199091,0.814804 2.244695,1.284044 2.323566,1.042754 0.07887,-0.2413 -0.05344,-1.584856 -0.294032,-2.985697 -0.399514,-2.326214 -0.645921,-2.623003 -2.842716,-3.423974 -2.362728,-0.861475 -2.416773,-0.942965 -3.054627,-4.605792 -0.638079,-3.664115 -0.622242,-3.757088 0.912911,-5.359446 1.266907,-1.322363 1.429972,-1.790031 0.862539,-2.473746 -0.440286,-0.530513 -0.557953,-1.59877 -0.317362,-2.88123 0.419306,-2.235094 -0.0791,-2.153504 6.037022,-0.98828 l 2.020657,0.38497 0.933332,5.596819 c 0.8325,4.992177 1.196958,5.945997 3.373561,8.828885 l 2.44023,3.232064 -0.388012,3.863651 c -0.376851,3.752526 -0.454141,3.901706 -2.687135,5.186856 -1.738879,1.00078 -2.255367,1.6306 -2.119554,2.58469 0.165134,1.16006 0.492672,1.25779 4.074178,1.21574 2.142035,-0.0252 4.014835,-0.16597 4.161778,-0.31292 0.146944,-0.14694 0.550056,-2.09041 0.895806,-4.31882 0.447431,-2.88377 0.450734,-4.519571 0.01146,-5.674954 -1.071385,-2.817956 0.699251,-3.820456 4.170618,-2.361322 0.846239,0.355705 1.010329,0.109023 1.010329,-1.51887 0,-2.608541 -1.527577,-3.615636 -3.741809,-2.466876 -3.34782,1.73687 -3.494315,1.55302 -6.643274,-8.337224 -3.51171,-11.029569 -3.395246,-12.591627 0.602519,-8.081183 l 2.744724,3.096714 1.642595,-1.548227 1.642595,-1.548228 4.355827,1.508778 4.355826,1.508778 1.850477,-1.368116 c 1.017761,-0.752464 1.850476,-1.5332 1.850476,-1.73497 0,-0.201771 -1.623742,-1.031367 -3.608316,-1.843548 -3.480172,-1.424252 -3.614375,-1.556118 -3.778935,-3.713155 -0.150705,-1.97544 0.287271,-2.859096 3.752649,-7.571291 3.204738,-4.35778 5.086358,-6.207615 10.273903,-10.10035 3.492849,-2.621035 9.418731,-6.416667 13.168631,-8.434739 6.337715,-3.41075 6.754571,-3.739303 5.917638,-4.664104 -0.4952,-0.547185 -0.900359,-1.29036 -0.900359,-1.651499 0,-1.401616 1.990827,-4.737104 2.827396,-4.737104 0.484854,0 1.970677,1.068898 3.301828,2.375328 l 2.420285,2.375329 5.395535,-1.791294 5.395528,-1.791294 3.896981,1.175233 3.89698,1.175234 -0.0164,3.869704 -0.0164,3.869705 -6.04353,5.195974 c -5.672707,4.877165 -6.043647,5.328812 -6.04557,7.360964 -0.0017,2.141275 0.02327,2.164989 2.307278,2.164989 2.141244,0 2.309322,-0.11699 2.309322,-1.60738 0,-1.17541 0.81455,-2.408977 3.03099,-4.590155 l 3.03098,-2.982774 8.14673,-1.368702 8.14674,-1.368702 2.10366,1.927859 2.10366,1.927859 2.30654,-1.17671 c 2.48696,-1.268751 2.695,-1.960013 1.7781,-5.907977 l -0.5009,-2.156747 7.00964,0.36075 c 3.85531,0.198413 7.09977,0.436378 7.20992,0.528811 0.11015,0.09243 -0.53204,1.470828 -1.4271,3.063101 -0.89506,1.592272 -1.4816,3.040823 -1.30342,3.219002 0.33457,0.334577 12.24248,2.626469 13.64625,2.626469 0.60539,0 0.70179,-0.588284 0.41252,-2.517282 l -0.37749,-2.517283 6.54842,-0.678522 c 9.38068,-0.971992 9.14641,-0.889832 9.14641,-3.20763 0,-1.486633 -0.2939,-2.064033 -1.19642,-2.35048 -0.8321,-0.2641 -1.07782,-0.67149 -0.80694,-1.337899 0.2142,-0.526994 0.62822,-1.615564 0.92003,-2.419045 0.49007,-1.349405 1.15736,-1.586015 8.74524,-3.100936 l 8.21468,-1.640062 8.76692,2.006203 8.76692,2.006203 2.46689,-2.513583 2.4669,-2.513582 5.6606,0 5.66061,0 1.2622,2.597987 c 0.69421,1.428893 1.51117,2.597987 1.81547,2.597987 0.3043,0 4.00755,-1.338644 8.22945,-2.974766 l 7.67616,-2.974766 3.0578,1.29377 c 1.68178,0.711574 3.38254,1.428518 3.77945,1.593208 0.51589,0.214056 0.72166,-0.454735 0.72166,-2.345492 0,-2.388847 -0.18166,-2.744184 -1.87632,-3.670083 -1.83401,-1.002033 -1.45314,-1.029026 16.88692,-1.196794 11.87563,-0.108634 19.52903,0.05015 20.8494,0.432557 1.40297,0.406328 2.60808,1.357306 3.67982,2.903839 0.87651,1.264804 1.77617,2.186849 1.99922,2.048989 0.22307,-0.13786 0.87984,-1.3024 1.45951,-2.587867 0.57966,-1.285467 1.33923,-2.339756 1.68791,-2.342863 1.16404,-0.01037 9.58261,3.154714 9.58261,3.602725 0,0.242861 -0.94568,1.75789 -2.10152,3.366731 l -2.10153,2.925166 2.13424,2.18565 c 1.79072,1.833865 2.0695,2.443519 1.73212,3.787788 l -0.40211,1.602136 -4.18676,-0.379393 c -5.4212,-0.491257 -10.96379,-2.661416 -13.02889,-5.101362 l -1.5916,-1.880508 -1.30096,1.275401 -1.30095,1.2754 1.48448,3.440449 1.48447,3.440449 -1.66844,1.598467 c -0.91764,0.879157 -1.66844,1.77924 -1.66844,2.000184 0,0.220944 1.6664,1.82426 3.70311,3.562925 2.67954,2.287429 4.35511,3.265468 6.06197,3.538406 2.14985,0.343774 2.35886,0.530064 2.35886,2.102367 0,1.448964 -0.22795,1.725168 -1.42374,1.725168 -4.52964,0 -9.13413,5.952198 -11.29294,14.59832 -1.69153,6.774639 -1.55351,6.512108 -2.82059,5.365418 -1.72157,-1.557994 -4.76264,-0.516361 -5.37336,1.840492 -0.48502,1.871737 -0.65129,1.958405 -6.44601,3.359771 l -1.66543,0.402758 0.36644,4.334978 c 0.20154,2.384237 0.36644,5.205073 0.36644,6.268528 0,1.754963 0.15685,1.933549 1.69824,1.933549 1.3967,0 2.1769,0.622039 4.39385,3.503123 l 2.69559,3.50313 -1.27995,1.36245 -1.27995,1.36244 1.53831,3.36011 1.5383,3.36011 -1.47688,1.17763 c -1.45977,1.16398 -1.47688,1.27268 -1.47688,9.38289 0,11.39747 -0.0169,11.39271 -9.79844,-2.76454 l -6.95037,-10.05952 0.0528,-4.35159 c 0.029,-2.39337 -0.10247,-4.74163 -0.29222,-5.21835 -0.18975,-0.47671 1.35939,-5.117724 3.44254,-10.313364 3.63027,-9.054361 3.78508,-9.641662 3.72832,-14.143842 -0.0326,-2.583473 0.11492,-5.281771 0.32778,-5.996217 0.36117,-1.212285 0.21321,-1.298994 -2.21655,-1.298994 -1.84152,0 -2.70612,0.267289 -2.95399,0.913214 -0.56553,1.473756 -0.40755,3.074985 0.47101,4.773934 0.7617,1.472969 0.70059,1.782659 -0.84026,4.258261 -1.5131,2.431004 -1.806,2.631349 -3.2751,2.240219 -1.33026,-0.354169 -1.76405,-0.954506 -2.4719,-3.420937 -0.47218,-1.645262 -1.00401,-2.991386 -1.18183,-2.991386 -0.17782,0 -1.24787,0.974245 -2.3779,2.16499 -1.64906,1.737671 -2.3559,3.274432 -3.58115,7.785936 -0.83961,3.091519 -1.52656,5.725543 -1.52656,5.853387 0,0.127838 0.97365,0.415095 2.16366,0.638343 1.19002,0.223248 2.35514,0.706808 2.58915,1.074579 0.79996,1.257207 0.44381,2.112002 -0.87996,2.112002 -0.80552,0 -2.32057,1.016327 -3.87285,2.597988 -1.40236,1.428897 -2.72765,2.597987 -2.94509,2.597987 -0.77227,0 -1.08299,-1.832638 -0.49651,-2.928474 0.5526,-1.03255 0.37908,-1.11284 -2.40518,-1.11284 -2.34954,0 -3.58655,0.3759 -5.70002,1.732107 -1.48459,0.952667 -5.25089,2.498197 -8.36956,3.434537 -3.11866,0.93632 -5.83329,1.96614 -6.0325,2.28846 -0.1992,0.32232 -0.95652,4.66799 -1.68293,9.65705 -1.04709,7.1916 -1.67464,9.77208 -3.02887,12.45481 l -1.70814,3.38379 2.0398,0.84454 c 1.12189,0.4645 2.98083,1.23423 4.13096,1.71053 2.64799,1.09659 2.52749,1.12411 2.52749,-0.57733 0,-1.24801 0.25785,-1.44332 1.90551,-1.44332 1.66122,0 2.34021,0.5284 5.29615,4.1215 2.2896,2.78315 4.32931,6.20456 6.28129,10.53628 l 2.89066,6.41478 -0.12268,8.37129 c -0.11941,8.14887 -0.18492,8.55009 -2.46526,15.10039 -2.28999,6.57799 -2.38662,6.73735 -4.3034,7.09694 -1.11986,0.21009 -2.49813,0.0803 -3.21369,-0.30268 -1.06167,-0.56819 -1.3967,-0.47987 -2.19518,0.5787 -1.15102,1.52594 -1.76408,1.03275 -1.76408,-1.41915 0,-1.01562 -0.5196,-2.50714 -1.15466,-3.31449 -0.63507,-0.80735 -1.15466,-2.27128 -1.15466,-3.25318 0,-1.65541 0.14697,-1.78526 2.02065,-1.78526 l 2.02066,0 0,-8.37129 c 0,-4.60421 -0.14338,-8.37129 -0.31862,-8.37129 -0.17524,0 -1.33329,0.58397 -2.57344,1.29771 -1.53077,0.881 -2.30906,1.7616 -2.42371,2.74232 -0.30892,2.64264 -2.87921,2.16307 -10.03633,-1.87262 -5.91691,-3.33638 -6.78602,-4.06039 -11.43803,-9.52838 l -5.03456,-5.91763 -5.01588,0.0182 c -4.46994,0.0163 -5.1887,0.17034 -6.60355,1.41564 -0.87321,0.76856 -1.58766,1.63732 -1.58766,1.93057 0,0.29325 0.63915,1.97842 1.42033,3.74481 1.1554,2.61254 1.35434,3.76883 1.06656,6.19872 -0.48606,4.10405 -1.66021,4.58129 -9.12581,3.70929 l -5.5208,-0.64484 -2.67039,2.85485 -2.67039,2.85486 -3.75049,-0.30105 c -2.60779,-0.20933 -3.90828,-0.583 -4.26837,-1.22645 -0.76707,-1.37068 -6.43982,-1.26557 -8.45402,0.15665 -2.35434,1.66239 -5.12539,1.02402 -6.30652,-1.45285 -0.82607,-1.73227 -1.46952,-2.12805 -5.56129,-3.42063 l -4.62714,-1.46172 -1.00835,1.32758 c -2.52627,3.32603 -2.61186,3.93253 -0.7776,5.51029 l 1.69871,1.46117 -2.00108,1.69171 c -2.43321,2.05702 -4.03979,1.93605 -10.25514,-0.77219 -4.08681,-1.78076 -4.2362,-1.80275 -4.99742,-0.73554 -0.43157,0.60506 -1.79979,2.50206 -3.04049,4.21557 l -2.25582,3.11547 1.47993,2.79731 c 1.15798,2.18878 1.79392,2.80137 2.92326,2.81595 1.19666,0.0155 1.95685,0.88958 4.44815,5.1149 l 3.00482,5.09627 3.92314,0.37049 c 2.15774,0.20377 4.90663,0.37234 6.10866,0.37459 2.01994,0.004 2.26518,0.18998 3.23731,2.45776 0.97035,2.26362 1.34415,2.54869 4.82625,3.68067 l 3.77443,1.22701 2.80287,-1.65017 c 3.448,-2.02998 3.71718,-2.03632 6.56087,-0.15445 3.13728,2.07616 6.85343,1.73611 13.89841,-1.27176 l 5.30338,-2.2643 4.97012,-6.49496 c 3.80276,-4.96945 5.28367,-6.49497 6.30506,-6.49497 1.07205,0 1.64124,-0.67835 2.89055,-3.4449 1.43244,-3.17212 1.7042,-3.44641 3.43194,-3.46398 1.61405,-0.0164 1.87633,-0.22189 1.87633,-1.46992 0,-1.145 -0.54105,-1.71369 -2.56673,-2.69784 -2.38273,-1.15762 -2.72417,-1.18643 -4.76297,-0.40184 -3.92665,1.51109 -4.78584,0.61152 -3.85608,-4.03728 0.24621,-1.23107 0.69606,-1.80416 1.41616,-1.80416 0.82541,0 3.2705,-0.81349 4.44376,-1.47844 0.0873,-0.0495 0.42751,-1.62064 0.75598,-3.49142 0.54827,-3.12276 0.47413,-3.67929 -0.90492,-6.7929 -1.41927,-3.20439 -1.44808,-3.45121 -0.52218,-4.47431 0.80798,-0.89281 1.81885,-1.08284 5.76001,-1.08284 l 4.78004,0 4.71912,5.70003 c 4.43676,5.35899 5.12736,5.93118 11.54233,9.56331 5.64269,3.19487 7.19929,3.83185 8.99687,3.68159 1.90633,-0.15935 2.23262,-0.41081 2.6531,-2.04469 0.26371,-1.02465 0.99318,-2.13793 1.62106,-2.47397 1.10786,-0.59291 1.14161,-0.40558 1.14161,6.33732 l 0,6.94827 -1.73199,0 c -1.68612,0 -1.73199,0.0741 -1.73199,2.79717 0,2.08131 0.3011,3.06968 1.17653,3.86192 0.91092,0.82438 1.08891,1.46367 0.78843,2.83178 -0.21346,0.97186 -0.83593,2.08069 -1.38327,2.46406 -0.54734,0.38338 -1.33192,1.89985 -1.74353,3.36995 -0.66012,2.35773 -0.91021,2.64197 -2.12091,2.41053 -2.07845,-0.39732 -5.86055,4.05837 -5.50443,6.48478 0.18422,1.25514 0.0237,1.75968 -0.56,1.75968 -0.45005,0 -1.69396,0.90349 -2.76425,2.00775 -2.53696,2.61748 -3.66046,1.91537 -3.38042,-2.11254 0.19831,-2.8523 -0.16446,-3.35919 -2.40411,-3.35919 -1.41312,0 -4.27627,3.704 -5.74661,7.43428 l -1.18924,3.01716 1.84057,2.29036 c 1.0277,1.27883 2.62274,2.50295 3.61161,2.77174 1.64181,0.44627 1.82943,0.34016 2.57105,-1.4541 0.77905,-1.8848 0.88869,-1.9355 4.18565,-1.9355 2.98607,0 3.38564,0.13452 3.38564,1.13984 0,0.65867 -0.6702,1.4879 -1.58766,1.96438 -2.52983,1.31387 -4.18565,4.01154 -4.18565,6.8193 0,2.31132 0.29057,2.75706 4.66164,7.15095 3.88549,3.90578 4.71251,5.06526 4.96718,6.96397 0.22342,1.66575 0.0567,2.48453 -0.62033,3.0464 -1.34282,1.11445 -1.14842,1.59284 0.80613,1.98375 1.72567,0.34514 1.73183,0.3607 1.68722,4.25782 -0.0294,2.56732 -0.57497,5.54091 -1.58766,8.65338 -1.29507,3.9803 -2.23203,5.5793 -5.83335,9.95501 -4.18816,5.08873 -4.40622,5.25672 -9.14525,7.04534 -3.56895,1.34701 -5.26142,2.34197 -6.39014,3.75658 -1.69719,2.12707 -2.00234,2.25728 -2.81839,1.20264 z"
     id="path3456"
     inkscape:connector-curvature="0" /><path
     style="fill:#cccccc;fill-opacity:0.2"
     d="m 91.589334,300.8238 -7.671696,-15.5893 1.361261,-1.11712 c 1.106274,-0.90787 1.242072,-1.31315 0.724968,-2.16362 -0.349961,-0.57557 -1.219034,-1.13276 -1.931275,-1.23819 -1.041493,-0.15416 -1.215938,-0.43669 -0.891171,-1.44332 0.853951,-2.64686 0.966964,-5.04666 0.276821,-5.87824 -1.147133,-1.38221 -2.228756,-0.99798 -3.106876,1.10366 -1.079272,2.58306 -2.311292,3.23317 -4.723927,2.49271 -1.973222,-0.6056 -4.056728,-3.85746 -2.750494,-4.29287 3.291181,-1.09706 3.198095,-3.90013 -0.116667,-3.51315 -1.55715,0.18178 -1.961105,0.0502 -1.726135,-0.56207 0.168716,-0.43967 0.306757,-0.90805 0.306757,-1.04085 0,-0.13279 1.169095,-0.24144 2.597988,-0.24144 l 2.597987,0 0,-2.43181 c 0,-2.07331 -0.351956,-2.79041 -2.387516,-4.8645 -2.975794,-3.03211 -2.747018,-4.25031 0.798209,-4.25031 l 2.488246,0 3.994338,-8.05433 3.994339,-8.05433 -1.666786,-1.32729 c -0.916731,-0.73001 -1.982855,-1.58709 -2.369163,-1.90462 -0.386308,-0.31753 -0.872028,-1.39806 -1.079377,-2.40118 l -0.377,-1.82384 4.478226,-0.41965 4.478225,-0.41964 1.898168,2.24349 c 1.703905,2.01389 1.899046,2.61522 1.906756,5.87565 l 0.0086,3.63217 2.861913,1.77906 c 2.532955,1.57457 2.904632,2.06394 3.23357,4.25745 0.36955,2.46434 0.398349,2.49 5.076378,4.52414 4.19983,1.82621 5.44207,2.08727 11.57546,2.43267 l 6.87073,0.38691 -0.35685,-1.78427 c -0.46257,-2.31283 0.44468,-2.84697 1.66702,-0.98144 0.84523,1.28999 1.35692,1.46172 4.35534,1.46172 l 3.39758,0 0.007,-2.16498 c 0.007,-2.05118 0.22908,-2.30916 4.22305,-4.90731 4.56089,-2.96695 6.36303,-3.3685 7.29579,-1.62562 1.20509,2.25174 0.72772,4.84688 -1.18007,6.41528 -1.63426,1.34353 -1.83344,1.88997 -2.31486,6.35064 -0.5021,4.6523 -1.92601,9.2106 -2.87719,9.2106 -0.24408,0 -0.61496,-0.7794 -0.82419,-1.732 -0.2917,-1.32809 -0.69834,-1.73199 -1.74379,-1.73199 -1.72285,0 -2.25312,-0.81056 -1.1365,-1.73726 0.47279,-0.39239 0.85964,-1.33113 0.85964,-2.08608 0,-1.24759 -0.24344,-1.37263 -2.67235,-1.37263 -2.25626,0 -3.02976,-0.32291 -4.96785,-2.07385 l -2.2955,-2.07385 -1.13303,1.86311 -1.13302,1.86311 1.77089,3.32254 c 2.29075,4.29788 2.41696,7.58851 0.32757,8.5405 -1.11002,0.50576 -1.44412,1.09377 -1.44678,2.54633 -0.003,1.6223 -1.09453,3.0656 -7.739,10.23275 l -7.73554,8.34404 -0.26779,7.24388 c -0.35652,9.64425 -1.88199,14.74294 -4.7722,15.95054 -1.07845,0.45061 -2.052203,0.81929 -2.163895,0.81929 -0.111691,0 -3.655339,-7.01519 -7.874771,-15.58929 z"
     id="path3458"
     inkscape:connector-curvature="0" /><path
     style="fill:#cccccc;fill-opacity:0.2"
     d="m 66.142087,265.573 c -3.115813,-2.76462 -3.241477,-2.81523 -7.035388,-2.83327 -2.124599,-0.0101 -4.023473,0.24142 -4.219718,0.55895 -0.196245,0.31753 -1.250773,0.57733 -2.343394,0.57733 -1.707118,0 -1.986585,-0.19319 -1.986585,-1.37328 0,-0.98156 0.494046,-1.57793 1.731992,-2.0907 2.05612,-0.85167 2.225233,-2.24095 0.594059,-4.88024 l -1.137932,-1.84121 5.144999,-1.64425 c 5.143675,-1.64381 5.145095,-1.64481 5.521128,-3.87053 0.319935,-1.89367 0.866536,-2.55932 3.658586,-4.45536 3.197836,-2.17161 3.309722,-2.33867 4.3401,-6.48034 0.581704,-2.3382 1.577471,-4.99406 2.212815,-5.90191 1.010611,-1.44408 1.059468,-1.82947 0.390409,-3.07962 -0.693622,-1.29604 -0.63243,-1.52944 0.657814,-2.50898 0.782417,-0.59401 2.072073,-1.40527 2.865903,-1.8028 0.793829,-0.39753 1.867423,-1.07135 2.385764,-1.49738 1.703407,-1.40005 3.566181,-0.27717 6.420497,3.87029 l 2.72031,3.95274 -4.608625,0.40795 c -3.077344,0.27241 -4.608624,0.64711 -4.608624,1.12772 0,1.82152 1.514783,4.79969 3.243371,6.37669 l 1.898473,1.732 -3.58125,7.21663 -3.581251,7.21663 -2.687106,0.17371 c -2.349329,0.15187 -2.734564,0.3628 -3.064653,1.67798 -0.31571,1.25789 0.059,1.94748 2.287776,4.21028 2.249758,2.2841 2.605309,2.94513 2.280403,4.23966 -0.343528,1.36872 -0.657564,1.53364 -2.920321,1.53364 -1.82265,0 -2.5354,0.23387 -2.5354,0.83193 0,1.65254 -0.927127,1.32144 -4.044152,-1.44426 z"
     id="path3460"
     inkscape:connector-curvature="0" /><path
     style="fill:#cccccc;fill-opacity:0.2"
     d="m 66.142087,265.573 c -3.115813,-2.76462 -3.241477,-2.81523 -7.035388,-2.83327 -2.124599,-0.0101 -4.023473,0.24142 -4.219718,0.55895 -0.196245,0.31753 -1.250773,0.57733 -2.343394,0.57733 -1.707118,0 -1.986585,-0.19319 -1.986585,-1.37328 0,-0.98156 0.494046,-1.57793 1.731992,-2.0907 2.061567,-0.85393 2.245707,-2.38442 0.589237,-4.89745 l -1.135146,-1.72214 5.035931,-1.74185 c 4.906193,-1.69697 5.050069,-1.79909 5.584701,-3.96394 0.441654,-1.78836 1.177265,-2.6489 3.768672,-4.40869 3.125871,-2.12274 3.250788,-2.31074 4.277545,-6.43786 0.581704,-2.3382 1.577471,-4.99406 2.212815,-5.90191 1.010611,-1.44408 1.059468,-1.82947 0.390409,-3.07962 -0.693622,-1.29604 -0.63243,-1.52944 0.657814,-2.50898 0.782417,-0.59401 2.072073,-1.40527 2.865903,-1.8028 0.793829,-0.39753 1.867423,-1.07135 2.385764,-1.49738 1.703407,-1.40005 3.566181,-0.27717 6.420497,3.87029 l 2.72031,3.95274 -4.608625,0.40795 c -3.077344,0.27241 -4.608624,0.64711 -4.608624,1.12772 0,1.82152 1.514783,4.79969 3.243371,6.37669 l 1.898473,1.732 -3.58125,7.21663 -3.581251,7.21663 -2.481783,0.1789 c -1.989085,0.14339 -2.611092,0.46271 -3.133131,1.60846 -0.592699,1.30083 -0.405191,1.67946 2.082453,4.20509 2.313462,2.34877 2.674617,3.01134 2.348881,4.30918 -0.343528,1.36872 -0.657564,1.53364 -2.920321,1.53364 -1.82265,0 -2.5354,0.23387 -2.5354,0.83193 0,1.65254 -0.927127,1.32144 -4.044152,-1.44426 z"
     id="path3462"
     inkscape:connector-curvature="0" /><path
     style="fill:#cccccc;fill-opacity:0.2"
     d="m 91.589334,300.8238 -7.671696,-15.5893 1.361261,-1.11712 c 1.106274,-0.90787 1.242072,-1.31315 0.724968,-2.16362 -0.349961,-0.57557 -1.219034,-1.13276 -1.931275,-1.23819 -1.041493,-0.15416 -1.215938,-0.43669 -0.891171,-1.44332 0.853951,-2.64686 0.966964,-5.04666 0.276821,-5.87824 -1.147133,-1.38221 -2.228756,-0.99798 -3.106876,1.10366 -1.079272,2.58306 -2.311292,3.23317 -4.723927,2.49271 -1.973222,-0.6056 -4.056728,-3.85746 -2.750494,-4.29287 3.291181,-1.09706 3.198095,-3.90013 -0.116667,-3.51315 -1.55715,0.18178 -1.961105,0.0502 -1.726135,-0.56207 0.168716,-0.43967 0.306757,-0.90805 0.306757,-1.04085 0,-0.13279 1.169095,-0.24144 2.597988,-0.24144 l 2.597987,0 0,-2.43181 c 0,-2.07331 -0.351956,-2.79041 -2.387516,-4.8645 -2.975794,-3.03211 -2.747018,-4.25031 0.798209,-4.25031 l 2.488246,0 3.994338,-8.05433 3.994339,-8.05433 -1.666786,-1.32729 c -0.916731,-0.73001 -1.982855,-1.58709 -2.369163,-1.90462 -0.386308,-0.31753 -0.872028,-1.39806 -1.079377,-2.40118 l -0.377,-1.82384 4.478226,-0.41965 4.478225,-0.41964 1.898168,2.24349 c 1.703905,2.01389 1.899046,2.61522 1.906756,5.87565 l 0.0086,3.63217 2.861913,1.77906 c 2.532955,1.57457 2.904632,2.06394 3.23357,4.25745 0.36955,2.46434 0.398349,2.49 5.076378,4.52414 4.19983,1.82621 5.44207,2.08727 11.57546,2.43267 l 6.87073,0.38691 -0.35685,-1.78427 c -0.46257,-2.31283 0.44468,-2.84697 1.66702,-0.98144 0.84523,1.28999 1.35692,1.46172 4.35534,1.46172 l 3.39758,0 0.007,-2.16498 c 0.007,-2.05118 0.22908,-2.30916 4.22305,-4.90731 4.56089,-2.96695 6.36303,-3.3685 7.29579,-1.62562 1.20509,2.25174 0.72772,4.84688 -1.18007,6.41528 -1.63426,1.34353 -1.83344,1.88997 -2.31486,6.35064 -0.5021,4.6523 -1.92601,9.2106 -2.87719,9.2106 -0.24408,0 -0.61496,-0.7794 -0.82419,-1.732 -0.2917,-1.32809 -0.69834,-1.73199 -1.74379,-1.73199 -1.72285,0 -2.25312,-0.81056 -1.1365,-1.73726 0.47279,-0.39239 0.85964,-1.33113 0.85964,-2.08608 0,-1.24759 -0.24344,-1.37263 -2.67235,-1.37263 -2.25626,0 -3.02976,-0.32291 -4.96785,-2.07385 l -2.2955,-2.07385 -1.13303,1.86311 -1.13302,1.86311 1.77089,3.32254 c 2.29075,4.29788 2.41696,7.58851 0.32757,8.5405 -1.10955,0.50555 -1.4444,1.0944 -1.44797,2.54633 -0.004,1.62031 -1.1038,3.07806 -7.73965,10.25846 l -7.73502,8.36976 -0.26713,7.21816 c -0.35591,9.61726 -1.88439,14.71851 -4.77154,15.92483 -1.07845,0.45061 -2.052203,0.81929 -2.163895,0.81929 -0.111691,0 -3.655339,-7.01519 -7.874771,-15.58929 z"
     id="path3464"
     inkscape:connector-curvature="0" /><path
     style="fill:#cccccc;fill-opacity:0.2"
     d="m 259.46305,490.43188 c -0.77738,-0.77738 -1.25743,-0.80895 -3.24511,-0.21343 -2.30813,0.69153 -2.37037,0.66998 -5.89366,-2.04113 l -3.5609,-2.74005 0.36617,-4.40748 c 0.20139,-2.42412 0.50975,-5.16094 0.68524,-6.08182 0.27706,-1.45389 0.1775,-1.6196 -0.75617,-1.25856 -2.08028,0.80439 -4.11413,1.02273 -4.45091,0.4778 -0.18722,-0.30292 0.82047,-1.38443 2.2393,-2.40336 1.62425,-1.16644 2.57969,-2.29429 2.57969,-3.04517 0,-1.25766 -0.30745,-1.26273 -6.7215,-0.11093 -1.67629,0.30102 -1.8665,0.16729 -2.50238,-1.75944 -0.38452,-1.16511 -0.52447,-3.05423 -0.31716,-4.28126 l 0.37101,-2.19603 -5.32305,-1.63288 -5.32306,-1.63288 -7.26751,1.36806 c -6.70566,1.2623 -7.39847,1.51461 -8.9614,3.26356 -1.52383,1.70519 -2.01109,1.89549 -4.85349,1.89549 -1.73778,0 -6.12503,0.55264 -9.74944,1.2281 l -6.58983,1.2281 -2.38723,-1.7293 c -1.31298,-0.95112 -2.48876,-2.0339 -2.61286,-2.40618 -0.12409,-0.3723 0.77255,-1.6183 1.99255,-2.76891 l 2.21819,-2.09202 0.31938,-13.32814 0.31939,-13.32816 2.47331,-6.43752 2.47332,-6.43753 7.73699,-3.23276 c 6.46073,-2.6995 8.30507,-3.23276 11.1809,-3.23276 3.24114,0 3.53247,-0.11609 4.94774,-1.9716 1.11701,-1.46448 1.45869,-2.51644 1.32838,-4.08978 l -0.17544,-2.11818 8.94017,-5.38626 c 4.9171,-2.96245 9.13883,-5.2635 9.38162,-5.11344 0.2428,0.15006 0.44145,1.29669 0.44145,2.54808 0,2.51007 -8.1e-4,2.50961 2.91585,1.69935 1.89848,-0.5274 2.14533,-0.8659 3.34277,-4.58386 0.80808,-2.509 1.66313,-4.12524 2.28013,-4.30997 8.21179,-2.45866 9.0116,-2.55488 13.61787,-1.63832 2.7102,0.53928 4.36516,1.1366 4.22049,1.52329 -0.13089,0.34987 -1.23286,3.32558 -2.44881,6.61268 l -2.21083,5.97654 4.58486,4.47186 c 4.23518,4.13081 4.73896,4.45291 6.60551,4.22335 l 2.02065,-0.24851 3.47376,-11.6372 c 2.52736,-8.46673 3.72994,-11.68652 4.41406,-11.81827 0.75838,-0.14605 1.01368,0.52298 1.31959,3.45796 0.61726,5.92217 0.81713,6.45164 2.99959,7.94594 l 2.07431,1.42025 -0.41113,9.07204 -0.41112,9.07203 2.34594,1.55247 c 2.18172,1.4438 2.49719,2.01203 4.5067,8.11765 2.02602,6.1558 2.0978,6.61122 1.15111,7.30346 -0.9309,0.68069 -0.80743,1.01039 1.58289,4.22703 l 2.59254,3.48875 -1.08422,6.7543 c -1.03383,6.44043 -1.28076,7.11624 -5.31382,14.54332 -3.8855,7.15534 -4.38379,7.81818 -6.12484,8.14735 -1.41589,0.26771 -2.35217,1.03477 -3.70187,3.03285 -0.99365,1.47099 -1.86914,2.75747 -1.94553,2.85886 -0.0764,0.10138 -0.68468,-0.15652 -1.35176,-0.57312 -0.90483,-0.56508 -1.46898,-0.59591 -2.22121,-0.12142 -1.39664,0.88098 -1.26171,2.6591 0.25932,3.41742 1.25131,0.62385 1.22703,0.69851 -1.88315,5.79035 l -3.15081,5.15836 -4.17882,0.67771 c -5.85154,0.94899 -8.11419,0.91279 -9.17372,-0.14673 z"
     id="path3466"
     inkscape:connector-curvature="0" /><path
     style="fill:#cccccc;fill-opacity:0.2"
     d="m 259.38672,490.52623 c -0.78408,-0.59478 -1.56797,-0.6447 -3.284,-0.20912 -2.16133,0.5486 -2.39984,0.45997 -5.79671,-2.15385 l -3.54263,-2.72599 0.36617,-4.40748 c 0.20139,-2.42412 0.50975,-5.16094 0.68524,-6.08182 0.27706,-1.45389 0.1775,-1.6196 -0.75617,-1.25856 -2.08028,0.80439 -4.11413,1.02273 -4.45091,0.4778 -0.18722,-0.30292 0.82047,-1.38443 2.2393,-2.40336 1.62425,-1.16644 2.57969,-2.29429 2.57969,-3.04517 0,-1.25766 -0.30745,-1.26273 -6.7215,-0.11093 -1.67629,0.30102 -1.8665,0.16729 -2.50238,-1.75944 -0.38452,-1.16511 -0.52447,-3.05423 -0.31716,-4.28126 l 0.37101,-2.19603 -5.25725,-1.61269 -5.25725,-1.61269 -7.33331,1.34039 c -6.81372,1.24542 -7.45334,1.47523 -9.02721,3.24336 -1.49057,1.67457 -2.04162,1.90298 -4.591,1.90298 -1.59342,0 -5.98334,0.55395 -9.7554,1.231 l -6.85827,1.23101 -2.36097,-1.664 c -1.29854,-0.91521 -2.46921,-1.99201 -2.6015,-2.39289 -0.13229,-0.40089 0.7531,-1.69988 1.96753,-2.88665 l 2.20807,-2.15777 0.19541,-12.70127 0.19541,-12.70128 2.22097,-6.06197 c 1.22153,-3.33408 2.38818,-6.48899 2.59256,-7.01091 0.20924,-0.53434 3.75601,-2.36305 8.11802,-4.18564 6.48771,-2.71077 8.30948,-3.23671 11.21154,-3.23671 3.37868,0 3.50169,-0.0553 4.9315,-2.21586 0.97217,-1.46904 1.41274,-2.84667 1.30719,-4.08748 -0.15639,-1.83858 -0.001,-1.96675 8.78097,-7.26019 4.9171,-2.9637 9.13883,-5.26579 9.38162,-5.11573 0.2428,0.15006 0.44145,1.29669 0.44145,2.54808 0,2.51007 -8.1e-4,2.50961 2.91585,1.69935 1.89848,-0.5274 2.14533,-0.8659 3.34277,-4.58386 0.80808,-2.509 1.66313,-4.12524 2.28013,-4.30997 8.19741,-2.45436 9.07147,-2.56254 13.46447,-1.66655 2.34592,0.47847 4.33935,0.93736 4.42983,1.01976 0.0905,0.0824 -0.93053,3.05358 -2.26893,6.60261 l -2.43345,6.45279 4.28959,4.32615 c 4.05625,4.09083 4.41479,4.31709 6.59121,4.15953 l 2.30163,-0.16662 3.48812,-11.54187 c 2.51528,-8.32283 3.74851,-11.59201 4.42175,-11.72167 0.75005,-0.14444 1.00822,0.53578 1.31293,3.45925 0.61753,5.92482 0.81657,6.45126 3.00594,7.9503 l 2.08067,1.4246 -0.40658,9.07489 -0.40659,9.0749 2.33505,1.54525 c 2.16854,1.43508 2.4891,2.01336 4.4958,8.11044 2.0508,6.2311 2.10789,6.60384 1.12193,7.32479 -0.97244,0.71107 -0.89526,0.9422 1.20784,3.61729 1.23565,1.57172 2.41462,3.13704 2.61993,3.47849 0.20531,0.34144 -0.11557,3.6662 -0.71306,7.38835 -1.03369,6.43955 -1.28978,7.14376 -5.28374,14.52973 -3.88133,7.17767 -4.34224,7.78935 -6.12094,8.12304 -1.4498,0.27198 -2.36848,1.01953 -3.73017,3.03537 -0.99365,1.47099 -1.86914,2.75747 -1.94553,2.85886 -0.0764,0.10138 -0.68468,-0.15652 -1.35176,-0.57312 -0.90483,-0.56508 -1.46898,-0.59591 -2.22121,-0.12142 -1.40099,0.88372 -1.26007,2.65992 0.27161,3.42355 1.26809,0.63221 1.25078,0.68588 -1.86759,5.79035 l -3.14754,5.15223 -4.19437,0.67771 c -5.58674,0.90268 -8.02478,0.8889 -9.26562,-0.0524 l 0,-2e-5 z"
     id="path3468"
     inkscape:connector-curvature="0" /><path
     style="fill:#999999;fill-opacity:0.2"
     d="m 259.38672,490.52623 c -0.78408,-0.59478 -1.56797,-0.6447 -3.284,-0.20912 -2.16133,0.5486 -2.39984,0.45997 -5.79671,-2.15385 l -3.54263,-2.72599 0.36617,-4.40748 c 0.20139,-2.42412 0.50975,-5.16094 0.68524,-6.08182 0.27706,-1.45389 0.1775,-1.6196 -0.75617,-1.25856 -2.08028,0.80439 -4.11413,1.02273 -4.45091,0.4778 -0.18722,-0.30292 0.82047,-1.38443 2.2393,-2.40336 1.62425,-1.16644 2.57969,-2.29429 2.57969,-3.04517 0,-1.25766 -0.30745,-1.26273 -6.7215,-0.11093 -1.67629,0.30102 -1.8665,0.16729 -2.50238,-1.75944 -0.38452,-1.16511 -0.52447,-3.05423 -0.31716,-4.28126 l 0.37101,-2.19603 -5.25725,-1.61269 -5.25725,-1.61269 -7.33331,1.34039 c -6.81372,1.24542 -7.45334,1.47523 -9.02721,3.24336 -1.49454,1.67902 -2.03804,1.90298 -4.61831,1.90298 -1.60843,0 -6.00808,0.54712 -9.777,1.21582 l -6.85257,1.21582 -2.33937,-1.64882 c -1.28665,-0.90685 -2.4476,-1.97682 -2.57989,-2.3777 -0.13229,-0.40089 0.75378,-1.69988 1.96905,-2.88665 l 2.20959,-2.15777 0.20631,-12.87326 0.20632,-12.87326 2.54676,-6.71271 c 1.40072,-3.69199 2.62711,-6.79305 2.7253,-6.89124 0.0982,-0.0982 3.59468,-1.61151 7.76997,-3.36292 6.35902,-2.66743 8.15556,-3.18439 11.06638,-3.18439 3.39008,0 3.51076,-0.0541 4.94133,-2.21586 0.97217,-1.46904 1.41274,-2.84667 1.30719,-4.08748 -0.15639,-1.83858 -0.001,-1.96675 8.78097,-7.26019 4.9171,-2.9637 9.13883,-5.26579 9.38162,-5.11573 0.2428,0.15006 0.44145,1.29669 0.44145,2.54808 0,2.51007 -8.1e-4,2.50961 2.91585,1.69935 1.89848,-0.5274 2.14533,-0.8659 3.34277,-4.58386 0.80808,-2.509 1.66313,-4.12524 2.28013,-4.30997 8.19741,-2.45436 9.07147,-2.56254 13.46447,-1.66655 2.34592,0.47847 4.33935,0.93736 4.42983,1.01976 0.0905,0.0824 -0.93053,3.05358 -2.26893,6.60261 l -2.43345,6.45279 4.28959,4.32615 c 4.05625,4.09083 4.41479,4.31709 6.59121,4.15953 l 2.30163,-0.16662 3.48812,-11.54187 c 2.49404,-8.25253 3.75139,-11.59257 4.41189,-11.71977 0.72759,-0.14012 1.00643,0.53315 1.31307,3.17058 0.7393,6.35866 0.89582,6.78344 3.04122,8.25349 l 2.05511,1.40818 -0.40658,9.07489 -0.40659,9.0749 2.33505,1.54525 c 2.16854,1.43508 2.4891,2.01336 4.4958,8.11044 2.0508,6.2311 2.10789,6.60384 1.12193,7.32479 -0.97244,0.71107 -0.89526,0.9422 1.20784,3.61729 1.23565,1.57172 2.41462,3.13704 2.61993,3.47849 0.20531,0.34144 -0.11706,3.67549 -0.71638,7.40901 -1.0413,6.48695 -1.27704,7.13195 -5.31204,14.5336 -3.8754,7.10889 -4.37813,7.77472 -6.11762,8.10237 -1.41672,0.26686 -2.35138,1.03227 -3.70187,3.03151 -0.99365,1.47099 -1.86914,2.75747 -1.94553,2.85886 -0.0764,0.10138 -0.68468,-0.15652 -1.35176,-0.57312 -0.90483,-0.56508 -1.46898,-0.59591 -2.22121,-0.12142 -1.40099,0.88372 -1.26007,2.65992 0.27161,3.42355 1.26809,0.63221 1.25078,0.68588 -1.86759,5.79035 l -3.14754,5.15223 -4.19437,0.67771 c -5.58674,0.90268 -8.02478,0.8889 -9.26562,-0.0524 l 0,-2e-5 z"
     id="path3470"
     inkscape:connector-curvature="0" /></svg>