<?xml version="1.0" encoding="UTF-8" standalone="no"?>
<!-- Generator: Adobe Illustrator 20.0.0, SVG Export Plug-In . SVG Version: 6.00 Build 0)  -->

<svg
   xmlns:dc="http://purl.org/dc/elements/1.1/"
   xmlns:cc="http://creativecommons.org/ns#"
   xmlns:rdf="http://www.w3.org/1999/02/22-rdf-syntax-ns#"
   xmlns:svg="http://www.w3.org/2000/svg"
   xmlns="http://www.w3.org/2000/svg"
   xmlns:sodipodi="http://sodipodi.sourceforge.net/DTD/sodipodi-0.dtd"
   xmlns:inkscape="http://www.inkscape.org/namespaces/inkscape"
   version="1.1"
   id="Layer_1"
   x="0px"
   y="0px"
   viewBox="0 0 372 545"
   style="enable-background:new 0 0 372 545;"
   xml:space="preserve"
   inkscape:version="0.91 r"
   sodipodi:docname="asia-pacific.svg"><metadata
     id="metadata103"><rdf:RDF><cc:Work
         rdf:about=""><dc:format>image/svg+xml</dc:format><dc:type
           rdf:resource="http://purl.org/dc/dcmitype/StillImage" /></cc:Work></rdf:RDF></metadata><defs
     id="defs101" /><sodipodi:namedview
     pagecolor="#ffffff"
     bordercolor="#666666"
     borderopacity="1"
     objecttolerance="10"
     gridtolerance="10"
     guidetolerance="10"
     inkscape:pageopacity="0"
     inkscape:pageshadow="2"
     inkscape:window-width="1590"
     inkscape:window-height="862"
     id="namedview99"
     showgrid="false"
     inkscape:zoom="1.7321101"
     inkscape:cx="75.728612"
     inkscape:cy="196.37187"
     inkscape:window-x="96"
     inkscape:window-y="77"
     inkscape:window-maximized="0"
     inkscape:current-layer="Layer_1" /><style
     type="text/css"
     id="style3">
	.st0{opacity:0.2;}
</style><g
     class="st0"
     id="g5"><path
       id="kalimantan_1_"
       d="M210,328.3l-2.3,8.7l-12.5,4.2l-3.8-4.4l-1.8,0.5l3.4,13.1l5.1,0.6l6.8,2.6v2.6l3.1-0.6l4.5-6.3v-5.1   l2.5-5.1l2.8,0.6l-3.4-7.1l-0.5-4.6L210,328.3L210,328.3z" /><path
       id="papua_new_guinea_1_"
       d="M281.1,352.2l-0.4,24.4l3.5-0.2l4.6-5.4l3.9,0.2l2.5,2.2l0.8,6.9l8,4.2l2-0.8v-2.5l-6.4-5.3   l-3.2-7.3l2.5-1.2l-1.8-4l-3.7-0.1l-0.9-4.3l-9.8-6.6L281.1,352.2L281.1,352.2z" /><path
       id="australia_1_"
       d="M189.5,431.9l-0.3,25.4l-3.9,2.9l-0.3,2.5l5.3,3.6l13.1-2.5h6.7l2.5-3.6l14.9-2.9l10.6,3.2l-0.7,4.3   l1.4,4.3l8.2-1.4l0.3,2.1l-5.3,3.9l1.8,1.4l3.9-1.4l-1.1,11.8l7.5,5.7l4.3-1.4l2.1,2.1l12.4-1.8l11.7-19l4.3-1.1l8.5-15.7l2.1-13.6   l-5.3-6.8l2.1-1.4l-4.3-13.2l-4.6-3.2l0.7-17.9l-4.3-3.2l-1.1-10h-2.1l-7.1,23.6l-3.9,0.4l-8.9-8.9l5-13.2l-9.2-1.8l-10.2,2.8   l-2.8,8.2l-4.6,1.1l-0.3-5.7l-18.9,11.4l0.3,4.3l-2.8,3.9h-7.1l-15.3,6.4L189.5,431.9L189.5,431.9z" /><path
       id="tasmania_1_"
       d="M254,500.2l-1.8,7.1l0.3,5l5.3-0.4l6-9.3L254,500.2L254,500.2z" /><path
       id="new_zealand_north_island_1_"
       d="M341.3,485.9l1.1,11.8l-1.4,5.4l-5.3,3.9l0.3,4.6v5l1.4,1.8l14.5-12.5V503h-3.5l-5-16.8   L341.3,485.9L341.3,485.9z" /><path
       id="new_zealand_south_island_1_"
       d="M330.7,511.6l2.8,5.4l-7.8,7.5l-0.7,3.9l-5.3,0.7l-8.9,8.2l-8.2-3.9l-0.7-2.9l14.9-6.4   L330.7,511.6L330.7,511.6z" /><path
       id="new_caledonia_1_"
       d="M334.9,424.4l-0.3,1.8l4.6,6.4l2.5,1.1l0.3-2.5L334.9,424.4L334.9,424.4z" /><path
       id="sumatra_1_"
       d="M150.8,321.5l-0.3,2.3l6.8,11.4h2l14.2,23.7l5.7,0.6l2.8-8.3l-4.5-2.9l-0.8-4.6L150.8,321.5L150.8,321.5z" /><path
       id="east_malaysia_1_"
       d="M192.4,336.8l3,3.5l11.6-4l2.3-8.8l5.2-0.4l4.7-3.4l-6.1-4.5l-1.4-2.5l-3,5.6l1.1,3.2l-1.8,2.7   l-3.5-0.9l-8.4,6.2l0.2,3.6L192.4,336.8L192.4,336.8z" /><path
       id="brunei_1_"
       d="M208.1,323.1l-2.9,3.5l2.4,0.7l1.3-1.9L208.1,323.1L208.1,323.1z" /><path
       id="sulawesi_1_"
       d="M217.8,353l2.3,2.8l-1.5,4.2v0.8h3.3l1.2-10.4l1.1,0.3l2,9.5l1.9,0.5l1.8-4.1l-1.8-6.1l-1.5-2.7l4.6-3.4   l-1.1-1.5l-4.4,2.9h-1.2l-2.2-3.2l0.7-1.4l3.6-1.8l5.5,1.7l1.7-0.1l4.1-3.9l-1.7-1.7l-3.8,3h-2.5l-3.7-1.8l-2.7,0.1l-3,4.8   l-1.9,8.2L217.8,353L217.8,353z" /><path
       id="maluku_1_"
       d="M242.5,334.4l-1.9,4.5l3,3.9h1l1.3-2.6l0.7-0.9l-1.3-1.4l-1.9-0.7L242.5,334.4L242.5,334.4z" /><path
       id="seram_1_"
       d="M248.3,349.4l-4,0.9l-1.2,1.3l1,1.7l2.7-1l1.7-1l2.5,2l1.1-0.9l-2-2.4L248.3,349.4L248.3,349.4z" /><path
       id="java_1_"
       d="M181.5,362.2l-2.8,1.9l0.6,1.6l8.8,2l4.4,0.8l1.9,2l5,0.4l2.4,2l2.2-0.5l2-1.8l-3.6-1.7l-3.1-2.7l-8.2-2   L181.5,362.2L181.5,362.2z" /><path
       id="bali_1_"
       d="M210.1,370.8l-2.2,1.2l1.3,1.4l3.1-1.2L210.1,370.8L210.1,370.8z" /><path
       id="lombok_1_"
       d="M213.8,369.9l0.4,1.9l2.3,0.6l0.9-1.1l-1-1.5L213.8,369.9L213.8,369.9z" /><path
       id="sumba_1_"
       d="M219.2,374.9l-2.8,0.4l2.5,2.1h2L219.2,374.9L219.2,374.9z" /><path
       id="flores_2_"
       d="M220,371.6l-0.6,1.2l4.4,0.7l3.4-2l-2-0.6l-3.1,0.9l-1.2-1L220,371.6L220,371.6z" /><path
       id="timor_1_"
       d="M234.4,372.3l-5.1,4.3l0.5,1.1l2.2-0.4l2.5-2.4l5-0.7l-1-1.7L234.4,372.3L234.4,372.3z" /><path
       id="new_ireland_1_"
       d="M308.8,352.9l-0.9,1.2l4.8,4.3l0.7,2.5l1.3-0.1l0.2-2.6l-1.5-1.3L308.8,352.9L308.8,352.9z" /><path
       id="new_britain_1_"
       d="M311.2,358.9l-1,0.2l-0.6,2.6l-1.8,1.2l-5.5,1l0.2,2.1l5.8-0.3l3.7-2.3l-0.2-4L311.2,358.9   L311.2,358.9z" /><path
       id="bougainville_1_"
       d="M317.7,363.4l1.2,3.5l2.2,2.1l0.7-0.6l-0.2-2.3l-2.5-3L317.7,363.4L317.7,363.4z" /><path
       id="choiseul_1_"
       d="M323.7,368.5l0.2,2.3l1.4,1.3l1.3-0.8l-1.2-2.4L323.7,368.5L323.7,368.5z" /><path
       id="new_georgia_1_"
       d="M325.5,374.2l-1.2,1.2l1.2,2.3l1.5,0.4l-0.1-1.5L325.5,374.2L325.5,374.2z" /><path
       id="santa_isabel_1_"
       d="M328.3,372.9l1,2.5l2,2.4l1.1-1.8l-1.5-2.5L328.3,372.9L328.3,372.9z" /><path
       id="malaita_1_"
       d="M333.4,376.6l0.6,3.1l1.4,1.9l1.2-2.4L333.4,376.6L333.4,376.6z" /><path
       id="santa_ana_1_"
       d="M335,383.5l-0.5,0.9l1.7,2.2l1.2,0.1l-0.7-2.9L335,383.5L335,383.5z" /><path
       id="rennell_1_"
       d="M331.3,387.9l-1.8,0.8l1.5,2.1l1.3-0.7L331.3,387.9L331.3,387.9z" /><path
       id="espiritu_santo_1_"
       d="M349.2,401.1l-1.2,1.7l0.5,1.9l0.6,0.4l1.1-1.5L349.2,401.1L349.2,401.1z" /><path
       id="malakula_1_"
       d="M349.8,406.2l0.1,1.4l1.3,0.4l0.9-0.5l-0.9-1.5L349.8,406.2L349.8,406.2z" /><path
       id="efate_1_"
       d="M351.8,418.3l-0.6,0.9l0.9,1l1.5-0.5L351.8,418.3L351.8,418.3z" /><path
       id="fiji_1_"
       d="M376.9,416.2l-1.2,1.7l-0.1,1.9l1.4,1.5L376.9,416.2L376.9,416.2z" /><path
       id="palawan_1_"
       d="M217.7,301.4l-0.9,1.6l-0.5,2l-4.8,6.1l0.3,1.2l2-0.3l6.2-6.9L217.7,301.4L217.7,301.4z" /><path
       id="negros_1_"
       d="M225.4,299.1l-0.1,5l1.8,1.8l0.7,3.6l1.8,0.4l0.9-2.2l-1.4-1.1l-0.4-6.3L225.4,299.1L225.4,299.1z" /><path
       id="cebu_1_"
       d="M230.6,301l-0.1,4.4l1,1.7l1.8-2.1l-0.5-3.9L230.6,301L230.6,301z" /><path
       id="samar_1_"
       d="M231.7,297.2l1.8,2.4l0.9,2.3h1.6l-0.3-4l-1.8-1.2L231.7,297.2L231.7,297.2z" /><path
       id="path7462_1_"
       d="M235.3,306.3l0.4,2.9l-3.3,2.7l-2.8,0.3l-3,3.2l0.1,1.5l2.8-0.9l1.9-1.2l1.6,4.1l2.9,2l1.2-0.4l1-1.2   l-2.3-2.3l1.3-1.1l1.5,1.2l1-1.7l-1-2.1l-0.2-4.7L235.3,306.3L235.3,306.3z" /><path
       id="luzon_1_"
       d="M219.7,276.9l-2.6,1.8l-0.3,5.8l4,7.8l1.3,1.1l1.7-1.2l3,0.5l0.6,2.6l2.2,0.2l1-1.4l-1.3-1.8l-1.6-1.5   l-3.4-0.4l-1.8-3l2.1-3.2l0.2-2.8l-1.4-3.6L219.7,276.9L219.7,276.9z" /><path
       id="mindoro_1_"
       d="M221,294.1l0.8,2.7l1.3,0.9l1-1.2l-1.5-2.1L221,294.1L221,294.1z" /><path
       id="hainan_1_"
       d="M188.1,274.1l-2.4,0.7l-1.7,2.1l1.4,2.8l2.1,0.2l2.4-2.1l0.6-2.8L188.1,274.1L188.1,274.1z" /><path
       id="taiwan_1_"
       d="M215.8,252.2l-3.5,2.7l-0.2,5.2l3.1,3.6l0.8-0.7L215.8,252.2L215.8,252.2z" /><path
       id="kyushu_1_"
       d="M231.5,220.3l-1.6,1.6l0.7,2.3l1.4,0.1l1,5l1.2,1.2l2-1.8l0.9-3.3l-2.5-3.6L231.5,220.3L231.5,220.3z" /><path
       id="shikoku_1_"
       d="M240.3,217l-2.8,2.6l-0.1,3l0.7,0.9l3.7-3.2l-0.3-3.2L240.3,217L240.3,217z" /><path
       id="honshu_1_"
       d="M236.5,210.9l-4.9,5.6l0.9,1.4l2.4,0.3l4.5-3.5l3.2-0.6l2.9,3.4l2.2-0.8l0.9-3.3l4.1-0.1l4-4.8l-2.1-8   l-1-4.2l2.1-1.7l-4.8-7.2l-1.2,0.1l-2.6,2.9v2.4l1.2,1.4l0.4,6.4l-3,3.7l-1.7-1.1l-1.3,3l-0.3,2.8l1,1.6l-0.7,1.2l-2.2-1.8H239   l-1.3,0.8L236.5,210.9L236.5,210.9z" /><path
       id="hokkaido_1_"
       d="M244.7,167.3l-1.5,1.4l0.8,2.9l1.3,1.4l-0.1,4.4l-1.7,0.7l-1.3,3l3.9,5.4l2.6-0.9l0.5-1.4l-2.8-2.5   l1.7-2.2l1.8,0.3l1.4,1.5l0.1-3.2l3.9-3.2l2.2-0.6l-1.8-3.1l-0.9-1.4l-1.4,1l-1.2,1.5l-2.7-0.6l-2.8-1.8L244.7,167.3L244.7,167.3z" /><path
       id="iturup_1_"
       d="M259.2,164.3l-2.7,3.8l0.2,1.8l1.3-0.6l3.2-3.9L259.2,164.3L259.2,164.3z" /><path
       id="urup_1_"
       d="M262.7,158.9l-1,2.6l0.1,1.7l1.6-1.1l1.5-3.1v-1.1L262.7,158.9L262.7,158.9z" /><path
       id="paramushir_1_"
       d="M268.3,135.9l-1.2,1.5l0.1,2.4l1.2-0.1l1.9-3.4L268.3,135.9L268.3,135.9z" /><path
       id="onekotan_1_"
       d="M266.1,141.8v4.2l1.3,0.5l1-1.5v-3.3L266.1,141.8L266.1,141.8z" /><path
       id="sakhalin_1_"
       d="M226.9,126.5l-0.1,6.2l7.7,11.9l2.8,10.4l4.9,9.2l1.9,0.7l1.6-1.4l0.8-2.2l-7-7.6l0.2-3.9l1.5-0.7   l0.4-2.3l-13.7-19.4L226.9,126.5L226.9,126.5z" /><path
       id="bering_island_1_"
       d="M280.9,107.3l-1.9,0.2l1.2,1.6l2.4,1.6l0.7-0.8L280.9,107.3L280.9,107.3z" /><path
       id="medny_1_"
       d="M284.6,108.5l0.3,1.6l3,0.9l0.3-1.2L284.6,108.5L284.6,108.5z" /><path
       id="attu_1_"
       d="M300.8,114.8l1.2,2.2l2.1-0.1l0.4-1.5L300.8,114.8L300.8,114.8z" /><path
       id="amchitka_1_"
       d="M321.8,118.3l1.7,3.1l1.2-1.4v-2.1L321.8,118.3L321.8,118.3z" /><path
       id="st._lawrence_island_1_"
       d="M309.6,42.3l-2.4,1.5l-0.6,2l1.1,1.3l2.5-0.8l2.5,0.8l1.4,0.4l-0.1-4.6L309.6,42.3L309.6,42.3   z" /><path
       id="novaya_zemlya_north_1_"
       d="M7.1,66.7l4.5-3.5l3.3-1.4h1.7v-4.7l-3.8-1.2l0,0l-0.5,2.4l-4,3.5" /><path
       id="komsomolets_1_"
       d="M63.3,22l-2.2-1.4h-2.6L58,22.2l-2.8,1.6l-2.1,0.7l-0.3,2.1l4.8,0.4L63.3,22L63.3,22z" /><path
       id="october_1_"
       d="M68.6,22.6l-1.2,2.6L65,25l-3.8,2.8l-1,3.5h2.4L64,29l3.3,2.4l3.1-1.4l2.2-1.9l-0.9-3L70.5,23L68.6,22.6   L68.6,22.6z" /><path
       id="bolshevik_1_"
       d="M73.6,24.5l1.2,4.9l1.9,4.5l2.1-3.6l4-0.9v-2.6l-2.6-1.9L73.6,24.5L73.6,24.5z" /><path
       id="kotelny_1_"
       d="M168.1,16.7l2.7,2.3l1.9-0.8l0.6-3.2l-4-2.7l-2.6,1.7l-6.3,0.6v2.8l-6.6,0.1v4.6l7.7,5.8l2-1.5l-0.5-4.1   l4.9-1.2l-1-1.9l-1.8-1.8L168.1,16.7L168.1,16.7z" /><path
       id="novaya_sibir_1_"
       d="M175.2,14l1.8,3.4l7-0.8l1.9-2.5l-0.5-2.1l-1.9-0.8l-1.8,1.4l-5.2,1.1L175.2,14L175.2,14z" /><path
       id="lyakhovsky_1_"
       d="M174.8,27.2l-3.5-0.9l-2,2.1l-0.9,2.9l4.7-0.5l3.6-1.8L174.8,27.2L174.8,27.2z" /><path
       id="wrangel_1_"
       d="M265,7.7l-2.9-0.9L258.7,8l-1.7,2.5l2.1,2.8l5.6-2.5l1.1-1.2L265,7.7L265,7.7z" /><path
       id="sri_lanka_1_"
       d="M108.8,311.9l0.2,2.7l0.2,2l-1.5,0.2l0.7,4.5l2.2,1.2l3.4-2l-1-4.7l0.2-1.7l-3.2-3L108.8,311.9   L108.8,311.9z" /><path
       id="irian_jaya_1_"
       d="M260.2,343.2l-4.2,0.5l-2.7,2l1.1,2.2l4.5,0.8v0.8l-2.9,2.3l1.4,4.9l1.4,0.1l1.2-4.8h2.2l0.9,4.7   l10.8,9l0.3,7l3.7,4l1.7-0.1l0.4-24.7l-6.3-4.4l-5.9,4l-2.1,1.3l-3.5-2.2l-0.1-7.1L260.2,343.2L260.2,343.2z" /><path
       id="russia_1_"
       d="M5.1,175.1l9,0.5l1.5,2.8l9.3,0.5l6.8-3.8l-3.5-3.8l0.8-7.1l17.6-8.6l13.5,6.1l4.5-4.1l13.3,12.7l10-1   l3.5,3.5l9.5,1l6.3-8.6l8,3.6l4.3,0.8l4.3-3.8l-3.5-2.9l3.3-5.1l9.3,3l2,4.1l4,0.2l2.5-1.8l6.8-0.2l0.8,1.8l7.8,0.5l5.3-5.6   l10.8,1.3l3.3-1.3l1-6.1l-3.3-7.3l3.3-2.8h10.3l9.8,11.6l12.6,7.1h3.8l0.5-3l4.5-2.8l0.5,16.5l-4,0.2v4.1l2.3,2.8l-0.4,3.6l1.7,0.7   l1-2.5l1.5,0.5l1,1l4.5-1l4.5-13.2l0.5-16.5l-5.8-13.2l-7.3-8.9l-3.5,0.5v2.8l-8.5-3.3l3.3-7.1l2.8-18.7l11.6-3.5l5.5-3.5h6l-1.5,2   l1.5,2.5l5.3-5.6l3,0.2l-0.5-3.3l-4.8-1l3.3-11.9l4.1-3.9l0,0l1.8,6.1l3.5,1l3.5-5.6l-2-3.8l0.8-3.3h5.3l-1.3,2.5l0.4,9.2   l-7.5,18.7l0.8,4.1l-0.2,6.8l14.1,20.5l2.8,0.8l0.2-16.7l2.8-2.5l-3-6.6l2.5-2.8l-5.5-7.3l-3,0.2l-1-12.2l7.8-2l0.5-3.6l4-1l2.3,2   l2.8-11.1l4.8-8.1l3.8-2l3.3,0.2v-3.8l-5.3-1l-7.3-6.1l3.5-4l-3-6.8l2.5-2.5l3,4l7.5,2.8l8.3,0.8l1-3.5l-4.3-4.3l4.8-6.6l-10.8-3.8   l-2.8,5.6l-3.5-4.6l-19.8-6.8l-19.2,3.2l-2.8,1.5v1.5l4,2l-0.5,4.8l-7.3-3L222.5,36l-2.8-5.8h-11.1l-5,5.3l-17.8-4l-16.3,3.3   l-2,5.1l2.5,0.8l-0.2,3.8L154,46.3l1,5.1l-14.6-2.5l3.5-6.6l-14.8-0.8l1.3,6.8l-4.8,2.3l-4-3.8l-16.3,2.7L99,55.3l-0.2,3.5l-4,0.2   l-0.5-4L107,43.9v-7.6L98.7,34l-10.8,3.5l-4.5-4.6h-2L78.9,38l2,2.3l-14.3,7.8l-12.3,9.5L46.8,68v4.3l8,3.3l-4,3l-8.5-3l-3.5,3   l-5.3-6.1l-1,2.3L38.3,93l1.5,0.5l4-2l2,1.5v3.3L42,94.8l-2.3,1.8l1.5,3.3l-1.3,8.6l-7.8,0.8l-0.5-2.8l4.5-2.8l1-7.6l-5-6.6   l-1.8-11.4l-8-1.3l-0.8,4.1l1.5,2l-3.3,2.8l1.3,7.6l4.8,2l1,5.6l-4.8-3L9.7,95.6" /><path
       id="china_1_"
       d="M98.7,174l-3.5,8.7l-4.8-0.2l-5,11l4.3,5.4L80.9,211l-4.5-0.8l-3,3.8l0.8,2.3l3.5,0.2l1.8,4.1l3.5,0.8   l10.8,13.9v7.1l5.3,3.3l5.8-1l7.3,4.3l8.8,2.5l4.3-0.5l4.8-0.5l10-6.6l3.3,0.5l1.2,3l2.8,0.8l3.8,5.6l-2.5,5.6l1.5,3.8l4.3,1.5   l0.8,4.6l5,0.5l0.8-2.3l7.3-3.8l4.5,0.2l5.3,5.8l3.5-1.5l2.3,0.2l1,2.8l1.8,0.2l2.5-3.5l10-3.8l9-10.9l3-10.4l-0.2-6.8l-3.8-0.8   l2.3-2.5l-0.5-4.1l-9.5-9.6v-4.8l2.8-3.5l2.8-1.3l0.2-2.8h-7l-1.3,3.8l-3.3-0.8l-4-4.3l2.5-6.6l3.5-3.8l3.3,0.2l-0.5,5.8l1.8,1.5   l4.3-4.3l1.5-0.2l-0.5-3.3l4-4.8l3,0.2l1.8-5.6l2.1-1.1l0.2-3.5l-2-2.1l-0.2-5.5l3.8-0.2l-0.2-14.1l-2.7,1.6l-1,3.6H210l-13.1-7.4   l-9.4-11.4l-9.6-0.1l-2.4,2.1l3.1,7.1l-1.1,6.7l-3.9,1.6l-2.2-0.2l-0.2,6.6l2.3,0.5l4-1.8l5.3,2.5v2.5L179,172l-3,6.6l-2.8,0.2   l-9.8,12.9l-10.3,4.6l-7,0.5l-4.8-3.3l-6.8,3.6l-7.3-2.3l-1.8-4.8l-12.3-0.8l-6.5-10.6h-2.8l-2.2-4.9L98.7,174z" /><path
       id="mongolia_1_"
       d="M102.1,174.1l5.8-7.7l7,3.2l4.8,1.3l5.8-5.3l-4-2.9l2.6-3.7l7.8,2.7l2.7,4.4l4.9,0.1l2.5-1.9l5.2-0.2   l1.1,1.9l8.7,0.4l5.5-5.6l7.6,0.8l-0.4,7.6l3.3,0.8l4.1-1.9l4.3,2.1l-0.1,1.1l-3.1,0.1l-3.3,6.9l-2.5,0.2l-9.9,12.9l-10.1,4.4   l-6.3,0.5l-5.2-3.4l-6.7,3.6l-6.6-2.1l-1.9-4.8l-12.5-0.9l-6.4-10.9l-3.1-0.2L102.1,174.1L102.1,174.1z" /><path
       id="north_korea_1_"
       d="M206.6,198.2l1.8,0.8l0.6,6.4l3.7,0.2l3.4-4l-1.2-1.1l0.1-4.3l3.2-3.8l-1.6-2.9l1-1.2l0.6-3l-1.8-0.8   l-1.6,0.8l-1.9,5.9l-3.1-0.3l-3.6,4.3L206.6,198.2L206.6,198.2z" /><path
       id="south_korea_1_"
       d="M216.6,202.1l6.2,5l1,4.9l-0.2,2.6l-3,3.4l-2.6,0.1l-3-6.4l-1.1-3l1.2-0.9l-0.3-1.3l-1.5-0.7   L216.6,202.1L216.6,202.1z" /><path
       id="kazakhstan_3_"
       d="M9.3,200.8l2.7,4.4l4,2.2l0.4,2.6l1.5-0.5l1.3-1.6l2.2,0.5l1.1,2.2h2.8v-2.9l-1.7-5.1l-0.8-4.1l5-2.2   l6.8,1.1l4.3,4.3l9.6-0.9l5.4,7.6l6.3,0.3l1.7-2.9l2.2-0.5l0.3-3.2l3.3-0.2l1.7,2.1l1.7-4.1l15,2.1l2.5-3.3l-4.3-5.2l5.7-12.4   l4.6,0.3l3.2-7.6l-6.3-0.6l-3.6-3.5l-10,1.2L65,158.5l-4.5,4l-13.8-6.2l-16.9,8.3l-0.5,5.9l4,4.6l-7.7,4.4l-10-0.2l-2.1-3.1   l-7.8-0.4" /><path
       id="kazakhstan_1_"
       d="M9.1,190.7l4.6-0.2l0.3,7h-2.7l-2,3.3" /><path
       id="turkmenistan_1_"
       d="M22.1,211.5l-0.6,2.6h-4.2v3.6l4.5,2.9l-1.4,4v1.9l1.8,0.3l2.5-3.2l5.5-1.2l11.8,4.5l0.2,3.2l6.6,0.6   l7.4-7.8l-0.9-2.5l-4.9-1.1l-13.8-9l-0.6-3.2h-5.2l-2.3,4.3h-2.3L22.1,211.5L22.1,211.5z" /><path
       id="uzbekistan_1_"
       d="M57.2,223l3.1,0.2v-5.3l-2.9-1.7l4.9-6.2h2l2,2.3l5.2-2l-7.2-2.5l-0.3-1.5l-1.7,0.4l-1.7,2.9l-7.3-0.2   l-5.3-7.6l-9.4,0.9l-4.5-4.4l-6.2-1.1l-4.5,1.8l2.6,8.7v2.9h1.9l2.3-4.4l6.2,0.1l0.9,3.4l13.3,8.8l5.1,1.2L57.2,223L57.2,223z" /><path
       id="tajikistan_1_"
       d="M58.5,215.7l4.1-5.1h1.5l0.5,1.1l-1.9,1.4v1.1l1.2,0.9l6,0.4l2-0.8l0.9,0.2l0.6,1.9l3.6,0.4l1.8,3.8   l-0.5,1.1l-0.7,0.1l-0.7-1.4l-1.5-0.1l-2.7,0.4l-0.2,2.5l-2.7-0.2l0.1-3.2l-2-1.9l-3,2.5l0.1,1.6l-2.6,0.9h-1.5l0.1-5.6L58.5,215.7   L58.5,215.7z" /><path
       id="kirgizstan_1_"
       d="M65.1,203.1l-0.3,2.5l0.2,1.6l8.7,2.9l-7.6,3.1l-0.9-0.7l-1.7,1.1l0.1,0.6l0.9,0.4l5.4,0.1l2.7-0.8   l3.5-4.4l4.4,0.8l5.3-7.3l-14.1-1.9l-2,4.7l-2.5-2.6L65.1,203.1L65.1,203.1z" /><path
       id="afghanistan_1_"
       d="M42.4,231l1.6,12.5l4,0.9l0.4,2.2l-2.8,2.4l5.3,4.3l10.3-3.7l0.8-4.4l6.5-4l2.5-9.4l1.8-2l-1.9-3.3   l6.3-3.9l-0.8-1.1l-2.9,0.2l-0.3,2.7h-3.9l-0.1-3.6l-1.2-1.5l-2.1,1.9L66,223l-3.2,1.2l-5.8-0.4l-7.6,8L42.4,231L42.4,231z" /><path
       id="pakistan_1_"
       d="M51.4,253.7l2.6,3.9l-0.2,2l-3.5,1.4l-0.2,3.2h4l1.4-1.1H63l6.8,6l0.9-2.9h5.1l0.1-3.6l-5.2-5l1.1-2.7   l5.3-0.4l7.2-14.9l-4-3.1l-1.5-5.2l9.6-0.9l-5.7-8.1l-3-0.8l-1.2,1.5l-0.9,0.1l-5.7,3.6l1.9,3.1l-2.1,2.2l-2.6,9.6l-6.4,4.1   l-0.9,4.5L51.4,253.7L51.4,253.7z" /><path
       id="india_1_"
       d="M99.3,316.9l4.6-2.2l2.7-9.8l-0.1-12.1l15.6-16.8v-4l3.2-1.2l-0.1-4.6l-3.5-6.7l2-3.6l4.3,4l5.6,0.3v2.2   l-1.7,1.9l0.4,1l3,0.1l0.6,3.4h0.9l2.2-4l1.1-10.5l3.7-2.6l0.1-3.6l-1.5-2.9l-2.3-0.1l-9.2,6.1l0.6,3.9H125l-2.3-2.8l-1.2,0.2   l0.4,3.9l-14-1l-8.7-3.9l-0.5-4.8l-5.8-3.6l-0.1-7.4l-4-4.5l-9.1,0.9l1,4l4.5,3.6l-7.7,15.8l-5.2,0.4l-0.8,1.9l5.1,4.7l-0.2,4.8   l-5.2-0.1l-0.6,2.4l4.3-0.2l0.1,1.9l-3.1,1.6l2,3.7l3.8,1.2l2.3-1.7l1.1-3.1l1.4-0.6l1.6,1.6l-0.5,4l-1.1,1.9l0.2,3.2L99.3,316.9   L99.3,316.9z" /><path
       id="nepal_1_"
       d="M99.5,246.5l0.5,4.3l8.1,3.7l13,1l-0.5-3.1l-8.7-2.4l-7.3-4.4L99.5,246.5L99.5,246.5z" /><path
       id="bhutan_1_"
       d="M123.7,252l1.5,2.1h5.2l-0.5-2.9L123.7,252L123.7,252z" /><path
       id="bangladesh_1_"
       d="M123.9,257l-1.3,2.4l3.4,6.5l0.1,5l0.6,1.4l4,0.1l2.3-2.2l1.6,1l0.3,3.1l1.3-0.8l0.1-3.9l-1.1-0.1   l-0.7-3.3l-2.8-0.1l-0.7-1.9l1.7-2.3v-1.1h-4.9L123.9,257L123.9,257z" /><path
       id="burma_1_"
       d="M157.7,307.5l-2.8-4.4l2-2.8l-1.9-3.5l-1.8-0.3l-0.3-5.9l-2.7-5.2l-0.8,1.2l-1.8,3l-2.2,0.3l-1.1-1.5l-0.6-4   l-1.7-3.2l-6.8-6.5l1.7-1.1l0.3-4.7l2.5-4.2l1.1-10.4l3.6-2.5l0.1-3.8l2.2,0.7l3.4,4.9l-2.5,5.4l1.7,4.3l4.2,1.7l0.8,4.6l5.7,0.9   l-1.6,2.7l-7.2,2.8l-0.8,4.6l5.3,6.8l0.2,3.6l-1.2,1.2l0.1,1.1l3.9,5.8l0.1,6L157.7,307.5L157.7,307.5z" /><path
       id="thailand_1_"
       d="M158.3,274.4l3.2,4.2v5.1l1.1,0.6l5.2-2.5l1,0.3l6.2,7.1l-0.2,4.9l-2-0.3l-1.8-1.1l-1.3,0.1l-2.3,3.9   l0.5,2.1l1.9,1l-0.1,2.4l-1.3,0.7l-4.6-3.2v-2.8l-1.9-0.1l-0.8,1.2l-0.4,12.6l3,5.4l5.3,5.1l-0.2,1.5l-2.8-0.1l-2.6-3.8h-2.7   l-3.4-2.7l-1-2.8l1.5-2.4l0.5-2.1l1.6-2.8l-0.1-6.4l-3.9-5.6l-0.2-0.7l1.2-1.3l-0.3-4.4l-5.1-6.5l0.6-3.8L158.3,274.4L158.3,274.4z   " /><path
       id="malaysia_1_"
       d="M161,319.4l2,4.5l0.5,5.9l2.7,4.2l6.5,3.9l2.5,0.2l-0.5-4.1l-2.1-5.2l-3.1-6.6l-0.3,1.2l-3.8-0.2   l-2.7-3.9L161,319.4L161,319.4z" /><path
       id="cambodia_1_"
       d="M168.8,303.4l4.1,4.4l7.6-5.6l0.7-8.9l-3.9,2.7l-2-1.1l-2.8-0.4l-1.5-1.1h-0.8l-2,3.3l0.3,1.5l2.1,1.1   l-0.2,3.1L168.8,303.4L168.8,303.4z" /><path
       id="laos_1_"
       d="M163.8,266.8l-2.4,1.2l-2,5.9l3.4,4.3l-0.6,4.7l0.6,0.2l5.6-2.7l7.5,8.4l-0.2,5.3l1.6,0.9l4-3.3l-0.3-2.6   l-11.6-11l0.1-1.7l1.5-1l-1-2.8l-4.8-0.8L163.8,266.8L163.8,266.8z" /><path
       id="vietnam_1_"
       d="M173.4,308.4l1.2,1.9l0.2,2.1l3.1,0.3l3.8-5.1l3.6-1l1.9-5.2l-0.9-8.3l-3.7-5.1l-3.9-3.1l-5-8.5l3.5-5.9   l-5.1-5.8l-4.1-0.2l-3.7,2l1.1,4.7l4.9,0.9l1.3,3.6l-1.7,1.1l0.1,0.9l11.5,11.2l0.5,3.3l-0.7,10.4L173.4,308.4L173.4,308.4z" /><path
       id="azerbaijan_1_"
       d="M8.9,216.8l2.9,0.5l-0.1-1.4l-4.8-4.2" /><path
       id="iran_1_"
       d="M7.4,242l5.6,7.8l3.2,0.2l2.5,1.8l0.1,3.5l9.7,5.7h3.6l2.2-1.9l2.8-0.1l1.6,3.8l10.5,1.5l0.3-3.9l3.5-1.3   l0.2-1.4l-2.8-3.8l-6.2-5l3.2-2.9l-0.2-1.3l-4.1-0.6l-1.7-13.7l-0.2-3.1l-11-4.2l-4.9,1.1l-2.7,3.4l-2.4-0.2l-0.7,0.6l-5.4-0.4   l-6.8-5" /><path
       id="kuwait_1_"
       d="M8,254.6l3.6,1.4v-4.9l0,0l-2.2-1.2" /><path
       id="iraq_1_"
       d="M9.1,248.8l2.9,1.6l0.4-0.4l-5.6-7.4" /></g>
	<g
     id="ap-northeast-2"
     cx="217.96292"
     cy="208.45763"></g>
	<g
     id="ap-south-1"
     cx="84.001587"
     cy="282.60327"></g>
	<g
     id="ap-southeast-2"
     cx="278.56198"
     cy="477.16367" ></g>
	<g
     id="ap-southeast-1"
     cx="172.04449"
     cy="334.85168"></g>
	<g
     id="ap-northeast-1"
     cx="251.13878"
     cy="210.72563"></g></svg>