<?xml version="1.0" encoding="UTF-8" standalone="no"?>
<!-- Generator: Adobe Illustrator 20.0.0, SVG Export Plug-In . SVG Version: 6.00 Build 0)  -->

<svg
   xmlns:dc="http://purl.org/dc/elements/1.1/"
   xmlns:cc="http://creativecommons.org/ns#"
   xmlns:rdf="http://www.w3.org/1999/02/22-rdf-syntax-ns#"
   xmlns:svg="http://www.w3.org/2000/svg"
   xmlns="http://www.w3.org/2000/svg"
   xmlns:sodipodi="http://sodipodi.sourceforge.net/DTD/sodipodi-0.dtd"
   xmlns:inkscape="http://www.inkscape.org/namespaces/inkscape"
   version="1.1"
   id="Layer_1"
   x="0px"
   y="0px"
   viewBox="0 0 331 485"
   style="enable-background:new 0 0 331 485;"
   xml:space="preserve"
   inkscape:version="0.91 r"
   sodipodi:docname="europe-middle-east-africa.svg"><metadata
     id="metadata155"><rdf:RDF><cc:Work
         rdf:about=""><dc:format>image/svg+xml</dc:format><dc:type
           rdf:resource="http://purl.org/dc/dcmitype/StillImage" /></cc:Work></rdf:RDF></metadata><defs
     id="defs153" /><sodipodi:namedview
     pagecolor="#ffffff"
     bordercolor="#666666"
     borderopacity="1"
     objecttolerance="10"
     gridtolerance="10"
     guidetolerance="10"
     inkscape:pageopacity="0"
     inkscape:pageshadow="2"
     inkscape:window-width="1920"
     inkscape:window-height="1028"
     id="namedview151"
     showgrid="false"
     inkscape:zoom="1.9463917"
     inkscape:cx="178.69714"
     inkscape:cy="215.33725"
     inkscape:window-x="0"
     inkscape:window-y="0"
     inkscape:window-maximized="1"
     inkscape:current-layer="Layer_1" /><style
     type="text/css"
     id="style3">
	.st0{opacity:0.2;}
</style><g
     class="st0"
     id="g5"
     transform="translate(1.5413133,1.0275485)"
     style="opacity:0.2;fill:#000000"><path
       id="estonia_3_"
       d="m 184.4,115.2 -6.7,-0.2 -4.2,2.6 0,1.9 2.7,2.6 8.6,1.4 -0.4,-8.3 0,0 z"
       inkscape:connector-curvature="0"
       style="fill:#000000" /><path
       id="algeria_1_"
       d="m 131.9,215.3 -4.9,-1.7 -20.3,3.8 -4.4,3.3 2.7,14 -8.1,0.4 -4.9,7.8 -11.6,2.7 0,5.7 38.1,29.1 6.5,0.6 21.6,-16.8 -2.2,-2.7 -4.1,-0.6 -2.4,-4.1 0,-17.1 -1.7,-1.7 0.2,-4.3 -4.3,-4.3 -0.6,-4.7 1.9,-1.3 -0.8,-4.9 -0.7,-3.2 0,0 z"
       inkscape:connector-curvature="0"
       style="fill:#000000" /><path
       id="morocco_1_"
       d="m 101.4,221.1 -13.8,0 -2.7,6 -6.2,3 -5.1,13.9 -10,6 -14.2,23 13.7,-0.2 0.6,-6.8 3.5,0 0,-9.3 12.3,0 0.2,-11.9 11.6,-2.7 4.9,-7.9 7.5,-0.2 -2.3,-12.9 0,0 z"
       inkscape:connector-curvature="0"
       style="fill:#000000" /><path
       id="mauretania_1_"
       d="m 49.5,274.1 2.6,3.5 -0.6,14.7 3.8,-2.7 2.7,-0.6 3.8,1.3 4.3,6 4.1,-2.7 19.7,-0.2 -4.9,-33 5.3,0 -9.8,-7.4 0,4.9 -12.2,0 0,9.3 -3.6,0 -0.5,6.8 -14.7,0.1 0,0 z"
       inkscape:connector-curvature="0"
       style="fill:#000000" /><path
       id="senegal_1_"
       d="m 55.7,290.4 -4.7,3.5 -1.1,1.9 -0.4,1.9 1.8,1.2 5.7,-0.1 3.7,-1 0.5,1.8 -0.4,2.4 3.6,1.8 0.7,0.8 4.7,0.1 0.1,-2 -4.3,-5.1 -4.8,-6.5 -3,-1.2 -2.1,0.5 0,0 z"
       inkscape:connector-curvature="0"
       style="fill:#000000" /><path
       id="gambia_1_"
       d="m 51.9,299.9 -0.1,1.3 8.2,-0.1 0.5,-1.2 -0.1,-1.2 -2.4,1 -6.1,0.2 0,0 z"
       inkscape:connector-curvature="0"
       style="fill:#000000" /><path
       id="casamance_1_"
       d="m 51.8,302.2 1.4,3.6 0.8,-2.3 10,1.1 -4.3,-2.3 -7.9,-0.1 0,0 z"
       inkscape:connector-curvature="0"
       style="fill:#000000" /><path
       id="bissau_1_"
       d="m 53.9,307.3 1.7,3.3 4.7,-4.1 0,-1.2 -5.5,-0.8 -0.9,2.8 0,0 z"
       inkscape:connector-curvature="0"
       style="fill:#000000" /><path
       id="guinee_1_"
       d="m 56.1,311.4 3.6,5.6 4.8,-4.1 4.9,-0.2 4.1,5.4 3.5,2.3 1.3,-2.5 1.2,-0.6 -0.1,-5.5 -2.3,-6.6 -7,0.7 -8.6,-0.7 0,2.3 -5.4,3.9 0,0 z"
       inkscape:connector-curvature="0"
       style="fill:#000000" /><path
       id="sierra_leone_1_"
       d="m 60.3,317.6 6.7,6.6 4.8,-5.9 -3,-4.8 -4.2,0.5 -4.3,3.6 0,0 z"
       inkscape:connector-curvature="0"
       style="fill:#000000" /><path
       id="liberia_1_"
       d="m 67.8,324.9 13.1,8.7 -0.4,-6.7 -3.9,-4.7 -3.8,-3.5 -5,6.2 0,0 z"
       inkscape:connector-curvature="0"
       style="fill:#000000" /><path
       id="ivoire_1_"
       d="m 82,334 5.1,-3.6 6.3,-1.1 6.5,1.4 -3.3,-5 -1,-3.1 1,-9.1 -5.9,0.2 -2.6,-2.5 -5.5,0.1 -2.6,0.5 0.2,6.1 -1.4,0.6 -1.7,3.1 4.3,5 0.6,7.4 0,0 z"
       inkscape:connector-curvature="0"
       style="fill:#000000" /><path
       id="mali_1_"
       d="m 66.9,296.9 3.7,-2.5 20.4,-0.1 -4.8,-32.9 5.4,-0.1 26.2,19.9 3.5,0.5 -1.3,11.1 -16.5,1.4 -12.7,9.4 -2.3,6.5 -8.8,0.4 -2.3,-6.5 -6.7,0.5 0.2,-2.2 -4,-5.4 0,0 z"
       inkscape:connector-curvature="0"
       style="fill:#000000" /><path
       id="burkina_1_"
       d="m 104.1,295.1 4.3,-0.4 7.2,10 -6.6,5 -4.8,-1.2 -6.5,0.1 -1.1,3.8 -5.4,0.2 -1.4,-2 1.9,-6.1 12.4,-9.4 0,0 z"
       inkscape:connector-curvature="0"
       style="fill:#000000" /><path
       id="niger_1_"
       d="m 116.4,304.3 3,-0.1 2.7,-4.2 4.7,-0.8 4.9,3 10.5,0.2 8.1,-3.3 3,-2.6 0.2,-3.5 5.6,-5.7 1.4,-12.5 -3.7,-7.8 -9.6,-2.3 -22,17.2 -3.1,-0.2 -1.3,11.9 -11.2,1.1 6.8,9.6 0,0 z"
       inkscape:connector-curvature="0"
       style="fill:#000000" /><path
       id="ghana_1_"
       d="m 96.6,322.2 1.3,3.1 3.5,5.5 1.9,-0.1 5.3,-3 -0.4,-17.1 -4.1,-1.2 -5.7,0.1 -1.8,12.7 0,0 z"
       inkscape:connector-curvature="0"
       style="fill:#000000" /><path
       id="togo_1_"
       d="m 109.6,327.3 3.2,-1.9 -0.1,-12.4 -2,-3.3 -1.3,1.1 0.2,16.5 0,0 z"
       inkscape:connector-curvature="0"
       style="fill:#000000" /><path
       id="benin_1_"
       d="m 113.8,325.2 2.5,0 0.1,-7.2 3.2,-4.7 -0.1,-8.1 -2.9,-0.1 -5,3.9 2,3.9 0.2,12.3 0,0 z"
       inkscape:connector-curvature="0"
       style="fill:#000000" /><path
       id="nigeria_1_"
       d="m 117.2,325.1 4.7,0.2 5.6,6.3 2.7,0.7 2.2,-1.1 3.2,-0.5 1.1,-4.5 4.4,-3 4.8,-0.2 8.8,-16.2 -0.1,-3.7 -4.1,-3.1 -8.1,3.6 -10.9,-0.1 -5.3,-3.3 -3.7,0.8 -1.9,3.3 -0.1,9.6 -3.1,4.4 -0.2,6.8 0,0 z"
       inkscape:connector-curvature="0"
       style="fill:#000000" /><path
       id="tunisia_1_"
       d="m 133.1,215.1 6.6,-2.6 2.2,1.4 0.1,1.7 -1.1,1.3 0.1,2.4 1.1,0.6 0,4.2 -1.2,1.9 0.1,1.3 4.4,1.6 -3.6,5.5 -1.4,-0.1 -0.2,4.4 -1.6,0.2 -1.3,-1.2 0.4,-4.5 -4.3,-4.2 -0.6,-3.7 2.2,-1.7 -1.9,-8.5 0,0 z"
       inkscape:connector-curvature="0"
       style="fill:#000000" /><path
       id="libya_1_"
       d="m 139.2,239.8 1.9,-0.4 0.6,-4.3 1,0 3.8,-6.2 9.4,2.7 2.5,3.9 9.2,4.2 4.8,-2 -0.5,-2 -2.2,-2 0.2,-1.4 3.5,-2.9 6.8,0 2.6,3.5 5.4,0.8 0.7,44.1 -4.1,-0.1 -24.2,-12.7 -2.6,1.4 -10,-2.5 -2.7,-3.6 -3.9,-0.6 -2,-3.6 0,-16.3 -0.2,0 z"
       inkscape:connector-curvature="0"
       style="fill:#000000" /><path
       id="egypt_1_"
       d="m 189.3,234 3.2,0.1 6.2,1.7 3,0.1 3.7,-3.1 1.7,0 3.1,1.7 3.9,0 0.7,0 2.5,7.2 0.7,2.3 0.6,3.5 -1.2,0.8 -2,-1.1 -2.4,-7.6 -2.2,-0.1 -0.1,2.6 1.4,4.4 11.2,13.9 0.2,6 -3.2,3.7 -30.6,-0.4 -0.4,-35.7 0,0 z"
       inkscape:connector-curvature="0"
       style="fill:#000000" /><path
       id="chad_1_"
       d="m 154.5,297.2 0.1,-3.6 5.6,-5.5 1.6,-13.5 -3.8,-7.2 2.6,-1.3 25.6,13.3 -0.1,13 -4.5,3.8 0,6.7 3,5.7 -5.3,0 -8.6,8.5 -0.2,2.6 -6.3,-0.1 -0.1,1.2 -3.6,-0.5 -2.5,-4.7 -1.9,-1 0.2,-1.4 2.4,-1.8 0,-8.4 -3.2,-0.5 -3.9,-2.9 2.9,-2.4 0,0 0,0 z"
       inkscape:connector-curvature="0"
       style="fill:#000000" /><path
       id="sudan_1_"
       d="m 187.2,292.9 0.2,-14.1 3,0.1 -0.4,-7.9 30.8,0.2 4.4,-4.4 9.6,15.2 -5.3,6.1 0,9.4 -8.2,17.7 -2.9,1.2 1,4.9 3.5,0 4.8,6.9 -3.8,0.5 -1,1.8 -0.1,2.5 -11.5,-0.2 -1.2,-1.8 -8,-0.5 -14.7,-15.2 1.4,-0.8 0.4,-3.6 -3.6,-2 -3.2,-6.3 0.2,-5.9 4.6,-3.8 0,0 z"
       inkscape:connector-curvature="0"
       style="fill:#000000" /><path
       id="cameroon_1_"
       d="m 136.6,331 3.8,3.6 -0.2,5.5 21.1,-0.5 1.7,-1.9 -6.1,-6.6 -1,-2.4 3.8,-7.2 -2.6,-4.8 -2.2,-1.2 0,-2.4 2.5,-1.7 0.1,-7.5 -2,-0.2 0,3.9 -8.8,16.6 -5.4,0.2 -3.7,2.5 -1,4.1 0,0 z"
       inkscape:connector-curvature="0"
       style="fill:#000000" /><path
       id="eritrea_1_"
       d="m 230.8,295.6 -0.2,-7 4.8,-5.5 1.3,1 2.4,7.8 11.2,8.4 -2,2.5 -8.1,-7 -9.4,0 0,-0.2 z"
       inkscape:connector-curvature="0"
       style="fill:#000000" /><path
       id="djibouti_1_"
       d="m 248.5,303.7 -0.7,4.1 4.8,-0.1 0.1,-5.9 -1.8,-1.1 -2.4,3 0,0 z"
       inkscape:connector-curvature="0"
       style="fill:#000000" /><path
       id="ethiopia_1_"
       d="m 222.2,316 8.7,-19.4 8.6,0 7.6,6.7 -0.6,5.5 6,0 0.6,3.3 9.6,5.7 6,0.2 -11.2,12.1 -15.5,4.9 -3.8,0 -6.8,-5.9 -2.7,-1.2 -5.3,-7.8 -3.5,0 -0.4,-3.6 2.7,-0.5 0,0 z"
       inkscape:connector-curvature="0"
       style="fill:#000000" /><path
       id="somaliland_1_"
       d="m 253.5,307.9 4.9,3.3 1.4,-0.1 12.1,-4.2 1.4,4.4 -1,3.7 -2.6,2 -6.6,-0.5 -9.3,-5.7 -0.3,-2.9 0,0 z"
       inkscape:connector-curvature="0"
       style="fill:#000000" /><path
       id="soqotra_1_"
       d="m 282.1,301.5 2.5,2.9 3.5,-2 1.2,-0.5 -1.6,-1.6 -3,1 -2.6,0.2 0,0 z"
       inkscape:connector-curvature="0"
       style="fill:#000000" /><path
       id="somalia_1_"
       d="m 273,306.7 5.3,-2 1.8,1.1 -0.2,4.7 -4.8,13.7 -26,28 -3,-2 -0.2,-11.8 3.9,-4.5 8.4,-2.5 12.2,-12.9 3.2,-2.9 1,-4.2 -1.6,-4.7 0,0 z"
       inkscape:connector-curvature="0"
       style="fill:#000000" /><path
       id="centrafrique_1_"
       d="m 158,330.6 5.6,6 2.2,-2.9 3.5,0.1 0.7,-2.7 3.5,-2.2 7.2,4.9 4.2,-4.1 16,0.7 -14.9,-15.2 2,-1.2 0.2,-2.7 -3.3,-1.6 -4.9,0 -8,7.9 -0.2,3.2 -6.3,-0.2 -0.2,1.4 -4.2,-0.5 -3.7,7 0.6,2.1 0,0 z"
       inkscape:connector-curvature="0"
       style="fill:#000000" /><path
       id="sao_tome_1_"
       d="m 128.1,346.3 1.3,-0.7 1.1,0.8 -1.1,1.6 -1.2,-0.5 -0.1,-1.2 0,0 z"
       inkscape:connector-curvature="0"
       style="fill:#000000" /><path
       id="principe_1_"
       d="m 130.9,342 2,-0.4 0.7,1.3 -1.1,1.1 -1.1,-0.1 -0.5,-1.9 0,0 z"
       inkscape:connector-curvature="0"
       style="fill:#000000" /><path
       id="bioko_1_"
       d="m 135.4,334.7 -0.6,2.4 1.7,1 1.6,-1.2 -0.6,-2.4 -2.1,0.2 0,0 z"
       inkscape:connector-curvature="0"
       style="fill:#000000" /><path
       id="gabon_1_"
       d="m 146.9,340.9 -0.1,3 -6.7,-0.1 -4.2,8 9.7,10.6 2.4,-2 -0.1,-2 -1.7,-0.7 0,-1.4 3.7,-2.4 3.3,2.5 3.6,0.1 -0.1,-12.5 -5.7,-0.2 -0.1,-2.6 -4,-0.3 0,0 z"
       inkscape:connector-curvature="0"
       style="fill:#000000" /><path
       id="equatorial_guinea_1_"
       d="m 140.4,341 -0.1,1.7 5.4,0.2 -0.1,-1.9 -5.2,0 0,0 z"
       inkscape:connector-curvature="0"
       style="fill:#000000" /><path
       id="congo_1_"
       d="m 152.4,340.8 -0.1,1.8 5.7,0.1 0.2,14.8 -5.3,-0.1 -3,-2.4 -2.4,1.3 -0.1,0.6 1.2,0.6 0.4,3 -3.2,2.7 0.7,1.4 3.6,-2.7 1.7,0 0.6,1.7 2.3,1 7.3,-6.2 -0.1,-4.5 1.6,-3.7 4.7,-3.5 1.2,-11.7 -3.3,0 -3.8,5.3 -9.9,0.5 0,0 z"
       inkscape:connector-curvature="0"
       style="fill:#000000" /><path
       id="cabinda_1_"
       d="m 147,365.5 2,2.7 2.6,-2.5 -0.8,-2.6 -0.7,0 -3.1,2.4 0,0 z"
       inkscape:connector-curvature="0"
       style="fill:#000000" /><path
       id="drc_1_"
       d="m 150.5,368.5 12.3,-0.2 2.5,3.6 -0.1,2.6 1,0.8 6.1,0 1.8,-3.5 2.5,0 1.1,1.1 3.5,-0.1 1,12.1 6,0.2 0,1 15.9,7.2 0.7,1.4 3.3,0 -0.4,-5 -6,-2.9 0.4,-3.8 2.6,-6.1 6,-0.2 -5.1,-16.8 0.1,-7.2 8,-12.5 0.1,-1.8 -1.2,-0.6 0,-3.5 -1.4,-0.1 -1.4,-1.9 -24.2,-1.1 -4.4,4.3 -7.3,-4.8 -2.5,1.6 -1.9,15.6 -4.7,3.6 -1.4,3.1 0.2,4.7 -8.6,6.7 -2.3,-1 0.2,1.3 -2.4,2.2 0,0 z"
       inkscape:connector-curvature="0"
       style="fill:#000000" /><path
       id="rwanda_1_"
       d="m 208.3,349.6 3.3,3.1 -0.1,3.3 -5.3,0.1 0,-3.7 2.1,-2.8 0,0 z"
       inkscape:connector-curvature="0"
       style="fill:#000000" /><path
       id="burundi_1_"
       d="m 206.4,357.1 5.1,-0.1 -1.3,4.4 -1.3,1.1 -1.6,0 -1.1,-3 0.2,-2.4 0,0 z"
       inkscape:connector-curvature="0"
       style="fill:#000000" /><path
       id="uganda_1_"
       d="m 208.9,348.6 3.6,3.3 2.3,-1.4 6.1,-1 1.1,0.1 0.4,-2.4 3.5,-7.3 -2.9,-6.1 -9.4,0 0,2.5 1.3,1.2 -0.2,2.5 -5.8,8.6 0,0 z"
       inkscape:connector-curvature="0"
       style="fill:#000000" /><path
       id="kenya_1_"
       d="m 223.8,333.6 3.2,6.2 -3.8,8 -0.5,2.4 19,11.8 5.9,-9.3 -3,-2.4 0,-12.2 3.7,-4.1 -6,2 -4.5,0 -7,-6 -2.3,-1 -4.2,0.4 -0.7,1.2 0.2,3 0,0 z"
       inkscape:connector-curvature="0"
       style="fill:#000000" /><path
       id="tanzania_1_"
       d="m 223.6,387.2 20.9,-2.5 -4.7,-9.1 -0.2,-8.7 1.6,-4.2 -19.8,-12.4 -6.2,1.1 -2.2,1.6 -0.2,3.6 -1.4,5 -1.4,1.8 -2.2,0.2 3.9,13.9 6.6,3.1 4.5,0.1 0.8,6.5 0,0 z"
       inkscape:connector-curvature="0"
       style="fill:#000000" /><path
       id="zambia_1_"
       d="m 180.4,403.1 3.8,5.3 5.9,0.4 2,1.2 6.1,0.1 5.3,-7.4 14.8,-6.6 1.3,-5.9 -1.7,-8.4 -7.8,-4.4 -5.1,0.4 -2.6,5.7 0.1,2.6 6.1,3 0.4,6.5 -5.3,0.2 -1.3,-2.2 -14.5,-6.2 -0.5,4.8 -6.8,0.2 -0.2,10.7 0,0 z"
       inkscape:connector-curvature="0"
       style="fill:#000000" /><path
       id="angola_1_"
       d="m 149.5,369.7 4.1,15.2 -0.1,4.8 -6,6.5 -1,10.4 22.9,0.2 7.4,2.7 6.2,-0.8 -3.6,-4.5 0,-12.8 7,-0.2 0,-5 -5.7,-0.2 -1.2,-11.8 -2.4,0 -1.3,-1.2 -1.4,0.1 -1.9,3.7 -7,0 -1.7,-1.7 0.5,-2.4 -2,-2.9 -12.8,0 0,-0.1 z"
       inkscape:connector-curvature="0"
       style="fill:#000000" /><path
       id="malawi_1_"
       d="m 219.5,396.8 3.7,3.8 -0.1,5 0.7,2.2 4.9,-5.4 -0.6,-6.8 -2.6,-2 -2.4,-11.9 -4.1,-0.1 1.8,8.6 -1.3,6.6 0,0 z"
       inkscape:connector-curvature="0"
       style="fill:#000000" /><path
       id="mozambique_1_"
       d="m 212.3,437.3 3.2,2.6 7.5,-4.7 1.2,-6.8 0,-11.3 12.2,-9.9 2,0.1 7.4,-7 -1.2,-14.6 -19.5,2.5 0.6,4.4 3.3,2.6 0.8,7.9 -6.6,6.5 -1.6,-3.6 0.2,-4.8 -3.8,-4.1 -9.3,4.3 8.6,4.4 0.2,12.8 -5.7,8.5 0.5,10.2 0,0 z"
       inkscape:connector-curvature="0"
       style="fill:#000000" /><path
       id="zimbabwe_1_"
       d="m 192.6,412.2 10.8,12.1 8.2,2.2 5.5,-8.6 -0.5,-11.5 -9,-4.7 -3.3,1.6 -5,7.6 -6.9,-0.1 0.2,1.4 0,0 z"
       inkscape:connector-curvature="0"
       style="fill:#000000" /><path
       id="namibia_1_"
       d="m 158.9,447.7 4.1,0.2 2.4,2.4 5.6,0.1 1.3,-15.9 0,-10.4 3.6,-0.7 1.3,-10.9 9.1,-0.2 3.2,-2.6 -5.4,-0.2 -7.4,1 -7.9,-2.9 -22.3,0 0.6,6.3 7.4,11 -1.3,5.6 0.1,3 5.6,14.2 0,0 z"
       inkscape:connector-curvature="0"
       style="fill:#000000" /><path
       id="botswana_1_"
       d="m 173.3,434.8 2.5,0.8 -0.4,7.3 2.6,0.4 6.1,-5.5 7.3,0.8 1.9,-4.9 9.2,-8.4 -11.1,-12.8 -0.1,-2.2 -1.2,-0.4 -3.3,3.1 -8.7,0.2 -1.2,10.9 -3.5,0.8 -0.1,9.9 0,0 z"
       inkscape:connector-curvature="0"
       style="fill:#000000" /><path
       id="swaziland_1_"
       d="m 212,438.1 -3,0.5 -1.3,3.6 2.3,2.2 2.7,0 2.4,-3.3 -3.1,-3 0,0 z"
       inkscape:connector-curvature="0"
       style="fill:#000000" /><path
       id="lesotho_1_"
       d="m 195.8,451.7 3.6,-2.9 1.7,0.1 2,2.6 -0.2,2.6 -3.5,1.3 0,1 -3.8,-0.2 -1,-2.9 1.2,-1.6 0,0 z"
       inkscape:connector-curvature="0"
       style="fill:#000000" /><path
       id="south_africa_1_"
       d="m 204,425.7 -9.4,8.7 -2.3,5.4 -7.5,-1 -6.2,5.5 -4.2,-0.4 0.4,-7.6 -1.4,-0.5 -1.1,15.6 -7.3,-0.1 -2.3,-2.6 -3.2,0 3,8.5 5.3,5 -3.7,4.4 2.4,5.5 5.6,2.2 4.5,-3.8 12.9,0.1 1,-1.2 5.7,-1 19.4,-19.2 -0.1,-6.1 -2,2.6 -3.1,0 -3.8,-3.1 1.9,-4.8 3.3,-0.7 -0.2,-9.8 -7.6,-1.6 0,0 z m -4.6,22.1 1.8,-0.1 3,3.2 -0.1,3.7 -3.5,1.8 -0.2,1.2 -5.3,0 -1.7,-3.9 1.4,-2.9 4.6,-3 0,0 z"
       inkscape:connector-curvature="0"
       style="fill:#000000" /><path
       id="mauritius_1_"
       d="m 298.1,420.2 -1.8,2.4 0.4,2.5 3.8,-3.1 -2.4,-1.8 0,0 z"
       inkscape:connector-curvature="0"
       style="fill:#000000" /><path
       id="reunion_1_"
       d="m 291.4,424.3 -2.7,0.1 -0.2,2.4 1.8,0.4 2.7,-1.3 -1.6,-1.6 0,0 z"
       inkscape:connector-curvature="0"
       style="fill:#000000" /><path
       id="madagascar_1_"
       d="m 273.4,389 -2.5,6.1 -4.4,7.6 -7.6,0.6 -3.2,3.8 0.6,11.7 -4.8,5.5 0.6,9.3 3.9,4.5 4.8,-0.6 4.8,-3.5 -1.1,-5.5 10.9,-18.9 -2.2,-2.4 2.2,-4.5 2.4,0.7 0.7,-1.8 -2.2,-9.3 -1.3,-3.8 -1.6,0.5 0,0 z"
       inkscape:connector-curvature="0"
       style="fill:#000000" /><path
       id="grande_comore_1_"
       d="m 255.9,387 0.6,1.8 2.4,0.4 1,-2.4 -4,0.2 0,0 z"
       inkscape:connector-curvature="0"
       style="fill:#000000" /><path
       id="mayotte_1_"
       d="m 259.4,390.7 1,2 1.4,0 0.7,-2.5 -3.1,0.5 0,0 z"
       inkscape:connector-curvature="0"
       style="fill:#000000" /><path
       id="aldabra_1_"
       d="m 285.3,371.6 -0.7,1.4 2,1.7 1.4,-1.7 -2.7,-1.4 0,0 z"
       inkscape:connector-curvature="0"
       style="fill:#000000" /><path
       id="praslin_1_"
       d="m 295.6,360.6 -2.2,1.4 1.7,2.5 2.2,0 -1.7,-3.9 0,0 z"
       inkscape:connector-curvature="0"
       style="fill:#000000" /><path
       id="mahe_1_"
       d="m 296.4,367 -1.4,1.7 1.1,1.7 2,0.4 0.2,-3.5 -1.9,-0.3 0,0 z"
       inkscape:connector-curvature="0"
       style="fill:#000000" /><path
       id="flores_3_"
       d="m 10.9,202.8 -1.7,1.7 2.9,1.7 0.4,-2.3 -1.6,-1.1 0,0 z"
       inkscape:connector-curvature="0"
       style="fill:#000000" /><path
       id="terceira_1_"
       d="m 19.8,201.8 -1.9,1.3 1.7,1.3 2.6,-0.7 -2.4,-1.9 0,0 z"
       inkscape:connector-curvature="0"
       style="fill:#000000" /><path
       id="pico_1_"
       d="m 21,206.4 -1,2.6 1.3,1.7 1.7,-1.3 -2,-3 0,0 z"
       inkscape:connector-curvature="0"
       style="fill:#000000" /><path
       id="sao_miguel_1_"
       d="m 28.8,211.6 -0.6,1.7 1,1 2.6,-1.7 -3,-1 0,0 z"
       inkscape:connector-curvature="0"
       style="fill:#000000" /><path
       id="madeira_1_"
       d="m 53.5,226 -1.3,1.7 1.3,1.7 1.9,-1 -1.9,-2.4 0,0 z"
       inkscape:connector-curvature="0"
       style="fill:#000000" /><path
       id="lanzarote_1_"
       d="m 62.3,246.6 -2.2,1.2 1,1 1.2,-2.2 0,0 z"
       inkscape:connector-curvature="0"
       style="fill:#000000" /><path
       id="gran_canaria_1_"
       d="m 55,246.9 -2.6,0.7 1.3,1.9 1.9,0 -0.6,-2.6 0,0 z"
       inkscape:connector-curvature="0"
       style="fill:#000000" /><path
       id="tenerife_1_"
       d="m 48.9,245 -1.7,1.7 2.3,1.9 1.3,-3 -1.9,-0.6 0,0 z"
       inkscape:connector-curvature="0"
       style="fill:#000000" /><path
       id="santo_antao_1_"
       d="m 28.8,290.6 -2.3,1.3 1.7,1.3 1.9,-1 -1.3,-1.6 0,0 z"
       inkscape:connector-curvature="0"
       style="fill:#000000" /><path
       id="boa_vista_1_"
       d="m 34.3,293.2 -1.4,1.3 1.1,1.9 2.5,-1.2 -2.2,-2 0,0 z"
       inkscape:connector-curvature="0"
       style="fill:#000000" /><path
       id="santiago_1_"
       d="m 31.1,296.9 -1.9,1.2 2,2.7 1.7,-0.8 -1.8,-3.1 0,0 z"
       inkscape:connector-curvature="0"
       style="fill:#000000" /><path
       id="novaya_zemlya_south_1_"
       d="m 237.5,35.9 5.6,0.6 1.8,6.5 4.8,5 -1.7,3.3 -2.9,0 -2.6,-3.1 -6,-0.2 -2.5,-3.3 0,-2.3 3.7,-1.1 -0.2,-5.4 0,0 z"
       inkscape:connector-curvature="0"
       style="fill:#000000" /><path
       id="russia_3_"
       d="m 309.4,32.8 -10.2,-3.6 -4.2,3.6 -6.3,-7.3 -1.2,2.7 6.9,21.7 1.8,0.6 4.8,-2.4 2.4,1.8 0,3.9 -4.5,-1.8 -2.7,2.2 1.8,3.9 -1.6,10.3 -9.3,1 -0.6,-3.3 5.4,-3.3 1.2,-9.1 -6,-7.9 -2.1,-13.6 -9.6,-1.6 -1,4.9 1.8,2.4 -3.9,3.3 1.6,9.1 5.7,2.4 1.2,6.7 -5.7,-3.6 -14.7,-2.7 -1.8,4.9 -11.7,4.2 -1.8,-3 -15.3,8.5 -0.2,5.7 -6,1 1.8,-4.2 0,-4.2 -6,-2.2 -3.9,1.6 3.3,6.3 2.4,4.2 0,3.3 -4.5,-1 -1,-1 -4.5,4.9 2.4,4.2 -10.2,-0.2 3.3,4.3 -1,1.8 -5.4,0 -3.9,-2.7 -1,-7.5 -6.3,-2.4 0,-3 13.3,2.7 7.2,0.6 3,-4.5 -2.7,-4.9 -19.3,-7.5 -6.6,1.7 -2.3,1.9 0.7,4.5 2.9,0.5 -0.6,7 8.7,20.4 -6.3,9.9 -0.5,2.3 3.2,2.3 -2.9,1.9 -1.9,0 0.4,8.8 2.6,3.7 0,3.6 3.3,0.4 5.1,1.9 5.5,7.5 0,2 -1.8,3.1 4.1,-0.2 3.9,1.2 5.4,7.6 13.3,1.2 -0.6,9.1 -4.5,3.9 1,1.6 -4.5,4.9 -1.2,4.5 2.7,3.9 8.7,3 3.6,-2.2 23.1,8.7 1,-2.4 -4.8,-4.5 0,-5.7 -3,-1 0.6,-4.9 4.8,-5.7 -8.6,-6.5 0.6,-9 9.2,-6.1 10.8,0.6 1.8,3.3 11.1,0.6 8.1,-4.5 -4.2,-4.5 1,-8.5 21,-10.3 16.1,7.3"
       inkscape:connector-curvature="0"
       style="fill:#000000" /><path
       id="russia_2_"
       d="m 313.6,7.7 -9,12.4 0,5.1 9.6,3.9"
       inkscape:connector-curvature="0"
       style="fill:#000000" /><path
       id="kazakhstan_2_"
       d="m 321,133 -16.5,-7.4 -20.2,9.9 -0.6,7 4.8,5.5 -9.2,5.3 -11.9,-0.2 -2.5,-3.7 -9.3,-0.5 -8.8,5.7 -0.2,7.8 8.2,6.5 0,0 4.9,-2.2 5.5,-0.2 0.4,8.4 -3.2,0 -2.4,3.9 3.2,5.3 4.8,2.6 0.5,3.1 1.8,-0.6 1.6,-1.9 2.6,0.6 1.3,2.6 3.3,0 0,-3.5 -2,-6.1 -1,-4.9 6,-2.6 8.1,1.3 5.1,5.1 11.5,-1.1"
       inkscape:connector-curvature="0"
       style="fill:#000000" /><path
       id="turkmenistan_2_"
       d="m 309,200.9 -16.5,-10.8 -0.7,-3.8 -6.2,0 -2.7,5.1 -2.7,0 -4.9,0.1 0,0 -0.7,3.1 -5,0 0,4.3 5.4,3.5 -1.7,4.8 0,2.3 2.2,0.4 3,-3.8 6.6,-1.4 14.1,5.4 0.2,3.8 7.9,0.7"
       inkscape:connector-curvature="0"
       style="fill:#000000" /><path
       id="uzbekistan_2_"
       d="m 312.4,189.1 -6.3,-9.1 -11.2,1.1 -5.4,-5.3 -7.4,-1.3 -5.4,2.2 3.1,10.4 0,3.5 2.3,0 2.7,-5.3 7.4,0.1 1.1,4.1 15.9,10.5"
       inkscape:connector-curvature="0"
       style="fill:#000000" /><path
       id="afghanistan_3_"
       d="m 307.8,215.8 -8.4,-1 0,0 1.9,14.9 4.8,1.1 0.5,2.6"
       inkscape:connector-curvature="0"
       style="fill:#000000" /><path
       id="afghanistan_2_"
       d="m 306.6,233.5 -3.3,2.9 6.3,5.1"
       inkscape:connector-curvature="0"
       style="fill:#000000" /><path
       id="georgia_1_"
       d="m 229.4,187.5 3.9,5.1 4.9,2.3 3,0 5.1,-1.4 1.3,-2 -15.3,-5.7 -2.9,1.7 0,0 z"
       inkscape:connector-curvature="0"
       style="fill:#000000" /><path
       id="armenia_1_"
       d="m 246.4,194.3 5.7,7.5 -1.7,1.9 -4.1,-0.7 -5,-4.5 0.2,-3 4.9,-1.2 0,0 z"
       inkscape:connector-curvature="0"
       style="fill:#000000" /><path
       id="azerbaijan_2_"
       d="m 248.4,191.7 -1.2,2 5.6,7.4 1.9,-0.6 3.2,3.3 1.4,-6 3.5,0.6 -0.1,-1.7 -5.7,-5 -1.1,3 -7.5,-3 0,0 z"
       inkscape:connector-curvature="0"
       style="fill:#000000" /><path
       id="iran_2_"
       d="m 309,242.2 -7.4,-6 3.8,-3.5 -0.2,-1.6 -4.9,-0.7 -2,-16.4 -0.2,-3.7 -13.1,-5 -5.9,1.3 -3.2,4.1 -2.9,-0.2 -0.8,0.7 -6.5,-0.5 -8.1,-6 -3,-3.3 -1.4,0.4 -2.5,2.9 -4.2,-0.8 0,0 -1.4,1.6 0.1,2.4 1.8,2.5 6.5,7 -1,2.9 -1.1,0 -0.6,2.9 3.6,4.7 3.3,0.2 6.7,9.3 3.8,0.2 3,2.2 0.1,4.2 11.6,6.8 4.3,0 2.6,-2.3 3.3,-0.1 1.9,4.5 12.5,1.8"
       inkscape:connector-curvature="0"
       style="fill:#000000" /><path
       id="turkey_1_"
       d="m 233.2,193.5 -2.6,2.9 -9.8,-0.2 -5.9,-3.5 -5.7,-0.1 -6.6,4.7 -6.2,0.2 -0.6,3.5 -7,0 -2.7,2.5 0,1.4 1.7,1.4 0,1.6 -0.7,1.8 0.7,1.6 2.3,-1.1 2.3,2.4 -0.6,1.7 -0.8,1.1 1.2,1.4 6.2,1.3 4.3,-1.8 0,-2.6 2.2,0.5 5,3 5.5,-0.8 2.4,-2.3 1.6,0.6 0,2.5 2.2,0 1.8,-3.5 16,-1.7 6.9,-0.8 -1.8,-2.4 0,-3.2 1.4,-1.7 -5.1,-4.1 0.2,-3.5 -3,0 -4.8,-2.8 0,0 z"
       inkscape:connector-curvature="0"
       style="fill:#000000" /><path
       id="yemen_1_"
       d="m 249.1,289 1.7,5.1 0,5 4.2,3.7 29.1,-11.8 0.2,-3.2 -4.7,-8.4 -11.7,3.7 -6.7,6.6 -7.8,-4.7 -4.3,4 0,0 z"
       inkscape:connector-curvature="0"
       style="fill:#000000" /><path
       id="oman_1_"
       d="m 280.7,279 8.8,-5.1 1.6,-7.4 -1.9,-1.1 0.8,-8 1.7,-1 1.8,2.9 10.8,5.6 0,3.1 -13,19.1 -6,0.2 -4.6,-8.3 0,0 z"
       inkscape:connector-curvature="0"
       style="fill:#000000" /><path
       id="emirates_1_"
       d="m 275.4,260 1.1,4.2 11.8,1.1 0.8,-8.5 2.3,-1.2 0.6,-3.1 -3.7,1.1 -4.2,6.2 -8.7,0.2 0,0 z"
       inkscape:connector-curvature="0"
       style="fill:#000000" /><path
       id="qatar_1_"
       d="m 273.7,253 -0.6,4.8 1.8,1.4 1.7,-0.1 0.6,-6 -1.4,-1.1 -2.1,1 0,0 z"
       inkscape:connector-curvature="0"
       style="fill:#000000" /><path
       id="kuwait_2_"
       d="m 262.6,238.9 -2.6,-1.4 -1.9,1.9 0.2,3.7 4.3,1.7 0,-5.9 0,0 z"
       inkscape:connector-curvature="0"
       style="fill:#000000" /><path
       id="saudi_1_"
       d="m 263.5,246 8.4,11.7 2.7,2.2 1.2,5.3 12.9,1.1 1.4,0.7 -1.4,6.5 -8.5,5 -12.4,3.7 -6.6,6.5 -7.9,-4.5 -4.8,4.2 -6.6,-10.9 -4.5,-2 -1.7,-2.5 0,-5.5 -16.5,-19.9 -0.6,-3.6 4.8,0 5.7,-5 0.2,-2.5 -1.7,-1.7 3.3,-2.7 7,0.5 11.9,10 7,-0.4 0.5,1.8 6.2,2 0,0 z"
       inkscape:connector-curvature="0"
       style="fill:#000000" /><path
       id="syria_1_"
       d="m 218.9,217.2 -0.4,3 3.3,1.4 -0.1,8.4 3.3,-0.1 3.3,-2.5 1.3,-0.2 7.6,-6.1 1.6,-8.8 -15.3,1.6 -1.6,3.6 -3,-0.3 0,0 z"
       inkscape:connector-curvature="0"
       style="fill:#000000" /><path
       id="iraq_2_"
       d="m 239.9,212.3 -1.9,9.2 -7.8,6.5 0.5,3 7.5,0.5 11.9,9.8 6.7,-0.2 0.2,-2.3 2.5,-2.6 3.5,1.9 0.5,-0.5 -6.7,-8.8 -3.1,-0.2 -4.2,-5.4 0.8,-3.9 1.3,-0.1 0.5,-1.8 -5.7,-6 -6.5,0.9 0,0 z"
       inkscape:connector-curvature="0"
       style="fill:#000000" /><path
       id="jordan_1_"
       d="m 221.5,231.2 -3,10.3 -0.1,1.6 4.7,0 5.1,-4.5 0.1,-1.7 -2.2,-2.2 3.8,-3.1 -0.6,-2.9 -1.1,0.2 -3.1,2.3 -3.6,0 0,0 z"
       inkscape:connector-curvature="0"
       style="fill:#000000" /><path
       id="lebanon_1_"
       d="m 218.3,221.2 0.1,2.3 -1,3.6 3.3,0.2 0.2,-5 -2.6,-1.1 0,0 z"
       inkscape:connector-curvature="0"
       style="fill:#000000" /><path
       id="israel_1_"
       d="m 217.2,228 -1.9,6 2.4,7.2 2.7,-10.5 0,-2.3 -3.2,-0.4 0,0 z"
       inkscape:connector-curvature="0"
       style="fill:#000000" /><path
       id="cyprus_1_"
       d="m 214.7,218.1 1.4,1.1 -4.5,4.3 -2.2,-0.1 -1.6,-1.1 0.2,-2.2 3.3,-0.2 3.4,-1.8 0,0 z"
       inkscape:connector-curvature="0"
       style="fill:#000000" /><path
       id="norway_1_"
       d="m 181.6,65.5 2.4,-1.8 -0.2,-2 -1.6,-0.8 0.2,-2.4 1.3,0 0,-1.3 -5.7,-1.6 -8.5,0.8 -0.8,3.7 -1.9,-0.6 -1.3,-2.2 -4.2,0.2 -0.6,4.2 -1.9,0.8 -1.1,-2.2 -8.7,7 1.8,2 -3.3,1.6 -7.4,15.1 -2.6,1.8 0.2,1.3 2.6,1.3 -0.6,2.9 -4.4,-0.2 -1.3,-1.6 -2.9,3.3 -1.8,1.3 -0.5,3.1 -1.6,0.8 -3.9,0.8 -1.9,6.2 1.3,10.2 1.6,4.7 1.8,1.8 3.9,-0.2 5.7,-5.5 2.2,-3.7 0.6,5.5 3.7,-6.6 0.2,-18.5 3,-1.9 1,-10.3 9.2,-13.3 4.4,-1.6 1.9,-2.4 6.6,1.6 3.3,2 1.1,-5.5 5.5,-3.3 3.2,5.5 0,0 z"
       inkscape:connector-curvature="0"
       style="fill:#000000" /><path
       id="britain_1_"
       d="m 98.7,121.7 -2.2,3.3 0.8,1.3 5,0 0,2.3 -1.3,1.8 0.8,4.7 2.9,5.5 2.2,5 3.5,1.3 1.6,2.6 -0.2,2.4 -2.2,1.3 -0.2,1.1 1.6,0.8 -1.3,1.8 -3.1,1.3 -6,-0.7 -9.2,4.2 -3.1,-1.6 8.7,-5 -1.1,-0.7 -4.7,-0.5 2.9,-4.2 0.5,-3.6 3.7,-0.5 -0.6,-6.8 -4.4,-0.2 -1.3,-1.6 0.2,-5 -2.6,0.2 2.6,-8.8 4.8,-3.6 1.7,1.9 0,0 z"
       inkscape:connector-curvature="0"
       style="fill:#000000" /><path
       id="ulster_1_"
       d="m 89.5,136.5 -3.9,0.5 -0.2,3.6 2.6,1.8 2.9,-0.7 1.1,-2 -2.5,-3.2 0,0 z"
       inkscape:connector-curvature="0"
       style="fill:#000000" /><path
       id="ireland_1_"
       d="m 90.8,142.6 -1.1,7.2 -9.7,3.6 -3,0 -2.2,-1.6 0,-1.3 4.8,-3.1 -1.3,-2.6 0.2,-3.7 4.2,0.2 1.9,-4.5 -0.2,3.9 3.2,2.5 3.2,-0.6 0,0 z"
       inkscape:connector-curvature="0"
       style="fill:#000000" /><path
       id="sweden_1_"
       d="m 160.4,68.5 2.4,2.2 4.4,0 2.4,4.7 0.6,8 -6,4.2 0,4.2 -4.2,5.7 -2.4,0.2 -3.3,5.5 0.2,5.3 5.7,4.2 -0.5,2.4 -2.2,3.3 -3.3,2.9 0.2,9.4 -5,1.8 -1.8,3.7 -2.4,0 -1.3,-6.6 -5.5,-8.4 4.5,-7.5 0.4,-18.6 3.1,-1.7 0.7,-10.6 8.8,-12.7 4.5,-1.6 0,0 z"
       inkscape:connector-curvature="0"
       style="fill:#000000" /><path
       id="finland_1_"
       d="m 171.2,83.2 2.5,1.1 1.6,2.9 -1.6,2 -7.6,8.4 -1.3,4.4 1.8,6.5 6,4.4 7.9,-3.7 6.3,-0.8 6,-9.4 -4.4,-10.4 -4.2,-9.9 0.6,-6.5 -2.6,-0.5 -0.7,-4.7 -3.6,-5.7 -3.9,2.7 -1.6,6.3 -4.2,-2.5 -5.7,-1.4 -1.3,1.6 2.3,2 4.1,-0.1 3.2,5.3 0.4,8 0,0 z"
       inkscape:connector-curvature="0"
       style="fill:#000000" /><path
       id="estonia_2_"
       d="m 184.7,124.4 -8.2,-1.3 0.1,4.5 7.5,4.7 3.1,-1 -0.2,-3.5 -2.3,-3.4 0,0 z"
       inkscape:connector-curvature="0"
       style="fill:#000000" /><path
       id="hiumaa_1_"
       d="m 171.2,119.9 -1.8,-0.1 -1.1,1.1 0.7,1.2 1.8,0.1 1,-1.4 -0.6,-0.9 0,0 z"
       inkscape:connector-curvature="0"
       style="fill:#000000" /><path
       id="saaremaa_1_"
       d="m 171,124.8 -1.8,-0.1 -3.2,3.8 0,1.8 1.1,0.5 2.2,0.1 3.5,-2.9 0.5,-1 -2.3,-2.2 0,0 z"
       inkscape:connector-curvature="0"
       style="fill:#000000" /><path
       id="lithuania_1_"
       d="m 176,128.4 -2.5,-0.1 -3.6,3.3 -3,0 0.1,4.2 -1.8,3.3 6.5,0.1 1.8,-0.2 1.8,2.3 4.3,-0.1 4.1,-5.1 -0.2,-3.1 -7.5,-4.6 0,0 z"
       inkscape:connector-curvature="0"
       style="fill:#000000" /><path
       id="belarus_1_"
       d="m 175.9,142.2 1.8,3 -0.7,2.4 0.1,1.9 0.6,2.3 3.7,-2.2 4.5,0.1 3.2,1.3 8.1,0 2.4,-5.7 1.4,-2.2 0,-1.4 -5.1,-7.3 -4.5,-1.8 -3.7,-0.5 -3.2,1.1 0.1,3.2 -4.5,5.6 -4.2,0.2 0,0 z"
       inkscape:connector-curvature="0"
       style="fill:#000000" /><path
       id="poland_1_"
       d="m 176.9,152.4 1.1,1.9 0.2,2 -0.8,1.9 -1.9,3.7 -1.7,0.7 -2.2,-1 -1.2,0.1 -3,1.2 -3.5,-1.1 -5.6,-3.9 -5.5,-3 -2.3,-3.3 -0.5,-7.9 4.3,-3.7 5.6,-1.9 2.2,-0.2 -0.8,1.7 0.6,0.7 9.4,0.1 2,-0.1 3.3,5.1 -0.8,2.2 0.4,2.5 0.7,2.3 0,0 z"
       inkscape:connector-curvature="0"
       style="fill:#000000" /><path
       id="spain_1_"
       d="m 101.5,188.5 -15.2,0 -3.1,-1.4 -1.4,0.1 -1.8,3.7 0.6,3.8 5.9,0.5 0.7,2.5 -2.5,14.2 0.1,2.5 4.2,2.3 4.8,0.4 9.6,-2.4 4.7,-5.9 0.1,-6 8.2,-7.4 0.5,-3.3 -7.5,-0.1 -7.9,-3.5 0,0 z"
       inkscape:connector-curvature="0"
       style="fill:#000000" /><path
       id="portugal_1_"
       d="m 80.6,195.9 -0.7,10.3 -2.2,1.9 0.2,1.2 1.4,2.5 -1,3 1.6,0.5 3.7,-0.5 -0.2,-3 2.4,-13.9 -0.5,-1.9 -4.7,-0.1 0,0 z"
       inkscape:connector-curvature="0"
       style="fill:#000000" /><path
       id="majorca_1_"
       d="m 116.6,203 -1.9,0.6 0.5,1.7 2.7,0 1.2,-1.3 -2.5,-1 0,0 z"
       inkscape:connector-curvature="0"
       style="fill:#000000" /><path
       id="sardinia_1_"
       d="m 136.4,198.5 -3.1,1.6 0.5,6.2 2.5,0.5 1.9,-1.8 0,-5.9 -1.8,-0.6 0,0 z"
       inkscape:connector-curvature="0"
       style="fill:#000000" /><path
       id="corsica_1_"
       d="m 136.6,190.8 -2.4,2.4 -0.2,2.2 1.9,1.2 0.7,-0.1 0.5,-3.1 -0.5,-2.6 0,0 z"
       inkscape:connector-curvature="0"
       style="fill:#000000" /><path
       id="france_1_"
       d="m 115.8,157 -2.6,0.6 -5.3,5.7 -1.6,0.1 -2.2,-1.4 -1.3,0.4 -1.1,3.3 -7.8,0.2 0.2,1.7 5.3,3.5 6.1,4.9 -0.1,5.9 -3.2,5.7 7,3.5 7.2,0.2 2.3,-2.5 4.5,0.1 1.3,1.2 4.5,-0.4 2.4,-3 -3,-3.5 -0.2,-2.3 0.6,-2.5 -1.4,-2.2 -2.5,0.7 -0.4,-1.9 5.6,-6.2 0,-3.7 -3.7,-2.2 -1.9,-0.4 -8.7,-5.5 0,0 z"
       inkscape:connector-curvature="0"
       style="fill:#000000" /><path
       id="netherlands_1_"
       d="m 127.4,144.6 -5.4,2.6 1.2,1.1 0.1,2.6 -1.2,-0.2 -1.3,-1.9 -3,4.8 4.7,1 1.8,1.8 1,0 0.6,-4.2 3,-1.2 -1.5,-6.4 0,0 z"
       inkscape:connector-curvature="0"
       style="fill:#000000" /><path
       id="belgium_1_"
       d="m 117.2,154.4 -0.7,1.9 8.2,5.4 2.4,0.6 0.1,-2.5 -2,-2.3 -1.3,0 -1.8,-1.9 -4.9,-1.2 0,0 z"
       inkscape:connector-curvature="0"
       style="fill:#000000" /><path
       id="germany_1_"
       d="m 128.6,144.1 4.3,-0.7 0,-3 3.6,-0.6 1.9,1.9 2,0.2 3.2,-1.4 2.9,0.8 2.5,2.2 0.4,8.2 2.5,3.3 -3.3,0.5 -5.5,3.5 0.5,1.2 4.9,4.7 -0.4,2.3 -4.7,2.3 -4.3,0.1 -1.1,2.2 -2.2,0 -1.1,-2.3 -3.8,-1 -0.1,-3.8 -3.2,-2.2 0.4,-2.7 -2.2,-3 0.6,-3.9 3,-1.4 -0.8,-7.4 0,0 z"
       inkscape:connector-curvature="0"
       style="fill:#000000" /><path
       id="denmark_1_"
       d="m 135.4,124.5 -4.9,5.5 -0.1,3.6 2.3,5.9 3.6,-0.7 -0.5,-4.8 2.4,-2.7 0,-2.2 -1.7,-4.4 -1.1,-0.2 0,0 z"
       inkscape:connector-curvature="0"
       style="fill:#000000" /><path
       id="sjælland_1_"
       d="m 140.9,134.2 -1.1,0 -1.4,1.3 0.1,2.2 3.5,0.1 0.1,-2.4 -1.2,-1.2 0,0 z"
       inkscape:connector-curvature="0"
       style="fill:#000000" /><path
       id="gotland_1_"
       d="m 161.3,123 -2.5,2 1.3,2.9 2.3,-2.2 -1.1,-2.7 0,0 z"
       inkscape:connector-curvature="0"
       style="fill:#000000" /><path
       id="switzerland_1_"
       d="m 130.7,169.8 -5.3,5.5 0.1,0.6 2.2,-0.7 1.9,2.6 3.2,-1.2 2.3,1.8 1,-0.5 2.7,-4.3 -0.7,-0.7 -2.7,-0.1 -1.3,-2.7 -3.4,-0.3 0,0 z"
       inkscape:connector-curvature="0"
       style="fill:#000000" /><path
       id="czech_1_"
       d="m 149.3,164.4 3.6,0 1.8,0 2.9,2 5.3,-4.3 -5.1,-3.6 -5,-2.4 -3.5,0.6 -4.7,3 4.7,4.7 0,0 z"
       inkscape:connector-curvature="0"
       style="fill:#000000" /><path
       id="slovakia_1_"
       d="m 158.1,167.1 0.8,0.7 0.1,1.2 9.1,-0.2 6.7,-2.9 -0.1,-3 -1.3,0.6 -1.8,-1 -1.2,0 -3,1.2 -4.1,-1 -5.2,4.4 0,0 z"
       inkscape:connector-curvature="0"
       style="fill:#000000" /><path
       id="austria_1_"
       d="m 139.9,170.7 -0.7,1.7 0.7,1.2 2.7,-0.6 2.4,0 2.5,2.2 5.5,-1 4.1,-2.4 1.1,-1.7 -0.1,-2 -3.6,-2.7 -4.8,0 -0.4,2.7 -5.4,2.5 -4,0.1 0,0 z"
       inkscape:connector-curvature="0"
       style="fill:#000000" /><path
       id="hungary_1_"
       d="m 159.2,170.1 -1.4,2.2 0.1,3.3 2.3,1.1 6.8,0.2 9.4,-8 0,-1.8 -1.1,-0.5 -6.8,3.1 -9.3,0.4 0,0 z"
       inkscape:connector-curvature="0"
       style="fill:#000000" /><path
       id="slovenia_1_"
       d="m 156.9,172.9 -3,1.8 -5.6,1.2 1.2,3.2 3.9,0 3.7,-3.1 -0.2,-3.1 0,0 z"
       inkscape:connector-curvature="0"
       style="fill:#000000" /><path
       id="croatia_1_"
       d="m 157.9,176.7 -4.2,3.5 -4.3,0 -0.5,3 1.9,0.5 1,-1.4 1.6,1.3 1.2,4.3 8.5,3.9 0.8,-1 -8.6,-8.8 0.8,-1.7 8.1,-0.4 0.8,-2.6 -5.3,0.1 -1.8,-0.7 0,0 z"
       inkscape:connector-curvature="0"
       style="fill:#000000" /><path
       id="bosnia_1_"
       d="m 156.9,181.2 -0.5,0.7 8,8.2 3,-4.3 -0.1,-1.7 -2.5,-3.1 -7.9,0.2 0,0 z"
       inkscape:connector-curvature="0"
       style="fill:#000000" /><path
       id="italy_1_"
       d="m 130,178.9 -0.7,1.9 0.2,2 2.9,3.3 4.5,-0.1 9.9,11.5 6.2,1.8 3.7,3.5 0.8,7.9 1.9,-1.2 1.7,-4.3 -0.5,-3.1 2.9,-0.2 0.5,-1.8 -8.2,-3.9 -7.8,-7.6 -3.1,-4.5 -0.7,-4.3 3.9,-1 -1.1,-2.9 -2.4,-2 -2.2,-0.1 -2.9,0.8 -2.7,3.8 -1.7,1.1 -2.5,-1.6 -2.6,1 0,0 z"
       inkscape:connector-curvature="0"
       style="fill:#000000" /><path
       id="sicily_1_"
       d="m 154,210 -1.8,-1 -6,1 0.2,1.6 5.4,2.6 0.8,0.8 1.4,0.2 0,-5.2 0,0 z"
       inkscape:connector-curvature="0"
       style="fill:#000000" /><path
       id="malta_1_"
       d="m 154.3,218.9 -2,0.4 0.1,2.3 1.8,0.6 0.8,-0.7 -0.7,-2.6 0,0 z"
       inkscape:connector-curvature="0"
       style="fill:#000000" /><path
       id="ukraine_1_"
       d="m 181.7,150.3 -3.5,1.9 0.8,3.7 -3.2,6.7 0,3 1.6,1 9.7,0.5 2.7,-2.3 2.9,1 4.2,5.5 -3,5.5 3.6,1.1 4.8,-5.5 2.7,0.5 2.5,1.8 -2.2,2.9 3,4.7 3.2,0 1.7,-3.1 3.3,-0.7 0.1,-2.5 -6.2,-1 0.2,-2.7 6.1,0 6.6,-5.3 2.9,-2.5 0.5,-8 -12.9,-1.2 -5.3,-7.4 -3.7,-1.3 -4.4,0.2 -2,4.9 -9.1,0.1 -3,-1.3 -4.6,-0.2 0,0 z"
       inkscape:connector-curvature="0"
       style="fill:#000000" /><path
       id="moldova_1_"
       d="m 188,167.8 3.7,5.7 -0.4,3.2 1.3,0.1 3.1,-5.3 -3.8,-4.7 -2.2,-0.8 -1.7,1.8 0,0 z"
       inkscape:connector-curvature="0"
       style="fill:#000000" /><path
       id="romania_1_"
       d="m 177.7,167.7 -0.4,1.8 -6.9,5.7 5.7,8.5 3.7,2.6 6.7,0 2.2,-1.8 3,-0.4 2.2,1.3 3.9,-4.4 -0.7,-2.3 -3.9,-1.1 -2.7,-0.1 0.1,-3.8 -3.6,-5.6 -9.3,-0.4 0,0 z"
       inkscape:connector-curvature="0"
       style="fill:#000000" /><path
       id="serbia_and_montenegro_1_"
       d="m 169.7,175.9 -2.4,1.8 -1.2,0 -0.8,2.5 2.9,3.3 0.2,2.6 -3.6,5 0.5,1.6 2,0.4 1.7,-2.3 0.8,-0.1 1.6,1.4 4.5,-1.4 -0.4,-6.6 -5.8,-8.2 0,0 z"
       inkscape:connector-curvature="0"
       style="fill:#000000" /><path
       id="bulgaria_1_"
       d="m 176.7,185.3 0.2,6 2,4.2 7.5,0.1 3.3,-2.4 3.3,-1.3 -0.8,-3.8 0.7,-2 -1.7,-0.8 -2.4,0.2 -1.8,1.8 -7.6,0.1 -2.7,-2.1 0,0 z"
       inkscape:connector-curvature="0"
       style="fill:#000000" /><path
       id="albania_1_"
       d="m 167.9,194.2 0,5.5 1.6,3 1.2,-0.1 1.9,-3.6 -1.2,-1.6 -0.5,-3.9 -1.6,-1.4 -1.4,2.1 0,0 z"
       inkscape:connector-curvature="0"
       style="fill:#000000" /><path
       id="macedonia_1_"
       d="m 176.1,192 -4.1,1.3 0.2,3.5 1,1.2 4.8,-2.3 -1.9,-3.7 0,0 z"
       inkscape:connector-curvature="0"
       style="fill:#000000" /><path
       id="greece_1_"
       d="m 171.1,203.5 -0.1,1.6 5.5,2.7 2.6,1.1 -1.4,1.4 -3.1,0.4 -0.5,1.4 1.1,2.4 3.5,1.8 1.6,0.1 0.2,-4.1 2.3,-2.7 -6.2,-7.3 0.8,-2.5 1.4,-0.1 2.2,1.8 1.4,-0.7 0.5,-2.5 6.5,0.1 0.2,-3.8 -2.7,1.9 -7.9,-0.2 -5.1,2.6 -2.8,4.6 0,0 z"
       inkscape:connector-curvature="0"
       style="fill:#000000" /><path
       id="thrace_1_"
       d="m 190.6,194.1 -0.2,4.3 3.7,-1.1 1.7,-1.1 -0.5,-1.8 -1.8,-1.4 -2.9,1.1 0,0 z"
       inkscape:connector-curvature="0"
       style="fill:#000000" /><path
       id="crete_1_"
       d="m 183.2,219 1.9,0.1 0.8,1.2 2.9,0 1.9,-0.7 0.6,0.7 -1.2,1.7 -5.5,0.2 -1,-1.3 -1.1,-0.6 0.7,-1.3 0,0 z"
       inkscape:connector-curvature="0"
       style="fill:#000000" /></g><g
     id="eu-central-1"
     cx="132.51695"
     cy="156.43008" /><g
     id="eu-west-1"
     cx="86.222458"
     cy="147.69598" /><path
     style="fill:#cccccc"
     d="m 205.86123,394.79705 c -0.38768,-0.51984 -3.94163,-2.39012 -7.89767,-4.15617 -3.95604,-1.76606 -7.44948,-3.53711 -7.76321,-3.93567 -0.36817,-0.46773 -1.57878,-0.72466 -3.41448,-0.72466 l -2.84407,0 -0.3315,-4.23861 c -0.63813,-8.15923 -0.61423,-8.0919 -2.87292,-8.0919 -1.08878,0 -2.12249,-0.23119 -2.29713,-0.51377 -0.17464,-0.28257 -0.88561,-0.51377 -1.57995,-0.51377 -0.9397,0 -1.48419,0.46507 -2.12997,1.81928 l -0.86755,1.81927 -3.36275,-0.14952 -3.36274,-0.14952 -0.16736,-1.75505 c -0.0921,-0.96528 -0.78012,-2.55843 -1.52905,-3.54032 l -1.36169,-1.78527 -5.81675,0.31173 -5.81676,0.31172 1.18055,-1.48914 c 0.76894,-0.96994 1.49889,-1.39804 2.0936,-1.22785 0.58943,0.16868 2.44697,-0.89071 5.24069,-2.98883 l 4.32763,-3.25012 0.0274,-2.82574 c 0.0325,-3.35049 1.10142,-5.37133 3.80792,-7.19883 2.1892,-1.47822 2.10561,-1.20783 3.16249,-10.23037 0.61187,-5.22353 1.02019,-7.05821 1.6829,-7.56179 1.24057,-0.94268 1.22912,-0.94631 5.27645,1.6719 l 3.66282,2.36947 2.24839,-2.20663 2.24838,-2.20662 11.95836,0.5751 c 11.17274,0.53733 12.00466,0.64476 12.66324,1.63536 0.38768,0.58313 1.02348,1.06025 1.41287,1.06025 0.46661,0 0.70799,0.61305 0.70799,1.79819 0,0.98901 0.2312,1.7982 0.51377,1.7982 1.21577,0 0.25472,2.19668 -3.5964,8.22034 l -4.10588,6.42214 -0.002,3.52416 c -0.002,2.73492 0.53118,5.26619 2.37932,11.30296 1.30981,4.27835 2.49054,8.06781 2.62383,8.42103 0.17712,0.46935 -0.5875,0.64221 -2.84061,0.64221 l -3.08296,0 -1.33907,3.34492 c -0.73657,1.83971 -1.33915,4.14778 -1.33915,5.12906 0,1.63773 0.22135,1.89532 2.6973,3.13902 1.48352,0.7452 2.73348,1.38488 2.77769,1.42153 0.0442,0.0366 0.24385,1.16482 0.44366,2.50705 l 0.36328,2.44041 -1.53698,0 c -0.89438,0 -1.83169,-0.39516 -2.24187,-0.94515 z"
     id="path3504"
     inkscape:connector-curvature="0" /><path
     style="fill:#cccccc"
     d="m 224.93654,404.8833 c 0,-2.97315 -0.12637,-3.31882 -1.86383,-5.09815 l -1.86384,-1.90874 0.62776,-3.32701 c 0.52843,-2.80058 0.49817,-3.95364 -0.19125,-7.28731 -0.45045,-2.17817 -0.81901,-4.05117 -0.81901,-4.16223 0,-0.11107 0.80919,-0.20194 1.7982,-0.20194 1.25589,0 1.7982,-0.23242 1.7982,-0.77065 0,-0.57332 -0.62491,-0.77714 -2.44041,-0.79596 -1.53251,-0.0159 -3.58724,-0.55288 -5.52304,-1.44342 l -3.08263,-1.41812 -1.86153,-6.64847 -1.86153,-6.64848 1.14032,-0.45673 c 0.62717,-0.2512 1.44186,-0.93957 1.81042,-1.52972 0.83631,-1.33915 2.04253,-5.7902 2.05065,-7.56713 0.009,-1.8981 1.34139,-2.85182 4.97575,-3.56079 l 3.17145,-0.61867 9.37652,5.83898 c 5.15708,3.21144 9.59677,5.98621 9.86596,6.16616 0.29412,0.19662 0.12611,1.27861 -0.42098,2.71114 -1.50322,3.93612 -0.81871,9.46135 1.8231,14.71563 1.15802,2.30321 1.97364,4.31951 1.81248,4.48067 -0.16116,0.16116 -4.58397,0.80775 -9.82846,1.43686 -5.24449,0.62911 -9.61822,1.22663 -9.7194,1.32781 -0.53827,0.53827 1.38358,6.39585 2.48215,7.56534 0.93185,0.992 1.35577,2.17566 1.6177,4.51692 l 0.35494,3.17266 -2.1665,2.35038 c -1.19158,1.29271 -2.36826,2.35038 -2.61485,2.35038 -0.24658,0 -0.44834,-1.43523 -0.44834,-3.18941 z"
     id="path3506"
     inkscape:connector-curvature="0" /><path
     style="fill:#cccccc"
     d="m 233.80289,357.04303 c -10.77578,-6.61024 -10.27415,-5.70168 -6.90681,-12.50953 l 1.82263,-3.68487 -1.66512,-3.12409 c -1.21071,-2.27153 -1.62163,-3.64947 -1.50576,-5.04924 0.15084,-1.82214 0.26933,-1.94006 2.21446,-2.20375 2.87746,-0.39009 4.03913,0.13894 7.98315,3.63557 3.13119,2.77602 3.67497,3.06517 5.76439,3.06517 1.26888,0 3.28998,-0.3468 4.49133,-0.77066 3.18918,-1.12521 3.47308,-0.96553 1.6421,0.92356 l -1.6421,1.69422 -0.005,6.14079 c -0.005,6.13828 -0.004,6.14132 1.48323,7.42522 l 1.48785,1.28443 -2.90213,4.45761 -2.90213,4.4576 -9.36046,-5.74203 -1e-5,0 z"
     id="path3508"
     inkscape:connector-curvature="0" /><path
     style="fill:#cccccc"
     d="m 212.26956,351.07995 -1.6209,-1.47536 2.79138,-4.16932 c 3.13397,-4.68102 3.79463,-6.67934 2.5498,-7.71245 -0.44822,-0.37199 -0.81495,-1.11043 -0.81495,-1.64098 0,-0.8723 0.44315,-0.96464 4.62952,-0.96464 l 4.62953,0 1.38315,2.8202 1.38316,2.8202 -1.19288,2.70284 c -0.65608,1.48657 -1.55937,3.6609 -2.0073,4.83187 -0.80231,2.09734 -0.86016,2.13419 -3.88807,2.47676 -1.6905,0.19126 -3.71264,0.67818 -4.49363,1.08205 -1.7498,0.90485 -1.42536,0.97957 -3.34881,-0.77117 z"
     id="path3510"
     inkscape:connector-curvature="0" /><path
     style="fill:#cccccc"
     d="m 207.9821,354.95431 c 0,-0.9577 0.44428,-2.28709 0.9873,-2.95418 l 0.9873,-1.2129 1.58155,1.50899 c 1.03376,0.98633 1.58156,2.00956 1.58156,2.95418 0,1.39172 -0.0951,1.44519 -2.56886,1.44519 l -2.56885,0 0,-1.74128 z"
     id="path3512"
     inkscape:connector-curvature="0" /><path
     style="fill:#cccccc"
     d="m 208.48315,362.05675 c -0.27558,-0.72484 -0.50105,-1.88082 -0.50105,-2.56886 0,-1.14449 0.20155,-1.25098 2.36766,-1.25098 2.32461,0 2.36135,0.0257 2.02029,1.41287 -0.86221,3.50685 -2.972,4.81334 -3.8869,2.40697 z"
     id="path3514"
     inkscape:connector-curvature="0" /><path
     style="fill:#cccccc"
     d="m 174.13909,408.84608 c -3.14256,-1.23561 -3.72659,-1.28714 -14.58833,-1.28714 l -11.31471,0 0.32753,-3.46795 c 0.18014,-1.90738 0.32917,-4.09781 0.33118,-4.86764 0.003,-0.96711 0.95633,-2.50657 3.08628,-4.98132 2.96372,-3.4435 3.08262,-3.69116 3.08262,-6.42096 0,-1.63826 -0.76066,-5.6468 -1.7982,-9.4762 -0.98901,-3.65029 -1.7982,-6.77791 -1.7982,-6.95028 0,-0.17237 2.73854,-0.3134 6.08563,-0.3134 5.4911,0 6.17914,0.10333 7.04289,1.05776 0.57944,0.64027 0.91,1.67804 0.83752,2.62928 -0.19256,2.52718 0.58594,2.99198 5.01125,2.99198 l 3.9521,0 0.85751,-1.7982 c 0.83447,-1.74991 2.02961,-2.32434 2.67232,-1.28442 0.17464,0.28257 0.85681,0.51377 1.51594,0.51377 1.43485,0 1.62931,0.62507 2.12222,6.82151 0.19729,2.48026 0.55209,4.62907 0.78845,4.77514 0.23636,0.14608 1.59123,0.40316 3.01083,0.57129 l 2.5811,0.30569 0,2.24041 0,2.24041 -3.5964,0 -3.5964,0 0,6.56196 0,6.56197 1.60051,1.94169 c 0.88028,1.06793 1.45341,2.0888 1.27362,2.26859 -0.1798,0.17979 -1.65141,0.40031 -3.27027,0.49004 -2.2124,0.12264 -3.75636,-0.1565 -6.21699,-1.12398 z"
     id="path3516"
     inkscape:connector-curvature="0" /><path
     style="fill:#cccccc"
     d="m 194.11027,410.54959 c -0.98901,-0.27532 -3.25286,-0.68519 -5.03078,-0.91084 -1.77792,-0.22564 -3.30558,-0.49691 -3.39481,-0.60282 -0.0892,-0.10591 -0.88874,-1.20984 -1.77669,-2.45317 -1.55756,-2.18095 -1.61445,-2.44584 -1.61445,-7.51638 l 0,-5.25576 3.07181,-0.22219 c 1.6895,-0.12221 3.23511,-0.38549 3.43468,-0.58507 0.19958,-0.19958 0.49344,-1.25061 0.65303,-2.33562 l 0.29016,-1.97276 6.93087,2.96818 c 4.01365,1.71887 7.22967,3.41821 7.64079,4.03739 0.57271,0.86254 1.24397,1.0692 3.473,1.0692 l 2.76307,0 0,-3.33212 0,-3.33212 -3.0454,-1.53731 c -3.65009,-1.84256 -3.90725,-2.66066 -2.14576,-6.82626 l 1.24922,-2.95418 2.78043,0 c 2.31553,0 3.36965,0.34412 6.30436,2.05808 1.93815,1.13194 3.64149,2.46133 3.78519,2.95418 1.15236,3.95236 1.44832,7.50361 0.85679,10.28064 l -0.62752,2.94597 -7.37441,3.28161 -7.37442,3.28161 -2.67877,3.78274 c -2.5088,3.54274 -2.79594,3.77941 -4.52548,3.73016 -1.01569,-0.0289 -2.6559,-0.27785 -3.64491,-0.55316 z"
     id="path3518"
     inkscape:connector-curvature="0" /><path
     style="fill:#cccccc"
     d="m 208.27716,426.11543 c -2.90649,-0.79285 -3.29646,-1.10904 -8.60567,-6.97761 -3.05867,-3.38092 -5.56122,-6.32889 -5.56122,-6.55104 0,-0.22214 1.49574,-0.4039 3.32386,-0.4039 l 3.32386,0 2.59488,-3.84545 c 1.46815,-2.1757 3.27809,-4.19875 4.1683,-4.6591 1.53557,-0.79408 1.67431,-0.76142 5.76955,1.35805 2.30788,1.19444 4.366,2.42404 4.5736,2.73246 0.20761,0.30842 0.381,2.9776 0.38533,5.93151 l 0.008,5.37076 -2.43926,4.00557 c -2.70597,4.44355 -2.57891,4.39235 -7.5411,3.03875 z"
     id="path3520"
     inkscape:connector-curvature="0" /><path
     style="fill:#cccccc"
     d="m 177.27801,440.39936 c 0.24669,-3.44783 0.19675,-3.66626 -0.95851,-4.19264 -1.15548,-0.52646 -1.21876,-0.8037 -1.21876,-5.33897 l 0,-4.78367 1.66071,-0.43033 c 1.82658,-0.47331 1.94988,-0.83816 2.68597,-7.94783 l 0.35905,-3.46795 4.12989,0 c 3.85615,0 4.24625,-0.10216 5.88535,-1.54132 2.09814,-1.84218 2.74069,-1.93168 2.76666,-0.38532 0.0121,0.72256 2.13768,3.56385 5.66915,7.57812 l 5.64974,6.42214 -1.43054,1.22999 c -5.5834,4.80065 -7.97802,7.43206 -8.70509,9.56588 l -0.77845,2.28462 -3.78463,-0.31992 -3.78464,-0.31992 -2.89102,2.64223 c -1.89946,1.736 -3.34103,2.64223 -4.20308,2.64223 -1.30785,0 -1.31122,-0.0117 -1.0518,-3.63734 z"
     id="path3522"
     inkscape:connector-curvature="0" /><path
     style="fill:#cccccc"
     d="m 177.15582,440.21803 c 0,-3.36743 -0.12141,-3.85719 -1.02754,-4.14479 -0.93,-0.29517 -1.02754,-0.77735 -1.02754,-5.07961 l 0,-4.75349 1.66511,-0.73493 c 1.78152,-0.78632 1.87004,-1.05923 2.69628,-8.31306 l 0.33649,-2.95418 4.00255,0 c 3.67377,0 4.16187,-0.12661 5.94205,-1.54132 2.35533,-1.87178 2.62572,-1.89443 3.03734,-0.25441 0.17764,0.70779 2.74948,4.11221 5.7152,7.56536 l 5.39221,6.27847 -4.59095,4.25523 c -3.38777,3.14005 -4.82556,4.86957 -5.48616,6.59935 l -0.89523,2.34412 -3.78336,-0.35453 -3.78336,-0.35453 -2.78136,2.63049 c -1.85608,1.7554 -3.21889,2.6305 -4.09654,2.6305 -1.2931,0 -1.31519,-0.0641 -1.31519,-3.81867 z"
     id="path3524"
     inkscape:connector-curvature="0" /><path
     style="fill:#cccccc"
     d="m 165.87764,449.97144 c -0.8015,-0.85315 -1.85574,-1.30788 -3.2756,-1.41287 l -2.09372,-0.15482 -2.69833,-6.67902 c -2.85107,-7.05708 -3.20895,-9.2676 -2.16903,-13.39751 l 0.5773,-2.29267 -3.70523,-5.60377 c -3.3231,-5.02583 -3.73442,-5.92558 -3.98817,-8.72404 l -0.28294,-3.12026 10.82551,0 c 10.79379,0 10.83793,0.005 15.07092,1.56534 4.01211,1.47931 4.43591,1.53578 7.71159,1.02754 1.90639,-0.29578 4.69346,-0.52948 6.19349,-0.51931 l 2.72733,0.0185 -1.54131,1.2634 c -1.37254,1.12506 -2.02748,1.26368 -5.98112,1.26595 -5.09125,0.003 -4.7331,-0.3947 -5.3242,5.91092 -0.45464,4.84989 -0.65168,5.3933 -1.95891,5.40247 -0.61675,0.004 -1.37652,0.17772 -1.68838,0.38533 -0.35997,0.23963 -0.68687,3.94177 -0.89528,10.13911 -0.18055,5.36891 -0.4777,11.20663 -0.66033,12.97272 l -0.33206,3.21107 -2.66483,0 c -2.16329,0 -2.88726,-0.23677 -3.8467,-1.25805 z"
     id="path3526"
     inkscape:connector-curvature="0" /><path
     style="fill:#cccccc"
     d="m 170.54857,473.99004 c -1.94255,-0.68659 -2.40818,-1.15871 -3.50445,-3.55328 l -1.26425,-2.76147 1.81868,-2.21946 1.81867,-2.21945 -2.7138,-2.68009 c -2.13218,-2.1057 -2.96247,-3.41989 -3.87405,-6.13189 -0.63814,-1.89849 -1.27856,-3.74079 -1.42316,-4.09401 -0.17486,-0.42711 0.23921,-0.64221 1.23628,-0.64221 1.02297,0 1.94194,0.49689 2.89294,1.56423 1.32528,1.4874 1.56288,1.5568 4.83731,1.41287 l 3.44357,-0.15136 0.39442,-4.36705 c 0.21693,-2.40188 0.52433,-5.81204 0.68311,-7.57813 0.15878,-1.76609 0.53485,-3.21107 0.83572,-3.21107 0.36415,0 0.4496,1.28827 0.25561,3.85328 -0.22429,2.96563 -0.13781,3.85329 0.3754,3.85329 0.36674,0 1.3315,0.13269 2.1439,0.29486 1.26362,0.25225 1.93685,-0.12133 4.65825,-2.58489 l 3.18116,-2.87976 3.24098,0.52593 c 1.78254,0.28926 3.50313,0.52767 3.82353,0.52981 0.3204,0.002 1.07985,-1.22142 1.68768,-2.719 0.86416,-2.12915 2.12254,-3.66116 5.77104,-7.02588 l 4.66591,-4.30301 3.66495,0.73219 3.66495,0.73218 0,4.87579 0,4.87578 -1.47449,0.26193 c -1.19849,0.2129 -1.65867,0.7314 -2.4584,2.76998 -0.54115,1.37943 -0.91802,2.57318 -0.83748,2.65277 0.0805,0.0796 1.04521,0.85834 2.14372,1.73056 2.33059,1.85048 3.98958,2.01009 5.38005,0.51759 0.99497,-1.06797 0.99527,-1.06758 1.176,1.54685 l 0.18077,2.61509 -9.50477,9.49027 c -9.30773,9.29353 -9.56297,9.50126 -12.31245,10.02064 -1.54423,0.29171 -3.03545,0.75814 -3.31383,1.03651 -0.27998,0.27999 -3.46546,0.50614 -7.12917,0.50614 l -6.62305,0 -2.10079,1.7982 c -2.35862,2.01889 -2.35033,2.01748 -5.44046,0.92527 z m 31.74433,-16.01106 c 0.28172,-0.52639 1.21464,-1.24803 2.07316,-1.60364 1.30996,-0.5426 1.56095,-0.9301 1.56095,-2.40989 0,-2.24276 -2.31902,-5.30478 -4.0176,-5.3048 -1.59842,-2e-5 -5.56414,2.78573 -6.47603,4.54914 -0.65364,1.26399 -0.62853,1.65215 0.23109,3.57218 0.94689,2.11494 1.01123,2.15409 3.54032,2.15409 1.98686,0 2.69303,-0.21886 3.08811,-0.95708 z"
     id="path3528"
     inkscape:connector-curvature="0" /><path
     style="fill:#cccccc"
     d="m 197.90625,456.89128 c -0.59667,-0.24109 -1.22251,-0.96473 -1.39075,-1.60809 -0.23969,-0.91655 0.15267,-1.5931 1.81255,-3.1255 2.402,-2.21751 4.09153,-2.47904 5.25786,-0.81388 1.37077,1.95705 1.02523,3.44032 -0.99841,4.28585 -0.98901,0.41323 -1.7982,0.97943 -1.7982,1.25821 0,0.60732 -1.38437,0.60895 -2.88305,0.003 l 0,2e-5 z"
     id="path3530"
     inkscape:connector-curvature="0" /><path
     style="fill:#cccccc"
     d="m 210.2839,444.02546 c -0.8877,-0.98089 -0.8926,-1.13837 -0.0879,-2.82574 0.67762,-1.421 1.15115,-1.78696 2.31221,-1.78696 1.40099,0 3.71486,1.79894 3.67717,2.85885 -0.009,0.26436 -0.45105,1.00085 -0.98145,1.63664 -1.22423,1.46749 -3.6458,1.52518 -4.91999,0.11721 z"
     id="path3532"
     inkscape:connector-curvature="0" /><path
     style="fill:#cccccc"
     d="m 215.77169,440.31782 c -0.34994,-0.34994 -0.91637,-0.66152 -1.25874,-0.6924 -2.77202,-0.25005 -2.76541,-0.24714 -1.65003,-0.72644 0.56515,-0.24285 0.79635,-0.45769 0.51377,-0.47742 -0.31424,-0.022 -0.47681,-2.14037 -0.41861,-5.45477 0.0904,-5.14581 0.0451,-5.40299 -0.8991,-5.10332 -0.55927,0.1775 -0.99426,0.0756 -0.99426,-0.23283 0,-0.47187 1.46771,-0.80338 2.6973,-0.60923 0.21193,0.0335 0.33395,-0.11256 0.27115,-0.32449 -0.19607,-0.66172 2.68518,-5.15704 3.50768,-5.47267 0.42999,-0.165 0.6379,-0.53283 0.46203,-0.8174 -0.17588,-0.28457 -0.13273,-0.51899 0.0959,-0.52094 0.2286,-0.002 0.41564,-2.90715 0.41564,-6.45602 0,-7.02775 -0.12226,-7.31877 -3.21742,-7.65853 -0.73237,-0.0804 -1.63744,-0.56446 -2.01126,-1.07569 -0.37383,-0.51124 -0.68671,-0.71193 -0.69531,-0.446 -0.009,0.26594 -0.25695,0.0688 -0.5519,-0.43809 -0.37867,-0.65076 -0.86481,-0.81943 -1.65413,-0.57393 -1.10648,0.34414 -1.10789,0.33653 -0.13913,-0.74814 0.5383,-0.6027 0.7695,-1.10285 0.51377,-1.11145 -0.25572,-0.009 -0.0585,-0.2523 0.43821,-0.54157 0.49675,-0.28928 1.11521,-0.39491 1.37438,-0.23474 0.60722,0.37529 3.16077,-0.77676 2.84701,-1.28444 -0.30725,-0.49713 1.24506,-1.09935 1.85772,-0.72071 0.25707,0.15888 0.46741,0.0936 0.46741,-0.14512 0,-1.13115 2.31836,-0.23043 3.89296,1.51247 1.49627,1.65619 1.75852,2.32054 1.75852,4.45486 0,2.51384 1.07608,6.00297 1.66862,5.41043 0.17362,-0.17362 0.17586,-0.68 0.005,-1.12529 -0.22711,-0.59183 -0.0862,-0.72348 0.52385,-0.48939 0.56543,0.21698 1.58987,-0.44592 3.17693,-2.05571 l 2.34239,-2.37596 -0.33223,-3.37813 c -0.36242,-3.68499 -0.68026,-4.66341 -0.74968,-2.30777 l -0.0442,1.4985 -0.454,-1.52064 c -0.31845,-1.06662 -0.26692,-1.63952 0.1726,-1.91878 0.3645,-0.23159 0.39849,-0.40142 0.0813,-0.406 -1.09461,-0.0158 -2.76973,-2.11921 -3.32248,-4.17199 -0.31173,-1.15767 -0.46369,-2.20794 -0.3377,-2.33393 0.18658,-0.18658 18.72153,-2.74983 19.88411,-2.74983 0.18762,0 0.63097,3.3583 0.98522,7.46288 l 0.6441,7.46288 -3.72042,3.45476 c -2.04622,1.90012 -4.28556,3.57036 -4.97629,3.71164 -0.69074,0.14129 -3.88261,2.33766 -7.09305,4.88083 l -5.83717,4.62394 -0.024,5.55252 c -0.0132,3.05388 -0.28919,7.15815 -0.61328,9.12059 l -0.58925,3.56807 -3.61184,2.31082 c -3.88505,2.48563 -4.42394,2.65268 -5.40205,1.67457 z"
     id="path3534"
     inkscape:connector-curvature="0" /><path
     style="fill:#cccccc"
     d="m 255.33683,437.01768 c -1.97491,-2.31044 -2.02951,-2.48084 -2.25939,-7.05065 l -0.23558,-4.68298 2.36787,-2.82574 2.36788,-2.82575 -0.26518,-5.79126 -0.26519,-5.79127 1.54132,-1.97775 c 1.48492,-1.9054 1.67926,-1.98825 5.31149,-2.26444 2.80187,-0.21306 3.95649,-0.5269 4.49556,-1.22198 0.39895,-0.51441 2.05473,-3.64436 3.6795,-6.95546 4.07189,-8.29804 4.50941,-8.18581 6.99501,1.79444 1.47533,5.92379 1.33567,7.27906 -0.70801,6.87033 -1.2407,-0.24814 -1.50794,-0.0458 -2.32084,1.75685 -0.90319,2.00291 -0.90016,2.057 0.17971,3.20646 l 1.09839,1.16919 -5.43846,9.45471 -5.43847,9.45472 0.4783,2.96993 0.47829,2.96994 -2.60704,1.72663 c -1.5684,1.03875 -3.56803,1.85714 -5.01919,2.0542 -2.37678,0.32275 -2.44182,0.29284 -4.43597,-2.04012 z"
     id="path3536"
     inkscape:connector-curvature="0" /></svg>