<?xml version="1.0" encoding="UTF-8" standalone="no"?>
<!-- Generator: Adobe Illustrator 20.0.0, SVG Export Plug-In . SVG Version: 6.00 Build 0)  -->

<svg
   xmlns:dc="http://purl.org/dc/elements/1.1/"
   xmlns:cc="http://creativecommons.org/ns#"
   xmlns:rdf="http://www.w3.org/1999/02/22-rdf-syntax-ns#"
   xmlns:svg="http://www.w3.org/2000/svg"
   xmlns="http://www.w3.org/2000/svg"
   xmlns:sodipodi="http://sodipodi.sourceforge.net/DTD/sodipodi-0.dtd"
   xmlns:inkscape="http://www.inkscape.org/namespaces/inkscape"
   version="1.1"
   id="Layer_1"
   x="0px"
   y="0px"
   viewBox="0 0 331 485"
   style="enable-background:new 0 0 331 485;"
   xml:space="preserve"
   inkscape:version="0.91 r"
   sodipodi:docname="europe-middle-east-africa.svg"><metadata
     id="metadata155"><rdf:RDF><cc:Work
         rdf:about=""><dc:format>image/svg+xml</dc:format><dc:type
           rdf:resource="http://purl.org/dc/dcmitype/StillImage" /></cc:Work></rdf:RDF></metadata><defs
     id="defs153" /><sodipodi:namedview
     pagecolor="#ffffff"
     bordercolor="#666666"
     borderopacity="1"
     objecttolerance="10"
     gridtolerance="10"
     guidetolerance="10"
     inkscape:pageopacity="0"
     inkscape:pageshadow="2"
     inkscape:window-width="1920"
     inkscape:window-height="1028"
     id="namedview151"
     showgrid="false"
     inkscape:zoom="1.9463917"
     inkscape:cx="178.69714"
     inkscape:cy="215.33725"
     inkscape:window-x="0"
     inkscape:window-y="0"
     inkscape:window-maximized="1"
     inkscape:current-layer="Layer_1" /><style
     type="text/css"
     id="style3">
	.st0{opacity:0.2;}
</style>
	<g
     class="st0"
     id="g5"
     transform="translate(1.5413133,1.0275485)"
     style="opacity:0.2;fill:#000000"><path
       id="estonia_3_"
       d="m 184.4,115.2 -6.7,-0.2 -4.2,2.6 0,1.9 2.7,2.6 8.6,1.4 -0.4,-8.3 0,0 z"
       inkscape:connector-curvature="0"
       style="fill:#000000" /><path
       id="algeria_1_"
       d="m 131.9,215.3 -4.9,-1.7 -20.3,3.8 -4.4,3.3 2.7,14 -8.1,0.4 -4.9,7.8 -11.6,2.7 0,5.7 38.1,29.1 6.5,0.6 21.6,-16.8 -2.2,-2.7 -4.1,-0.6 -2.4,-4.1 0,-17.1 -1.7,-1.7 0.2,-4.3 -4.3,-4.3 -0.6,-4.7 1.9,-1.3 -0.8,-4.9 -0.7,-3.2 0,0 z"
       inkscape:connector-curvature="0"
       style="fill:#000000" /><path
       id="morocco_1_"
       d="m 101.4,221.1 -13.8,0 -2.7,6 -6.2,3 -5.1,13.9 -10,6 -14.2,23 13.7,-0.2 0.6,-6.8 3.5,0 0,-9.3 12.3,0 0.2,-11.9 11.6,-2.7 4.9,-7.9 7.5,-0.2 -2.3,-12.9 0,0 z"
       inkscape:connector-curvature="0"
       style="fill:#000000" /><path
       id="mauretania_1_"
       d="m 49.5,274.1 2.6,3.5 -0.6,14.7 3.8,-2.7 2.7,-0.6 3.8,1.3 4.3,6 4.1,-2.7 19.7,-0.2 -4.9,-33 5.3,0 -9.8,-7.4 0,4.9 -12.2,0 0,9.3 -3.6,0 -0.5,6.8 -14.7,0.1 0,0 z"
       inkscape:connector-curvature="0"
       style="fill:#000000" /><path
       id="senegal_1_"
       d="m 55.7,290.4 -4.7,3.5 -1.1,1.9 -0.4,1.9 1.8,1.2 5.7,-0.1 3.7,-1 0.5,1.8 -0.4,2.4 3.6,1.8 0.7,0.8 4.7,0.1 0.1,-2 -4.3,-5.1 -4.8,-6.5 -3,-1.2 -2.1,0.5 0,0 z"
       inkscape:connector-curvature="0"
       style="fill:#000000" /><path
       id="gambia_1_"
       d="m 51.9,299.9 -0.1,1.3 8.2,-0.1 0.5,-1.2 -0.1,-1.2 -2.4,1 -6.1,0.2 0,0 z"
       inkscape:connector-curvature="0"
       style="fill:#000000" /><path
       id="casamance_1_"
       d="m 51.8,302.2 1.4,3.6 0.8,-2.3 10,1.1 -4.3,-2.3 -7.9,-0.1 0,0 z"
       inkscape:connector-curvature="0"
       style="fill:#000000" /><path
       id="bissau_1_"
       d="m 53.9,307.3 1.7,3.3 4.7,-4.1 0,-1.2 -5.5,-0.8 -0.9,2.8 0,0 z"
       inkscape:connector-curvature="0"
       style="fill:#000000" /><path
       id="guinee_1_"
       d="m 56.1,311.4 3.6,5.6 4.8,-4.1 4.9,-0.2 4.1,5.4 3.5,2.3 1.3,-2.5 1.2,-0.6 -0.1,-5.5 -2.3,-6.6 -7,0.7 -8.6,-0.7 0,2.3 -5.4,3.9 0,0 z"
       inkscape:connector-curvature="0"
       style="fill:#000000" /><path
       id="sierra_leone_1_"
       d="m 60.3,317.6 6.7,6.6 4.8,-5.9 -3,-4.8 -4.2,0.5 -4.3,3.6 0,0 z"
       inkscape:connector-curvature="0"
       style="fill:#000000" /><path
       id="liberia_1_"
       d="m 67.8,324.9 13.1,8.7 -0.4,-6.7 -3.9,-4.7 -3.8,-3.5 -5,6.2 0,0 z"
       inkscape:connector-curvature="0"
       style="fill:#000000" /><path
       id="ivoire_1_"
       d="m 82,334 5.1,-3.6 6.3,-1.1 6.5,1.4 -3.3,-5 -1,-3.1 1,-9.1 -5.9,0.2 -2.6,-2.5 -5.5,0.1 -2.6,0.5 0.2,6.1 -1.4,0.6 -1.7,3.1 4.3,5 0.6,7.4 0,0 z"
       inkscape:connector-curvature="0"
       style="fill:#000000" /><path
       id="mali_1_"
       d="m 66.9,296.9 3.7,-2.5 20.4,-0.1 -4.8,-32.9 5.4,-0.1 26.2,19.9 3.5,0.5 -1.3,11.1 -16.5,1.4 -12.7,9.4 -2.3,6.5 -8.8,0.4 -2.3,-6.5 -6.7,0.5 0.2,-2.2 -4,-5.4 0,0 z"
       inkscape:connector-curvature="0"
       style="fill:#000000" /><path
       id="burkina_1_"
       d="m 104.1,295.1 4.3,-0.4 7.2,10 -6.6,5 -4.8,-1.2 -6.5,0.1 -1.1,3.8 -5.4,0.2 -1.4,-2 1.9,-6.1 12.4,-9.4 0,0 z"
       inkscape:connector-curvature="0"
       style="fill:#000000" /><path
       id="niger_1_"
       d="m 116.4,304.3 3,-0.1 2.7,-4.2 4.7,-0.8 4.9,3 10.5,0.2 8.1,-3.3 3,-2.6 0.2,-3.5 5.6,-5.7 1.4,-12.5 -3.7,-7.8 -9.6,-2.3 -22,17.2 -3.1,-0.2 -1.3,11.9 -11.2,1.1 6.8,9.6 0,0 z"
       inkscape:connector-curvature="0"
       style="fill:#000000" /><path
       id="ghana_1_"
       d="m 96.6,322.2 1.3,3.1 3.5,5.5 1.9,-0.1 5.3,-3 -0.4,-17.1 -4.1,-1.2 -5.7,0.1 -1.8,12.7 0,0 z"
       inkscape:connector-curvature="0"
       style="fill:#000000" /><path
       id="togo_1_"
       d="m 109.6,327.3 3.2,-1.9 -0.1,-12.4 -2,-3.3 -1.3,1.1 0.2,16.5 0,0 z"
       inkscape:connector-curvature="0"
       style="fill:#000000" /><path
       id="benin_1_"
       d="m 113.8,325.2 2.5,0 0.1,-7.2 3.2,-4.7 -0.1,-8.1 -2.9,-0.1 -5,3.9 2,3.9 0.2,12.3 0,0 z"
       inkscape:connector-curvature="0"
       style="fill:#000000" /><path
       id="nigeria_1_"
       d="m 117.2,325.1 4.7,0.2 5.6,6.3 2.7,0.7 2.2,-1.1 3.2,-0.5 1.1,-4.5 4.4,-3 4.8,-0.2 8.8,-16.2 -0.1,-3.7 -4.1,-3.1 -8.1,3.6 -10.9,-0.1 -5.3,-3.3 -3.7,0.8 -1.9,3.3 -0.1,9.6 -3.1,4.4 -0.2,6.8 0,0 z"
       inkscape:connector-curvature="0"
       style="fill:#000000" /><path
       id="tunisia_1_"
       d="m 133.1,215.1 6.6,-2.6 2.2,1.4 0.1,1.7 -1.1,1.3 0.1,2.4 1.1,0.6 0,4.2 -1.2,1.9 0.1,1.3 4.4,1.6 -3.6,5.5 -1.4,-0.1 -0.2,4.4 -1.6,0.2 -1.3,-1.2 0.4,-4.5 -4.3,-4.2 -0.6,-3.7 2.2,-1.7 -1.9,-8.5 0,0 z"
       inkscape:connector-curvature="0"
       style="fill:#000000" /><path
       id="libya_1_"
       d="m 139.2,239.8 1.9,-0.4 0.6,-4.3 1,0 3.8,-6.2 9.4,2.7 2.5,3.9 9.2,4.2 4.8,-2 -0.5,-2 -2.2,-2 0.2,-1.4 3.5,-2.9 6.8,0 2.6,3.5 5.4,0.8 0.7,44.1 -4.1,-0.1 -24.2,-12.7 -2.6,1.4 -10,-2.5 -2.7,-3.6 -3.9,-0.6 -2,-3.6 0,-16.3 -0.2,0 z"
       inkscape:connector-curvature="0"
       style="fill:#000000" /><path
       id="egypt_1_"
       d="m 189.3,234 3.2,0.1 6.2,1.7 3,0.1 3.7,-3.1 1.7,0 3.1,1.7 3.9,0 0.7,0 2.5,7.2 0.7,2.3 0.6,3.5 -1.2,0.8 -2,-1.1 -2.4,-7.6 -2.2,-0.1 -0.1,2.6 1.4,4.4 11.2,13.9 0.2,6 -3.2,3.7 -30.6,-0.4 -0.4,-35.7 0,0 z"
       inkscape:connector-curvature="0"
       style="fill:#000000" /><path
       id="chad_1_"
       d="m 154.5,297.2 0.1,-3.6 5.6,-5.5 1.6,-13.5 -3.8,-7.2 2.6,-1.3 25.6,13.3 -0.1,13 -4.5,3.8 0,6.7 3,5.7 -5.3,0 -8.6,8.5 -0.2,2.6 -6.3,-0.1 -0.1,1.2 -3.6,-0.5 -2.5,-4.7 -1.9,-1 0.2,-1.4 2.4,-1.8 0,-8.4 -3.2,-0.5 -3.9,-2.9 2.9,-2.4 0,0 0,0 z"
       inkscape:connector-curvature="0"
       style="fill:#000000" /><path
       id="sudan_1_"
       d="m 187.2,292.9 0.2,-14.1 3,0.1 -0.4,-7.9 30.8,0.2 4.4,-4.4 9.6,15.2 -5.3,6.1 0,9.4 -8.2,17.7 -2.9,1.2 1,4.9 3.5,0 4.8,6.9 -3.8,0.5 -1,1.8 -0.1,2.5 -11.5,-0.2 -1.2,-1.8 -8,-0.5 -14.7,-15.2 1.4,-0.8 0.4,-3.6 -3.6,-2 -3.2,-6.3 0.2,-5.9 4.6,-3.8 0,0 z"
       inkscape:connector-curvature="0"
       style="fill:#000000" /><path
       id="cameroon_1_"
       d="m 136.6,331 3.8,3.6 -0.2,5.5 21.1,-0.5 1.7,-1.9 -6.1,-6.6 -1,-2.4 3.8,-7.2 -2.6,-4.8 -2.2,-1.2 0,-2.4 2.5,-1.7 0.1,-7.5 -2,-0.2 0,3.9 -8.8,16.6 -5.4,0.2 -3.7,2.5 -1,4.1 0,0 z"
       inkscape:connector-curvature="0"
       style="fill:#000000" /><path
       id="eritrea_1_"
       d="m 230.8,295.6 -0.2,-7 4.8,-5.5 1.3,1 2.4,7.8 11.2,8.4 -2,2.5 -8.1,-7 -9.4,0 0,-0.2 z"
       inkscape:connector-curvature="0"
       style="fill:#000000" /><path
       id="djibouti_1_"
       d="m 248.5,303.7 -0.7,4.1 4.8,-0.1 0.1,-5.9 -1.8,-1.1 -2.4,3 0,0 z"
       inkscape:connector-curvature="0"
       style="fill:#000000" /><path
       id="ethiopia_1_"
       d="m 222.2,316 8.7,-19.4 8.6,0 7.6,6.7 -0.6,5.5 6,0 0.6,3.3 9.6,5.7 6,0.2 -11.2,12.1 -15.5,4.9 -3.8,0 -6.8,-5.9 -2.7,-1.2 -5.3,-7.8 -3.5,0 -0.4,-3.6 2.7,-0.5 0,0 z"
       inkscape:connector-curvature="0"
       style="fill:#000000" /><path
       id="somaliland_1_"
       d="m 253.5,307.9 4.9,3.3 1.4,-0.1 12.1,-4.2 1.4,4.4 -1,3.7 -2.6,2 -6.6,-0.5 -9.3,-5.7 -0.3,-2.9 0,0 z"
       inkscape:connector-curvature="0"
       style="fill:#000000" /><path
       id="soqotra_1_"
       d="m 282.1,301.5 2.5,2.9 3.5,-2 1.2,-0.5 -1.6,-1.6 -3,1 -2.6,0.2 0,0 z"
       inkscape:connector-curvature="0"
       style="fill:#000000" /><path
       id="somalia_1_"
       d="m 273,306.7 5.3,-2 1.8,1.1 -0.2,4.7 -4.8,13.7 -26,28 -3,-2 -0.2,-11.8 3.9,-4.5 8.4,-2.5 12.2,-12.9 3.2,-2.9 1,-4.2 -1.6,-4.7 0,0 z"
       inkscape:connector-curvature="0"
       style="fill:#000000" /><path
       id="centrafrique_1_"
       d="m 158,330.6 5.6,6 2.2,-2.9 3.5,0.1 0.7,-2.7 3.5,-2.2 7.2,4.9 4.2,-4.1 16,0.7 -14.9,-15.2 2,-1.2 0.2,-2.7 -3.3,-1.6 -4.9,0 -8,7.9 -0.2,3.2 -6.3,-0.2 -0.2,1.4 -4.2,-0.5 -3.7,7 0.6,2.1 0,0 z"
       inkscape:connector-curvature="0"
       style="fill:#000000" /><path
       id="sao_tome_1_"
       d="m 128.1,346.3 1.3,-0.7 1.1,0.8 -1.1,1.6 -1.2,-0.5 -0.1,-1.2 0,0 z"
       inkscape:connector-curvature="0"
       style="fill:#000000" /><path
       id="principe_1_"
       d="m 130.9,342 2,-0.4 0.7,1.3 -1.1,1.1 -1.1,-0.1 -0.5,-1.9 0,0 z"
       inkscape:connector-curvature="0"
       style="fill:#000000" /><path
       id="bioko_1_"
       d="m 135.4,334.7 -0.6,2.4 1.7,1 1.6,-1.2 -0.6,-2.4 -2.1,0.2 0,0 z"
       inkscape:connector-curvature="0"
       style="fill:#000000" /><path
       id="gabon_1_"
       d="m 146.9,340.9 -0.1,3 -6.7,-0.1 -4.2,8 9.7,10.6 2.4,-2 -0.1,-2 -1.7,-0.7 0,-1.4 3.7,-2.4 3.3,2.5 3.6,0.1 -0.1,-12.5 -5.7,-0.2 -0.1,-2.6 -4,-0.3 0,0 z"
       inkscape:connector-curvature="0"
       style="fill:#000000" /><path
       id="equatorial_guinea_1_"
       d="m 140.4,341 -0.1,1.7 5.4,0.2 -0.1,-1.9 -5.2,0 0,0 z"
       inkscape:connector-curvature="0"
       style="fill:#000000" /><path
       id="congo_1_"
       d="m 152.4,340.8 -0.1,1.8 5.7,0.1 0.2,14.8 -5.3,-0.1 -3,-2.4 -2.4,1.3 -0.1,0.6 1.2,0.6 0.4,3 -3.2,2.7 0.7,1.4 3.6,-2.7 1.7,0 0.6,1.7 2.3,1 7.3,-6.2 -0.1,-4.5 1.6,-3.7 4.7,-3.5 1.2,-11.7 -3.3,0 -3.8,5.3 -9.9,0.5 0,0 z"
       inkscape:connector-curvature="0"
       style="fill:#000000" /><path
       id="cabinda_1_"
       d="m 147,365.5 2,2.7 2.6,-2.5 -0.8,-2.6 -0.7,0 -3.1,2.4 0,0 z"
       inkscape:connector-curvature="0"
       style="fill:#000000" /><path
       id="drc_1_"
       d="m 150.5,368.5 12.3,-0.2 2.5,3.6 -0.1,2.6 1,0.8 6.1,0 1.8,-3.5 2.5,0 1.1,1.1 3.5,-0.1 1,12.1 6,0.2 0,1 15.9,7.2 0.7,1.4 3.3,0 -0.4,-5 -6,-2.9 0.4,-3.8 2.6,-6.1 6,-0.2 -5.1,-16.8 0.1,-7.2 8,-12.5 0.1,-1.8 -1.2,-0.6 0,-3.5 -1.4,-0.1 -1.4,-1.9 -24.2,-1.1 -4.4,4.3 -7.3,-4.8 -2.5,1.6 -1.9,15.6 -4.7,3.6 -1.4,3.1 0.2,4.7 -8.6,6.7 -2.3,-1 0.2,1.3 -2.4,2.2 0,0 z"
       inkscape:connector-curvature="0"
       style="fill:#000000" /><path
       id="rwanda_1_"
       d="m 208.3,349.6 3.3,3.1 -0.1,3.3 -5.3,0.1 0,-3.7 2.1,-2.8 0,0 z"
       inkscape:connector-curvature="0"
       style="fill:#000000" /><path
       id="burundi_1_"
       d="m 206.4,357.1 5.1,-0.1 -1.3,4.4 -1.3,1.1 -1.6,0 -1.1,-3 0.2,-2.4 0,0 z"
       inkscape:connector-curvature="0"
       style="fill:#000000" /><path
       id="uganda_1_"
       d="m 208.9,348.6 3.6,3.3 2.3,-1.4 6.1,-1 1.1,0.1 0.4,-2.4 3.5,-7.3 -2.9,-6.1 -9.4,0 0,2.5 1.3,1.2 -0.2,2.5 -5.8,8.6 0,0 z"
       inkscape:connector-curvature="0"
       style="fill:#000000" /><path
       id="kenya_1_"
       d="m 223.8,333.6 3.2,6.2 -3.8,8 -0.5,2.4 19,11.8 5.9,-9.3 -3,-2.4 0,-12.2 3.7,-4.1 -6,2 -4.5,0 -7,-6 -2.3,-1 -4.2,0.4 -0.7,1.2 0.2,3 0,0 z"
       inkscape:connector-curvature="0"
       style="fill:#000000" /><path
       id="tanzania_1_"
       d="m 223.6,387.2 20.9,-2.5 -4.7,-9.1 -0.2,-8.7 1.6,-4.2 -19.8,-12.4 -6.2,1.1 -2.2,1.6 -0.2,3.6 -1.4,5 -1.4,1.8 -2.2,0.2 3.9,13.9 6.6,3.1 4.5,0.1 0.8,6.5 0,0 z"
       inkscape:connector-curvature="0"
       style="fill:#000000" /><path
       id="zambia_1_"
       d="m 180.4,403.1 3.8,5.3 5.9,0.4 2,1.2 6.1,0.1 5.3,-7.4 14.8,-6.6 1.3,-5.9 -1.7,-8.4 -7.8,-4.4 -5.1,0.4 -2.6,5.7 0.1,2.6 6.1,3 0.4,6.5 -5.3,0.2 -1.3,-2.2 -14.5,-6.2 -0.5,4.8 -6.8,0.2 -0.2,10.7 0,0 z"
       inkscape:connector-curvature="0"
       style="fill:#000000" /><path
       id="angola_1_"
       d="m 149.5,369.7 4.1,15.2 -0.1,4.8 -6,6.5 -1,10.4 22.9,0.2 7.4,2.7 6.2,-0.8 -3.6,-4.5 0,-12.8 7,-0.2 0,-5 -5.7,-0.2 -1.2,-11.8 -2.4,0 -1.3,-1.2 -1.4,0.1 -1.9,3.7 -7,0 -1.7,-1.7 0.5,-2.4 -2,-2.9 -12.8,0 0,-0.1 z"
       inkscape:connector-curvature="0"
       style="fill:#000000" /><path
       id="malawi_1_"
       d="m 219.5,396.8 3.7,3.8 -0.1,5 0.7,2.2 4.9,-5.4 -0.6,-6.8 -2.6,-2 -2.4,-11.9 -4.1,-0.1 1.8,8.6 -1.3,6.6 0,0 z"
       inkscape:connector-curvature="0"
       style="fill:#000000" /><path
       id="mozambique_1_"
       d="m 212.3,437.3 3.2,2.6 7.5,-4.7 1.2,-6.8 0,-11.3 12.2,-9.9 2,0.1 7.4,-7 -1.2,-14.6 -19.5,2.5 0.6,4.4 3.3,2.6 0.8,7.9 -6.6,6.5 -1.6,-3.6 0.2,-4.8 -3.8,-4.1 -9.3,4.3 8.6,4.4 0.2,12.8 -5.7,8.5 0.5,10.2 0,0 z"
       inkscape:connector-curvature="0"
       style="fill:#000000" /><path
       id="zimbabwe_1_"
       d="m 192.6,412.2 10.8,12.1 8.2,2.2 5.5,-8.6 -0.5,-11.5 -9,-4.7 -3.3,1.6 -5,7.6 -6.9,-0.1 0.2,1.4 0,0 z"
       inkscape:connector-curvature="0"
       style="fill:#000000" /><path
       id="namibia_1_"
       d="m 158.9,447.7 4.1,0.2 2.4,2.4 5.6,0.1 1.3,-15.9 0,-10.4 3.6,-0.7 1.3,-10.9 9.1,-0.2 3.2,-2.6 -5.4,-0.2 -7.4,1 -7.9,-2.9 -22.3,0 0.6,6.3 7.4,11 -1.3,5.6 0.1,3 5.6,14.2 0,0 z"
       inkscape:connector-curvature="0"
       style="fill:#000000" /><path
       id="botswana_1_"
       d="m 173.3,434.8 2.5,0.8 -0.4,7.3 2.6,0.4 6.1,-5.5 7.3,0.8 1.9,-4.9 9.2,-8.4 -11.1,-12.8 -0.1,-2.2 -1.2,-0.4 -3.3,3.1 -8.7,0.2 -1.2,10.9 -3.5,0.8 -0.1,9.9 0,0 z"
       inkscape:connector-curvature="0"
       style="fill:#000000" /><path
       id="swaziland_1_"
       d="m 212,438.1 -3,0.5 -1.3,3.6 2.3,2.2 2.7,0 2.4,-3.3 -3.1,-3 0,0 z"
       inkscape:connector-curvature="0"
       style="fill:#000000" /><path
       id="lesotho_1_"
       d="m 195.8,451.7 3.6,-2.9 1.7,0.1 2,2.6 -0.2,2.6 -3.5,1.3 0,1 -3.8,-0.2 -1,-2.9 1.2,-1.6 0,0 z"
       inkscape:connector-curvature="0"
       style="fill:#000000" /><path
       id="south_africa_1_"
       d="m 204,425.7 -9.4,8.7 -2.3,5.4 -7.5,-1 -6.2,5.5 -4.2,-0.4 0.4,-7.6 -1.4,-0.5 -1.1,15.6 -7.3,-0.1 -2.3,-2.6 -3.2,0 3,8.5 5.3,5 -3.7,4.4 2.4,5.5 5.6,2.2 4.5,-3.8 12.9,0.1 1,-1.2 5.7,-1 19.4,-19.2 -0.1,-6.1 -2,2.6 -3.1,0 -3.8,-3.1 1.9,-4.8 3.3,-0.7 -0.2,-9.8 -7.6,-1.6 0,0 z m -4.6,22.1 1.8,-0.1 3,3.2 -0.1,3.7 -3.5,1.8 -0.2,1.2 -5.3,0 -1.7,-3.9 1.4,-2.9 4.6,-3 0,0 z"
       inkscape:connector-curvature="0"
       style="fill:#000000" /><path
       id="mauritius_1_"
       d="m 298.1,420.2 -1.8,2.4 0.4,2.5 3.8,-3.1 -2.4,-1.8 0,0 z"
       inkscape:connector-curvature="0"
       style="fill:#000000" /><path
       id="reunion_1_"
       d="m 291.4,424.3 -2.7,0.1 -0.2,2.4 1.8,0.4 2.7,-1.3 -1.6,-1.6 0,0 z"
       inkscape:connector-curvature="0"
       style="fill:#000000" /><path
       id="madagascar_1_"
       d="m 273.4,389 -2.5,6.1 -4.4,7.6 -7.6,0.6 -3.2,3.8 0.6,11.7 -4.8,5.5 0.6,9.3 3.9,4.5 4.8,-0.6 4.8,-3.5 -1.1,-5.5 10.9,-18.9 -2.2,-2.4 2.2,-4.5 2.4,0.7 0.7,-1.8 -2.2,-9.3 -1.3,-3.8 -1.6,0.5 0,0 z"
       inkscape:connector-curvature="0"
       style="fill:#000000" /><path
       id="grande_comore_1_"
       d="m 255.9,387 0.6,1.8 2.4,0.4 1,-2.4 -4,0.2 0,0 z"
       inkscape:connector-curvature="0"
       style="fill:#000000" /><path
       id="mayotte_1_"
       d="m 259.4,390.7 1,2 1.4,0 0.7,-2.5 -3.1,0.5 0,0 z"
       inkscape:connector-curvature="0"
       style="fill:#000000" /><path
       id="aldabra_1_"
       d="m 285.3,371.6 -0.7,1.4 2,1.7 1.4,-1.7 -2.7,-1.4 0,0 z"
       inkscape:connector-curvature="0"
       style="fill:#000000" /><path
       id="praslin_1_"
       d="m 295.6,360.6 -2.2,1.4 1.7,2.5 2.2,0 -1.7,-3.9 0,0 z"
       inkscape:connector-curvature="0"
       style="fill:#000000" /><path
       id="mahe_1_"
       d="m 296.4,367 -1.4,1.7 1.1,1.7 2,0.4 0.2,-3.5 -1.9,-0.3 0,0 z"
       inkscape:connector-curvature="0"
       style="fill:#000000" /><path
       id="flores_3_"
       d="m 10.9,202.8 -1.7,1.7 2.9,1.7 0.4,-2.3 -1.6,-1.1 0,0 z"
       inkscape:connector-curvature="0"
       style="fill:#000000" /><path
       id="terceira_1_"
       d="m 19.8,201.8 -1.9,1.3 1.7,1.3 2.6,-0.7 -2.4,-1.9 0,0 z"
       inkscape:connector-curvature="0"
       style="fill:#000000" /><path
       id="pico_1_"
       d="m 21,206.4 -1,2.6 1.3,1.7 1.7,-1.3 -2,-3 0,0 z"
       inkscape:connector-curvature="0"
       style="fill:#000000" /><path
       id="sao_miguel_1_"
       d="m 28.8,211.6 -0.6,1.7 1,1 2.6,-1.7 -3,-1 0,0 z"
       inkscape:connector-curvature="0"
       style="fill:#000000" /><path
       id="madeira_1_"
       d="m 53.5,226 -1.3,1.7 1.3,1.7 1.9,-1 -1.9,-2.4 0,0 z"
       inkscape:connector-curvature="0"
       style="fill:#000000" /><path
       id="lanzarote_1_"
       d="m 62.3,246.6 -2.2,1.2 1,1 1.2,-2.2 0,0 z"
       inkscape:connector-curvature="0"
       style="fill:#000000" /><path
       id="gran_canaria_1_"
       d="m 55,246.9 -2.6,0.7 1.3,1.9 1.9,0 -0.6,-2.6 0,0 z"
       inkscape:connector-curvature="0"
       style="fill:#000000" /><path
       id="tenerife_1_"
       d="m 48.9,245 -1.7,1.7 2.3,1.9 1.3,-3 -1.9,-0.6 0,0 z"
       inkscape:connector-curvature="0"
       style="fill:#000000" /><path
       id="santo_antao_1_"
       d="m 28.8,290.6 -2.3,1.3 1.7,1.3 1.9,-1 -1.3,-1.6 0,0 z"
       inkscape:connector-curvature="0"
       style="fill:#000000" /><path
       id="boa_vista_1_"
       d="m 34.3,293.2 -1.4,1.3 1.1,1.9 2.5,-1.2 -2.2,-2 0,0 z"
       inkscape:connector-curvature="0"
       style="fill:#000000" /><path
       id="santiago_1_"
       d="m 31.1,296.9 -1.9,1.2 2,2.7 1.7,-0.8 -1.8,-3.1 0,0 z"
       inkscape:connector-curvature="0"
       style="fill:#000000" /><path
       id="novaya_zemlya_south_1_"
       d="m 237.5,35.9 5.6,0.6 1.8,6.5 4.8,5 -1.7,3.3 -2.9,0 -2.6,-3.1 -6,-0.2 -2.5,-3.3 0,-2.3 3.7,-1.1 -0.2,-5.4 0,0 z"
       inkscape:connector-curvature="0"
       style="fill:#000000" /><path
       id="russia_3_"
       d="m 309.4,32.8 -10.2,-3.6 -4.2,3.6 -6.3,-7.3 -1.2,2.7 6.9,21.7 1.8,0.6 4.8,-2.4 2.4,1.8 0,3.9 -4.5,-1.8 -2.7,2.2 1.8,3.9 -1.6,10.3 -9.3,1 -0.6,-3.3 5.4,-3.3 1.2,-9.1 -6,-7.9 -2.1,-13.6 -9.6,-1.6 -1,4.9 1.8,2.4 -3.9,3.3 1.6,9.1 5.7,2.4 1.2,6.7 -5.7,-3.6 -14.7,-2.7 -1.8,4.9 -11.7,4.2 -1.8,-3 -15.3,8.5 -0.2,5.7 -6,1 1.8,-4.2 0,-4.2 -6,-2.2 -3.9,1.6 3.3,6.3 2.4,4.2 0,3.3 -4.5,-1 -1,-1 -4.5,4.9 2.4,4.2 -10.2,-0.2 3.3,4.3 -1,1.8 -5.4,0 -3.9,-2.7 -1,-7.5 -6.3,-2.4 0,-3 13.3,2.7 7.2,0.6 3,-4.5 -2.7,-4.9 -19.3,-7.5 -6.6,1.7 -2.3,1.9 0.7,4.5 2.9,0.5 -0.6,7 8.7,20.4 -6.3,9.9 -0.5,2.3 3.2,2.3 -2.9,1.9 -1.9,0 0.4,8.8 2.6,3.7 0,3.6 3.3,0.4 5.1,1.9 5.5,7.5 0,2 -1.8,3.1 4.1,-0.2 3.9,1.2 5.4,7.6 13.3,1.2 -0.6,9.1 -4.5,3.9 1,1.6 -4.5,4.9 -1.2,4.5 2.7,3.9 8.7,3 3.6,-2.2 23.1,8.7 1,-2.4 -4.8,-4.5 0,-5.7 -3,-1 0.6,-4.9 4.8,-5.7 -8.6,-6.5 0.6,-9 9.2,-6.1 10.8,0.6 1.8,3.3 11.1,0.6 8.1,-4.5 -4.2,-4.5 1,-8.5 21,-10.3 16.1,7.3"
       inkscape:connector-curvature="0"
       style="fill:#000000" /><path
       id="russia_2_"
       d="m 313.6,7.7 -9,12.4 0,5.1 9.6,3.9"
       inkscape:connector-curvature="0"
       style="fill:#000000" /><path
       id="kazakhstan_2_"
       d="m 321,133 -16.5,-7.4 -20.2,9.9 -0.6,7 4.8,5.5 -9.2,5.3 -11.9,-0.2 -2.5,-3.7 -9.3,-0.5 -8.8,5.7 -0.2,7.8 8.2,6.5 0,0 4.9,-2.2 5.5,-0.2 0.4,8.4 -3.2,0 -2.4,3.9 3.2,5.3 4.8,2.6 0.5,3.1 1.8,-0.6 1.6,-1.9 2.6,0.6 1.3,2.6 3.3,0 0,-3.5 -2,-6.1 -1,-4.9 6,-2.6 8.1,1.3 5.1,5.1 11.5,-1.1"
       inkscape:connector-curvature="0"
       style="fill:#000000" /><path
       id="turkmenistan_2_"
       d="m 309,200.9 -16.5,-10.8 -0.7,-3.8 -6.2,0 -2.7,5.1 -2.7,0 -4.9,0.1 0,0 -0.7,3.1 -5,0 0,4.3 5.4,3.5 -1.7,4.8 0,2.3 2.2,0.4 3,-3.8 6.6,-1.4 14.1,5.4 0.2,3.8 7.9,0.7"
       inkscape:connector-curvature="0"
       style="fill:#000000" /><path
       id="uzbekistan_2_"
       d="m 312.4,189.1 -6.3,-9.1 -11.2,1.1 -5.4,-5.3 -7.4,-1.3 -5.4,2.2 3.1,10.4 0,3.5 2.3,0 2.7,-5.3 7.4,0.1 1.1,4.1 15.9,10.5"
       inkscape:connector-curvature="0"
       style="fill:#000000" /><path
       id="afghanistan_3_"
       d="m 307.8,215.8 -8.4,-1 0,0 1.9,14.9 4.8,1.1 0.5,2.6"
       inkscape:connector-curvature="0"
       style="fill:#000000" /><path
       id="afghanistan_2_"
       d="m 306.6,233.5 -3.3,2.9 6.3,5.1"
       inkscape:connector-curvature="0"
       style="fill:#000000" /><path
       id="georgia_1_"
       d="m 229.4,187.5 3.9,5.1 4.9,2.3 3,0 5.1,-1.4 1.3,-2 -15.3,-5.7 -2.9,1.7 0,0 z"
       inkscape:connector-curvature="0"
       style="fill:#000000" /><path
       id="armenia_1_"
       d="m 246.4,194.3 5.7,7.5 -1.7,1.9 -4.1,-0.7 -5,-4.5 0.2,-3 4.9,-1.2 0,0 z"
       inkscape:connector-curvature="0"
       style="fill:#000000" /><path
       id="azerbaijan_2_"
       d="m 248.4,191.7 -1.2,2 5.6,7.4 1.9,-0.6 3.2,3.3 1.4,-6 3.5,0.6 -0.1,-1.7 -5.7,-5 -1.1,3 -7.5,-3 0,0 z"
       inkscape:connector-curvature="0"
       style="fill:#000000" /><path
       id="iran_2_"
       d="m 309,242.2 -7.4,-6 3.8,-3.5 -0.2,-1.6 -4.9,-0.7 -2,-16.4 -0.2,-3.7 -13.1,-5 -5.9,1.3 -3.2,4.1 -2.9,-0.2 -0.8,0.7 -6.5,-0.5 -8.1,-6 -3,-3.3 -1.4,0.4 -2.5,2.9 -4.2,-0.8 0,0 -1.4,1.6 0.1,2.4 1.8,2.5 6.5,7 -1,2.9 -1.1,0 -0.6,2.9 3.6,4.7 3.3,0.2 6.7,9.3 3.8,0.2 3,2.2 0.1,4.2 11.6,6.8 4.3,0 2.6,-2.3 3.3,-0.1 1.9,4.5 12.5,1.8"
       inkscape:connector-curvature="0"
       style="fill:#000000" /><path
       id="turkey_1_"
       d="m 233.2,193.5 -2.6,2.9 -9.8,-0.2 -5.9,-3.5 -5.7,-0.1 -6.6,4.7 -6.2,0.2 -0.6,3.5 -7,0 -2.7,2.5 0,1.4 1.7,1.4 0,1.6 -0.7,1.8 0.7,1.6 2.3,-1.1 2.3,2.4 -0.6,1.7 -0.8,1.1 1.2,1.4 6.2,1.3 4.3,-1.8 0,-2.6 2.2,0.5 5,3 5.5,-0.8 2.4,-2.3 1.6,0.6 0,2.5 2.2,0 1.8,-3.5 16,-1.7 6.9,-0.8 -1.8,-2.4 0,-3.2 1.4,-1.7 -5.1,-4.1 0.2,-3.5 -3,0 -4.8,-2.8 0,0 z"
       inkscape:connector-curvature="0"
       style="fill:#000000" /><path
       id="yemen_1_"
       d="m 249.1,289 1.7,5.1 0,5 4.2,3.7 29.1,-11.8 0.2,-3.2 -4.7,-8.4 -11.7,3.7 -6.7,6.6 -7.8,-4.7 -4.3,4 0,0 z"
       inkscape:connector-curvature="0"
       style="fill:#000000" /><path
       id="oman_1_"
       d="m 280.7,279 8.8,-5.1 1.6,-7.4 -1.9,-1.1 0.8,-8 1.7,-1 1.8,2.9 10.8,5.6 0,3.1 -13,19.1 -6,0.2 -4.6,-8.3 0,0 z"
       inkscape:connector-curvature="0"
       style="fill:#000000" /><path
       id="emirates_1_"
       d="m 275.4,260 1.1,4.2 11.8,1.1 0.8,-8.5 2.3,-1.2 0.6,-3.1 -3.7,1.1 -4.2,6.2 -8.7,0.2 0,0 z"
       inkscape:connector-curvature="0"
       style="fill:#000000" /><path
       id="qatar_1_"
       d="m 273.7,253 -0.6,4.8 1.8,1.4 1.7,-0.1 0.6,-6 -1.4,-1.1 -2.1,1 0,0 z"
       inkscape:connector-curvature="0"
       style="fill:#000000" /><path
       id="kuwait_2_"
       d="m 262.6,238.9 -2.6,-1.4 -1.9,1.9 0.2,3.7 4.3,1.7 0,-5.9 0,0 z"
       inkscape:connector-curvature="0"
       style="fill:#000000" /><path
       id="saudi_1_"
       d="m 263.5,246 8.4,11.7 2.7,2.2 1.2,5.3 12.9,1.1 1.4,0.7 -1.4,6.5 -8.5,5 -12.4,3.7 -6.6,6.5 -7.9,-4.5 -4.8,4.2 -6.6,-10.9 -4.5,-2 -1.7,-2.5 0,-5.5 -16.5,-19.9 -0.6,-3.6 4.8,0 5.7,-5 0.2,-2.5 -1.7,-1.7 3.3,-2.7 7,0.5 11.9,10 7,-0.4 0.5,1.8 6.2,2 0,0 z"
       inkscape:connector-curvature="0"
       style="fill:#000000" /><path
       id="syria_1_"
       d="m 218.9,217.2 -0.4,3 3.3,1.4 -0.1,8.4 3.3,-0.1 3.3,-2.5 1.3,-0.2 7.6,-6.1 1.6,-8.8 -15.3,1.6 -1.6,3.6 -3,-0.3 0,0 z"
       inkscape:connector-curvature="0"
       style="fill:#000000" /><path
       id="iraq_2_"
       d="m 239.9,212.3 -1.9,9.2 -7.8,6.5 0.5,3 7.5,0.5 11.9,9.8 6.7,-0.2 0.2,-2.3 2.5,-2.6 3.5,1.9 0.5,-0.5 -6.7,-8.8 -3.1,-0.2 -4.2,-5.4 0.8,-3.9 1.3,-0.1 0.5,-1.8 -5.7,-6 -6.5,0.9 0,0 z"
       inkscape:connector-curvature="0"
       style="fill:#000000" /><path
       id="jordan_1_"
       d="m 221.5,231.2 -3,10.3 -0.1,1.6 4.7,0 5.1,-4.5 0.1,-1.7 -2.2,-2.2 3.8,-3.1 -0.6,-2.9 -1.1,0.2 -3.1,2.3 -3.6,0 0,0 z"
       inkscape:connector-curvature="0"
       style="fill:#000000" /><path
       id="lebanon_1_"
       d="m 218.3,221.2 0.1,2.3 -1,3.6 3.3,0.2 0.2,-5 -2.6,-1.1 0,0 z"
       inkscape:connector-curvature="0"
       style="fill:#000000" /><path
       id="israel_1_"
       d="m 217.2,228 -1.9,6 2.4,7.2 2.7,-10.5 0,-2.3 -3.2,-0.4 0,0 z"
       inkscape:connector-curvature="0"
       style="fill:#000000" /><path
       id="cyprus_1_"
       d="m 214.7,218.1 1.4,1.1 -4.5,4.3 -2.2,-0.1 -1.6,-1.1 0.2,-2.2 3.3,-0.2 3.4,-1.8 0,0 z"
       inkscape:connector-curvature="0"
       style="fill:#000000" /><path
       id="norway_1_"
       d="m 181.6,65.5 2.4,-1.8 -0.2,-2 -1.6,-0.8 0.2,-2.4 1.3,0 0,-1.3 -5.7,-1.6 -8.5,0.8 -0.8,3.7 -1.9,-0.6 -1.3,-2.2 -4.2,0.2 -0.6,4.2 -1.9,0.8 -1.1,-2.2 -8.7,7 1.8,2 -3.3,1.6 -7.4,15.1 -2.6,1.8 0.2,1.3 2.6,1.3 -0.6,2.9 -4.4,-0.2 -1.3,-1.6 -2.9,3.3 -1.8,1.3 -0.5,3.1 -1.6,0.8 -3.9,0.8 -1.9,6.2 1.3,10.2 1.6,4.7 1.8,1.8 3.9,-0.2 5.7,-5.5 2.2,-3.7 0.6,5.5 3.7,-6.6 0.2,-18.5 3,-1.9 1,-10.3 9.2,-13.3 4.4,-1.6 1.9,-2.4 6.6,1.6 3.3,2 1.1,-5.5 5.5,-3.3 3.2,5.5 0,0 z"
       inkscape:connector-curvature="0"
       style="fill:#000000" /><path
       id="britain_1_"
       d="m 98.7,121.7 -2.2,3.3 0.8,1.3 5,0 0,2.3 -1.3,1.8 0.8,4.7 2.9,5.5 2.2,5 3.5,1.3 1.6,2.6 -0.2,2.4 -2.2,1.3 -0.2,1.1 1.6,0.8 -1.3,1.8 -3.1,1.3 -6,-0.7 -9.2,4.2 -3.1,-1.6 8.7,-5 -1.1,-0.7 -4.7,-0.5 2.9,-4.2 0.5,-3.6 3.7,-0.5 -0.6,-6.8 -4.4,-0.2 -1.3,-1.6 0.2,-5 -2.6,0.2 2.6,-8.8 4.8,-3.6 1.7,1.9 0,0 z"
       inkscape:connector-curvature="0"
       style="fill:#000000" /><path
       id="ulster_1_"
       d="m 89.5,136.5 -3.9,0.5 -0.2,3.6 2.6,1.8 2.9,-0.7 1.1,-2 -2.5,-3.2 0,0 z"
       inkscape:connector-curvature="0"
       style="fill:#000000" /><path
       id="ireland_1_"
       d="m 90.8,142.6 -1.1,7.2 -9.7,3.6 -3,0 -2.2,-1.6 0,-1.3 4.8,-3.1 -1.3,-2.6 0.2,-3.7 4.2,0.2 1.9,-4.5 -0.2,3.9 3.2,2.5 3.2,-0.6 0,0 z"
       inkscape:connector-curvature="0"
       style="fill:#000000" /><path
       id="sweden_1_"
       d="m 160.4,68.5 2.4,2.2 4.4,0 2.4,4.7 0.6,8 -6,4.2 0,4.2 -4.2,5.7 -2.4,0.2 -3.3,5.5 0.2,5.3 5.7,4.2 -0.5,2.4 -2.2,3.3 -3.3,2.9 0.2,9.4 -5,1.8 -1.8,3.7 -2.4,0 -1.3,-6.6 -5.5,-8.4 4.5,-7.5 0.4,-18.6 3.1,-1.7 0.7,-10.6 8.8,-12.7 4.5,-1.6 0,0 z"
       inkscape:connector-curvature="0"
       style="fill:#000000" /><path
       id="finland_1_"
       d="m 171.2,83.2 2.5,1.1 1.6,2.9 -1.6,2 -7.6,8.4 -1.3,4.4 1.8,6.5 6,4.4 7.9,-3.7 6.3,-0.8 6,-9.4 -4.4,-10.4 -4.2,-9.9 0.6,-6.5 -2.6,-0.5 -0.7,-4.7 -3.6,-5.7 -3.9,2.7 -1.6,6.3 -4.2,-2.5 -5.7,-1.4 -1.3,1.6 2.3,2 4.1,-0.1 3.2,5.3 0.4,8 0,0 z"
       inkscape:connector-curvature="0"
       style="fill:#000000" /><path
       id="estonia_2_"
       d="m 184.7,124.4 -8.2,-1.3 0.1,4.5 7.5,4.7 3.1,-1 -0.2,-3.5 -2.3,-3.4 0,0 z"
       inkscape:connector-curvature="0"
       style="fill:#000000" /><path
       id="hiumaa_1_"
       d="m 171.2,119.9 -1.8,-0.1 -1.1,1.1 0.7,1.2 1.8,0.1 1,-1.4 -0.6,-0.9 0,0 z"
       inkscape:connector-curvature="0"
       style="fill:#000000" /><path
       id="saaremaa_1_"
       d="m 171,124.8 -1.8,-0.1 -3.2,3.8 0,1.8 1.1,0.5 2.2,0.1 3.5,-2.9 0.5,-1 -2.3,-2.2 0,0 z"
       inkscape:connector-curvature="0"
       style="fill:#000000" /><path
       id="lithuania_1_"
       d="m 176,128.4 -2.5,-0.1 -3.6,3.3 -3,0 0.1,4.2 -1.8,3.3 6.5,0.1 1.8,-0.2 1.8,2.3 4.3,-0.1 4.1,-5.1 -0.2,-3.1 -7.5,-4.6 0,0 z"
       inkscape:connector-curvature="0"
       style="fill:#000000" /><path
       id="belarus_1_"
       d="m 175.9,142.2 1.8,3 -0.7,2.4 0.1,1.9 0.6,2.3 3.7,-2.2 4.5,0.1 3.2,1.3 8.1,0 2.4,-5.7 1.4,-2.2 0,-1.4 -5.1,-7.3 -4.5,-1.8 -3.7,-0.5 -3.2,1.1 0.1,3.2 -4.5,5.6 -4.2,0.2 0,0 z"
       inkscape:connector-curvature="0"
       style="fill:#000000" /><path
       id="poland_1_"
       d="m 176.9,152.4 1.1,1.9 0.2,2 -0.8,1.9 -1.9,3.7 -1.7,0.7 -2.2,-1 -1.2,0.1 -3,1.2 -3.5,-1.1 -5.6,-3.9 -5.5,-3 -2.3,-3.3 -0.5,-7.9 4.3,-3.7 5.6,-1.9 2.2,-0.2 -0.8,1.7 0.6,0.7 9.4,0.1 2,-0.1 3.3,5.1 -0.8,2.2 0.4,2.5 0.7,2.3 0,0 z"
       inkscape:connector-curvature="0"
       style="fill:#000000" /><path
       id="spain_1_"
       d="m 101.5,188.5 -15.2,0 -3.1,-1.4 -1.4,0.1 -1.8,3.7 0.6,3.8 5.9,0.5 0.7,2.5 -2.5,14.2 0.1,2.5 4.2,2.3 4.8,0.4 9.6,-2.4 4.7,-5.9 0.1,-6 8.2,-7.4 0.5,-3.3 -7.5,-0.1 -7.9,-3.5 0,0 z"
       inkscape:connector-curvature="0"
       style="fill:#000000" /><path
       id="portugal_1_"
       d="m 80.6,195.9 -0.7,10.3 -2.2,1.9 0.2,1.2 1.4,2.5 -1,3 1.6,0.5 3.7,-0.5 -0.2,-3 2.4,-13.9 -0.5,-1.9 -4.7,-0.1 0,0 z"
       inkscape:connector-curvature="0"
       style="fill:#000000" /><path
       id="majorca_1_"
       d="m 116.6,203 -1.9,0.6 0.5,1.7 2.7,0 1.2,-1.3 -2.5,-1 0,0 z"
       inkscape:connector-curvature="0"
       style="fill:#000000" /><path
       id="sardinia_1_"
       d="m 136.4,198.5 -3.1,1.6 0.5,6.2 2.5,0.5 1.9,-1.8 0,-5.9 -1.8,-0.6 0,0 z"
       inkscape:connector-curvature="0"
       style="fill:#000000" /><path
       id="corsica_1_"
       d="m 136.6,190.8 -2.4,2.4 -0.2,2.2 1.9,1.2 0.7,-0.1 0.5,-3.1 -0.5,-2.6 0,0 z"
       inkscape:connector-curvature="0"
       style="fill:#000000" /><path
       id="france_1_"
       d="m 115.8,157 -2.6,0.6 -5.3,5.7 -1.6,0.1 -2.2,-1.4 -1.3,0.4 -1.1,3.3 -7.8,0.2 0.2,1.7 5.3,3.5 6.1,4.9 -0.1,5.9 -3.2,5.7 7,3.5 7.2,0.2 2.3,-2.5 4.5,0.1 1.3,1.2 4.5,-0.4 2.4,-3 -3,-3.5 -0.2,-2.3 0.6,-2.5 -1.4,-2.2 -2.5,0.7 -0.4,-1.9 5.6,-6.2 0,-3.7 -3.7,-2.2 -1.9,-0.4 -8.7,-5.5 0,0 z"
       inkscape:connector-curvature="0"
       style="fill:#000000" /><path
       id="netherlands_1_"
       d="m 127.4,144.6 -5.4,2.6 1.2,1.1 0.1,2.6 -1.2,-0.2 -1.3,-1.9 -3,4.8 4.7,1 1.8,1.8 1,0 0.6,-4.2 3,-1.2 -1.5,-6.4 0,0 z"
       inkscape:connector-curvature="0"
       style="fill:#000000" /><path
       id="belgium_1_"
       d="m 117.2,154.4 -0.7,1.9 8.2,5.4 2.4,0.6 0.1,-2.5 -2,-2.3 -1.3,0 -1.8,-1.9 -4.9,-1.2 0,0 z"
       inkscape:connector-curvature="0"
       style="fill:#000000" /><path
       id="germany_1_"
       d="m 128.6,144.1 4.3,-0.7 0,-3 3.6,-0.6 1.9,1.9 2,0.2 3.2,-1.4 2.9,0.8 2.5,2.2 0.4,8.2 2.5,3.3 -3.3,0.5 -5.5,3.5 0.5,1.2 4.9,4.7 -0.4,2.3 -4.7,2.3 -4.3,0.1 -1.1,2.2 -2.2,0 -1.1,-2.3 -3.8,-1 -0.1,-3.8 -3.2,-2.2 0.4,-2.7 -2.2,-3 0.6,-3.9 3,-1.4 -0.8,-7.4 0,0 z"
       inkscape:connector-curvature="0"
       style="fill:#000000" /><path
       id="denmark_1_"
       d="m 135.4,124.5 -4.9,5.5 -0.1,3.6 2.3,5.9 3.6,-0.7 -0.5,-4.8 2.4,-2.7 0,-2.2 -1.7,-4.4 -1.1,-0.2 0,0 z"
       inkscape:connector-curvature="0"
       style="fill:#000000" /><path
       id="sjælland_1_"
       d="m 140.9,134.2 -1.1,0 -1.4,1.3 0.1,2.2 3.5,0.1 0.1,-2.4 -1.2,-1.2 0,0 z"
       inkscape:connector-curvature="0"
       style="fill:#000000" /><path
       id="gotland_1_"
       d="m 161.3,123 -2.5,2 1.3,2.9 2.3,-2.2 -1.1,-2.7 0,0 z"
       inkscape:connector-curvature="0"
       style="fill:#000000" /><path
       id="switzerland_1_"
       d="m 130.7,169.8 -5.3,5.5 0.1,0.6 2.2,-0.7 1.9,2.6 3.2,-1.2 2.3,1.8 1,-0.5 2.7,-4.3 -0.7,-0.7 -2.7,-0.1 -1.3,-2.7 -3.4,-0.3 0,0 z"
       inkscape:connector-curvature="0"
       style="fill:#000000" /><path
       id="czech_1_"
       d="m 149.3,164.4 3.6,0 1.8,0 2.9,2 5.3,-4.3 -5.1,-3.6 -5,-2.4 -3.5,0.6 -4.7,3 4.7,4.7 0,0 z"
       inkscape:connector-curvature="0"
       style="fill:#000000" /><path
       id="slovakia_1_"
       d="m 158.1,167.1 0.8,0.7 0.1,1.2 9.1,-0.2 6.7,-2.9 -0.1,-3 -1.3,0.6 -1.8,-1 -1.2,0 -3,1.2 -4.1,-1 -5.2,4.4 0,0 z"
       inkscape:connector-curvature="0"
       style="fill:#000000" /><path
       id="austria_1_"
       d="m 139.9,170.7 -0.7,1.7 0.7,1.2 2.7,-0.6 2.4,0 2.5,2.2 5.5,-1 4.1,-2.4 1.1,-1.7 -0.1,-2 -3.6,-2.7 -4.8,0 -0.4,2.7 -5.4,2.5 -4,0.1 0,0 z"
       inkscape:connector-curvature="0"
       style="fill:#000000" /><path
       id="hungary_1_"
       d="m 159.2,170.1 -1.4,2.2 0.1,3.3 2.3,1.1 6.8,0.2 9.4,-8 0,-1.8 -1.1,-0.5 -6.8,3.1 -9.3,0.4 0,0 z"
       inkscape:connector-curvature="0"
       style="fill:#000000" /><path
       id="slovenia_1_"
       d="m 156.9,172.9 -3,1.8 -5.6,1.2 1.2,3.2 3.9,0 3.7,-3.1 -0.2,-3.1 0,0 z"
       inkscape:connector-curvature="0"
       style="fill:#000000" /><path
       id="croatia_1_"
       d="m 157.9,176.7 -4.2,3.5 -4.3,0 -0.5,3 1.9,0.5 1,-1.4 1.6,1.3 1.2,4.3 8.5,3.9 0.8,-1 -8.6,-8.8 0.8,-1.7 8.1,-0.4 0.8,-2.6 -5.3,0.1 -1.8,-0.7 0,0 z"
       inkscape:connector-curvature="0"
       style="fill:#000000" /><path
       id="bosnia_1_"
       d="m 156.9,181.2 -0.5,0.7 8,8.2 3,-4.3 -0.1,-1.7 -2.5,-3.1 -7.9,0.2 0,0 z"
       inkscape:connector-curvature="0"
       style="fill:#000000" /><path
       id="italy_1_"
       d="m 130,178.9 -0.7,1.9 0.2,2 2.9,3.3 4.5,-0.1 9.9,11.5 6.2,1.8 3.7,3.5 0.8,7.9 1.9,-1.2 1.7,-4.3 -0.5,-3.1 2.9,-0.2 0.5,-1.8 -8.2,-3.9 -7.8,-7.6 -3.1,-4.5 -0.7,-4.3 3.9,-1 -1.1,-2.9 -2.4,-2 -2.2,-0.1 -2.9,0.8 -2.7,3.8 -1.7,1.1 -2.5,-1.6 -2.6,1 0,0 z"
       inkscape:connector-curvature="0"
       style="fill:#000000" /><path
       id="sicily_1_"
       d="m 154,210 -1.8,-1 -6,1 0.2,1.6 5.4,2.6 0.8,0.8 1.4,0.2 0,-5.2 0,0 z"
       inkscape:connector-curvature="0"
       style="fill:#000000" /><path
       id="malta_1_"
       d="m 154.3,218.9 -2,0.4 0.1,2.3 1.8,0.6 0.8,-0.7 -0.7,-2.6 0,0 z"
       inkscape:connector-curvature="0"
       style="fill:#000000" /><path
       id="ukraine_1_"
       d="m 181.7,150.3 -3.5,1.9 0.8,3.7 -3.2,6.7 0,3 1.6,1 9.7,0.5 2.7,-2.3 2.9,1 4.2,5.5 -3,5.5 3.6,1.1 4.8,-5.5 2.7,0.5 2.5,1.8 -2.2,2.9 3,4.7 3.2,0 1.7,-3.1 3.3,-0.7 0.1,-2.5 -6.2,-1 0.2,-2.7 6.1,0 6.6,-5.3 2.9,-2.5 0.5,-8 -12.9,-1.2 -5.3,-7.4 -3.7,-1.3 -4.4,0.2 -2,4.9 -9.1,0.1 -3,-1.3 -4.6,-0.2 0,0 z"
       inkscape:connector-curvature="0"
       style="fill:#000000" /><path
       id="moldova_1_"
       d="m 188,167.8 3.7,5.7 -0.4,3.2 1.3,0.1 3.1,-5.3 -3.8,-4.7 -2.2,-0.8 -1.7,1.8 0,0 z"
       inkscape:connector-curvature="0"
       style="fill:#000000" /><path
       id="romania_1_"
       d="m 177.7,167.7 -0.4,1.8 -6.9,5.7 5.7,8.5 3.7,2.6 6.7,0 2.2,-1.8 3,-0.4 2.2,1.3 3.9,-4.4 -0.7,-2.3 -3.9,-1.1 -2.7,-0.1 0.1,-3.8 -3.6,-5.6 -9.3,-0.4 0,0 z"
       inkscape:connector-curvature="0"
       style="fill:#000000" /><path
       id="serbia_and_montenegro_1_"
       d="m 169.7,175.9 -2.4,1.8 -1.2,0 -0.8,2.5 2.9,3.3 0.2,2.6 -3.6,5 0.5,1.6 2,0.4 1.7,-2.3 0.8,-0.1 1.6,1.4 4.5,-1.4 -0.4,-6.6 -5.8,-8.2 0,0 z"
       inkscape:connector-curvature="0"
       style="fill:#000000" /><path
       id="bulgaria_1_"
       d="m 176.7,185.3 0.2,6 2,4.2 7.5,0.1 3.3,-2.4 3.3,-1.3 -0.8,-3.8 0.7,-2 -1.7,-0.8 -2.4,0.2 -1.8,1.8 -7.6,0.1 -2.7,-2.1 0,0 z"
       inkscape:connector-curvature="0"
       style="fill:#000000" /><path
       id="albania_1_"
       d="m 167.9,194.2 0,5.5 1.6,3 1.2,-0.1 1.9,-3.6 -1.2,-1.6 -0.5,-3.9 -1.6,-1.4 -1.4,2.1 0,0 z"
       inkscape:connector-curvature="0"
       style="fill:#000000" /><path
       id="macedonia_1_"
       d="m 176.1,192 -4.1,1.3 0.2,3.5 1,1.2 4.8,-2.3 -1.9,-3.7 0,0 z"
       inkscape:connector-curvature="0"
       style="fill:#000000" /><path
       id="greece_1_"
       d="m 171.1,203.5 -0.1,1.6 5.5,2.7 2.6,1.1 -1.4,1.4 -3.1,0.4 -0.5,1.4 1.1,2.4 3.5,1.8 1.6,0.1 0.2,-4.1 2.3,-2.7 -6.2,-7.3 0.8,-2.5 1.4,-0.1 2.2,1.8 1.4,-0.7 0.5,-2.5 6.5,0.1 0.2,-3.8 -2.7,1.9 -7.9,-0.2 -5.1,2.6 -2.8,4.6 0,0 z"
       inkscape:connector-curvature="0"
       style="fill:#000000" /><path
       id="thrace_1_"
       d="m 190.6,194.1 -0.2,4.3 3.7,-1.1 1.7,-1.1 -0.5,-1.8 -1.8,-1.4 -2.9,1.1 0,0 z"
       inkscape:connector-curvature="0"
       style="fill:#000000" /><path
       id="crete_1_"
       d="m 183.2,219 1.9,0.1 0.8,1.2 2.9,0 1.9,-0.7 0.6,0.7 -1.2,1.7 -5.5,0.2 -1,-1.3 -1.1,-0.6 0.7,-1.3 0,0 z"
       inkscape:connector-curvature="0"
       style="fill:#000000" />
	</g>

	<g id="eu-central-1" cx="132.51695" cy="156.43008" />
	<g id="eu-west-1" cx="86.222458" cy="147.69598" />

</svg>