<?xml version="1.0" encoding="utf-8"?>
<!-- Generator: Adobe Illustrator 20.0.0, SVG Export Plug-In . SVG Version: 6.00 Build 0)  -->
<svg version="1.1" id="Layer_1" xmlns="http://www.w3.org/2000/svg" xmlns:xlink="http://www.w3.org/1999/xlink" x="0px" y="0px"
	 viewBox="0 0 398 381.6" style="enable-background:new 0 0 398 381.6;" xml:space="preserve">
<style type="text/css">
	.st0{opacity:0.2;}
</style>
<g>
	<g class="st0">
		<path id="mexico_2_" d="M45.3,163.6l8.6,27.1L50,193l0.4,5.3l7.5,5.9v10.9l9.3,8.9l-3.9-26.6L57.8,180l1.4-12.1l4.5,0.4l1.8,4.1
			l-1.8,10.3L86.9,228v16.2l18.7,21.9l20.5,9.5l8.6-5l12.1,9.8l7.1-7.1l-3.2-8l10.3-3.2l3.2,1.8l3.2-3.2h5l8.9-15.7l-4.5-4.1
			l-17.5,4.1l-3.9,11.6l-10.3,1.8l-12.1-5l-5.3-17.1l4.1-21.6l-8.2-5.2l-3.9-20.7l-3.4-1.4l-6.1,6.1l-7-3.7l-2.7-13.7L73,173.6
			l-14.1-10.7L45.3,163.6L45.3,163.6z"/>
		<path id="greenland_1_" d="M372.7-149l-2.5,3.9l4.5,4.5l-2,4.5l6.2,8.2l7.8-2.5l10.2-0.9l11.6,12.7l7.8,20.9l-6.2,13l8.7-1.4
			l4.8,2.9l0.5,6.2l-10.7,0.5l5.9,5.9l7.3,1.4l-16,21.4l-2,13l3.4,10.7l-2.5,6.2l4.5,13.6l8.2,9.3l2.5-0.5l5.3-1.4l0.5,7.8l3.4,4.8
			l6.2-0.5l4.8-18l14.6-18l21.6-8.7l13.6-16.9l6.2,2.9h13l10.7-10.7l13-5.3l1.4-8.2l-8.2-7.3l-7-2.5L520.2-88l9.3-5.3l14.6,7.7
			l4.8-5.3l-7.8-4.3l16.4-22.3l-2.9-9.6l-7.8-0.5l2.9-8.7l9.6-4.5l19.8-17.5l-5.9-6.2l-22.3,2l-11.6,11.6l6.8-15l-7.8-2l-4.5,7.7
			l-6.2-5.3l-17.5,2l4.8-7.7l28.5-0.9l-7.3-9.6l-31-5.9l-12.7,2l0.5,6.2l-13-4.5l0.5-4.5l-9.3,2l-2,4.8l9.6,3.4l-10.2,7.3l-7.3-8.2
			l-10.2-2.9l-1.4,7.8h-10.2l-3.9-8.2l-16-2.5l-8.7,4.5l-0.5,5.9l-11.1-1.4l-6.8,2.9l0.5,6.8v3.4l-12.7,2.5l-5.9-3.9l-3.9,6.2
			l5.9,6.2l12.1-1.4l0.9,3.9l-9.3,4.5L372.7-149L372.7-149z"/>
		<path id="disko_1_" d="M411.6-73.4l2.9,4.3l-1.4,5.3h-2.9l-3.9-4.3l0.9-3.4L411.6-73.4L411.6-73.4z"/>
		<path id="st._lawrence_island_west_2_" d="M-76.4-143.3l6.2,11.6l3.9-0.9v-3.9L-76.4-143.3L-76.4-143.3z"/>
		<path id="unalaska_west_2_" d="M-111.2-41.6l-0.4,5.3l3.9-0.9v-2.3L-111.2-41.6L-111.2-41.6z"/>
		<path id="umnak_west_2_" d="M-117.3-39.3l-7.7,3.9l1.2,4.1l3-2.3l5.9-2.7L-117.3-39.3L-117.3-39.3z"/>
		<path id="another_aleutian_west_2_" d="M-149.2-34.3l-5.3-1.2l-0.9,2.3l0.5,4.5L-149.2-34.3L-149.2-34.3z"/>
		<path id="adak_west_2_" d="M-160.4-34.5l-5-2.1l-1.8,3.2l3.2,3.2L-160.4-34.5L-160.4-34.5z"/>
		<path id="amchitka_west_2_" d="M-177.9-39.3l-2.3-3.2l-2.3,0.9v4.5l2.7,1.8L-177.9-39.3L-177.9-39.3z"/>
		<path id="attu_west_2_" d="M-197.2-60.5l3,2.1l-0.9,2.3h-2.1V-60.5L-197.2-60.5z"/>
		<path id="guadeloupe_1_" d="M293.4,267l-2.7,1.1l0.9,2.3l3.2-2l-0.7-0.7L293.4,267L293.4,267z"/>
		<path id="dominica_1_" d="M297.8,269.7l-1.6,3.4l2,2.5l2.3-2L297.8,269.7L297.8,269.7z"/>
		<path id="puerto_rico_1_" d="M283.4,262.9l-4.6-1.6l-3.7,2.3l2,2.1l6.4,0.9V262.9L283.4,262.9z"/>
		<path id="haiti-dominican_border_1_" d="M247.6,252.7l-3,3l3.4,1.4l0.5,4.3l-7.5,0.7l0.7,4.1l2.1,0.2l1.2-2l8.7,0.4l1.6,3l2-2.3
			l5.9-1.6l5.2,1.1l0.5-3.2l-9.5-6.2l-6.1-2.3L247.6,252.7L247.6,252.7z"/>
		<path id="domincan_republic_1_" d="M269.3,261.7l-9.5-6.2l-4.5-1.6l-1.4,10.7l1.6,3l2-2.3l6.1-1.6l5.2,1.1L269.3,261.7
			L269.3,261.7z"/>
		<path id="haiti_1_" d="M247.6,252.7l6.1,0.7l-0.7,7.5l-0.5,3.9l-7.1-0.4l-1.2,2l-2.1-0.2l-0.7-4.1l7.5-0.7l-0.5-4.3l-3.4-1.4
			L247.6,252.7L247.6,252.7z"/>
		<path id="iceland_1_" d="M524.8-29.2l-3.6-2l-4.6,3l-4.1,3.7l0.2,2.1l5.2,0.7l-0.4,3.7l-1.8,2l0.4,1.2l5.2,0.4v6.1l7.5,1.2
			l4.5,2.5l5,0.2l8.6-4.3l6.6-8.7l0.2-5.9l-4.1-3.4l-3.4-2.9l-1.6,1.1l-2.3,3l-2.7-0.4l-2.7-2.9l-3.4,0.4l-5,4.1l-3,3.2l-1.6-1.4
			l-0.2-3.6l1.6-1.1L524.8-29.2L524.8-29.2z"/>
		<path id="cuba_1_" d="M194.1,237.6v2.3l9.5,0.2l4.5-2.7l0.7,2l9.3,2.3l8.2,7.5l-2,2.7l0.4,3l7,1.8l7-3.2l3-3.2l-4.5-2.3l-23-13.6
			l-8-0.9L194.1,237.6L194.1,237.6z"/>
		<path id="bimini_1_" d="M227.4,223.7l-2.3-0.7l-0.2,4.3l2.9,2.9l2-2.9L227.4,223.7L227.4,223.7z"/>
		<path id="andros_1_" d="M231.9,230.5l-3,1.8l2.9,4.1l1.6-2.1L231.9,230.5L231.9,230.5z"/>
		<path id="inagua_1_" d="M241.8,233.7l-3.2-0.2l0.4,2.1l2.5,3.6l2.1-2.3L241.8,233.7L241.8,233.7z"/>
		<path id="eleuthera_1_" d="M240.4,229.6l-5.3-2.3l-1.1-5.3l2.1-0.9l2.1,4.1l2.1,1.6L240.4,229.6L240.4,229.6z"/>
		<path id="grand_bahama_1_" d="M235.3,218.5l-2.9-0.7l-0.5-3.4l-2.9-1.1l2-2l3.4,1.2l2.5,1.6L235.3,218.5L235.3,218.5z"/>
		<path id="jamaica_1_" d="M226.2,260.2l-6.2,1.6v1.8l3.6,2.1h3.7l2.5-2.9L226.2,260.2L226.2,260.2z"/>
		<path id="alaska_3_" d="M-33.8-158.3l-15,3.6l3,16.9l16.2,4.5l0.9,3.6l-24.1,7.3l-13.7,22.6l4.8,23.9l7.8,5.3l6.2-5.7l1.8,3.6
			l-7.5,8.9l-28.9,13.2l-18.5,4.5l-0.4,6.6L-58.4-52l17.7-4.8l16.2-20l18-11.9l-9.3,15.5l10.2,1.4l17.1-7.5l3,12.5l11.9,2.7
			l12.3,11.9l0.9,8.9l-1.8,2.1l2.1,8.4h3L43.4-47H47L47.8-12l8.7-7.5l-6.2-36.4h-9.3L30.9-68.8l49.7-84.2l-49.2-38.5l-54.9,10.7
			l-2.1,16.9l11.9,7.1l-4.5,11.6L-33.8-158.3L-33.8-158.3z"/>
		<path id="banks_2_" d="M163.4-174.3l0.4,7.1l-14.3,14.8l3.6,11.9l10.3-2.9l5.9-8.7l15-5.5l12.3-0.9l-9.5-10.3l-4.8,3.6l-3.6-1.2
			l-2-4.5l-4.3-4.5L163.4-174.3L163.4-174.3z"/>
		<path id="prince_patrick_2_" d="M181.9-195.5l-3.2,5.5l15.3,5.5l5.5-8.4l2.3,5.5h3.9l7.5-8.4l-9.1-2.3l-3.6-2.9l-4.8,4.8
			L181.9-195.5L181.9-195.5z"/>
		<path id="eglinton_2_" d="M208.9-184.3l-12.3,5.2v3.9l15.9,5.9l-3.6,3.9l2.3,5.2l9.8-4.5h8.4l4.1,6.6l6.8-6.8l-1.6-6.4l-5.5,2
			l-0.7-8l2.9-4.8h-2.9l-4.3,2.9l-2,1.6l1.2,5.5l-3.2,2.3l-4.8-0.4l-1.2-7.1L208.9-184.3L208.9-184.3z"/>
		<path id="mackenzie_king_2_" d="M225.1-196.6l-1.2,3.9l7.5,3.6l5.5-3.2l-0.4-2.3L225.1-196.6L225.1-196.6z"/>
		<path id="king_christian_2_" d="M231-203.4l-5.5,2l0.4,2.9l12.3-0.9l-0.4-2.9L231-203.4L231-203.4z"/>
		<path id="ellef_ringnes_2_" d="M257.5-196.6l-0.7,2.9l-2,2.9v3.9l7.5-1.2l7.8,6.8h2.7v-6.8L265-197L257.5-196.6L257.5-196.6z"/>
		<path id="amund_ringnes_2_" d="M277.7-188.6l3.2,3.6l-2.7,4.8l2,5.2l8.7-4.8v-3.6l-5.2-6.1L277.7-188.6L277.7-188.6z"/>
		<path id="axel_heiberg_2_" d="M289.1-197.9l0.4,6.4h10.7l2.7,2.3l-0.4,2.9L293-185l6.8,9.1l9.1,1.6l12.7-5.5l-18.2-27.5l-5.5,3.6
			l0.4,4.8l-6.2-2.3L289.1-197.9L289.1-197.9z"/>
		<path id="victoria_2_" d="M197.1-152.7l-15,3.9l-8.7,7.5l0.7,8.4l15.9,4.8l-3.6,8l-11.4-7.1l-3.2,6.1l7.5,5.2l-0.4,8.4l11.4,3.2
			l13.9-0.7l2.3-4.5L216.9-98l7.1-2.3l1.2-8l5.2,3.6l0.7-8l-6.4-3.9l0.4-25.1l-5.5-4.5l-5.9,8L197.1-152.7L197.1-152.7z"/>
		<path id="prince_of_wales_2_" d="M245.2-135.3l-5.2-2.3l-2.9,3.6l5.5,8.7l0.4,8.4l11.8-7.1v-10.3l4.3-4.5l-4.3-3.2h-7.1
			L245.2-135.3L245.2-135.3z"/>
		<path id="prescott_2_" d="M270.6-138.8l-8.4,6.8l2,8.4h5.2l2.3-4.5l3.6,3.6l3.6-0.4l9.5-8L270.6-138.8L270.6-138.8z"/>
		<path id="cornwallis_2_" d="M269.8-152l-2,3.9l8.7,3.2l2.3-3.6L269.8-152L269.8-152z"/>
		<path id="bathurst_2_" d="M264.7-167.2l-8.7,1.2l-5.2,4.8l9.5,0.4l-2.7,7.1l2,3.2l2.7-0.4l6.8-10.7L264.7-167.2L264.7-167.2z"/>
		<path id="devon_2_" d="M279.7-170l-4.8,1.6l0.7,6.4l7.8,5.2l0.4,3.9l-2.3,2.3l1.2,8l30.5,10l8.4,2.9l8.4-7.1l-9.8-8l-9.1,2.3
			l-12.7-1.2l-4.8-4.8l-1.2-13l-7.8-3.9L279.7-170L279.7-170z"/>
		<path id="baffin_2_" d="M304.6-128.5l-8.7-0.9l-10.3,3.9L280-118l1.6,20.7l16.9,0.7l16.2,8l11.4,13.2l8.7-0.4l-2.3,12.3l-7.8,13.2
			l-8.7,3.9l-6.2-1.2l-3.2-2.9l-4.8,6.4l2,6.4l6.8,0.4l8.4-3.9l7.1,18.4l17.8,11.6l12.3-15.5l-10.3-16.8l5.9-6.8l8.4,13.9l15-13.2
			l-2.7-5.9L362-52.2l-7.1-19.4l6.8-11.1l-13.4-14.3l-7.5,5.2l-7.1-15.5l-15,2l-3.9-18.7l-12.3,8.4l-1.2,10.3h-6.8l0.7-9.1
			L304.6-128.5L304.6-128.5z"/>
		<path id="bylot_2_" d="M322.4-121.4l-3.2,3.2l2.7,4.5l13,1.6l-8.4-8.7L322.4-121.4L322.4-121.4z"/>
		<path id="ellesmere_2_" d="M309.8-166.3v3.6l-8.7,2l2.3,3.9l9.8,3.9l11.1,1.2l7.8,5.5l7.8-4.5l-5.5-5.5h7.1l4.3-4.8l10.7-1.6v-2.3
			l-5.9-3.9l0.7-4.5l16.6,2.9l24.6-9.6l-9.1-2.9l2.3-3.2h18.9l3.2-3.2l-38.2-13.4l-9.1-3.2l-9.8,7.1l-11.1-9.1l-5.9-0.4l-1.2,7.5
			l-7.5-6.8l-8.7,2.9l1.6,4.5l13,2.9l-0.7,6.4l7.1,4.5l17.5-4.5l0.4,6.1l-14.3,6.8l-8.7-6.8l-7.8,0.9l7.8,11.2l-3.9,2l-5.9-5.2
			l-4.3,2.9l3.9,7.5h6.8l-1.6,7.1l-5.5-0.9l-7.1-7.5L309.8-166.3L309.8-166.3z"/>
		<path id="southhampton_2_" d="M274.5-56.8l-7.5,9.5l-0.5,10.5l6.6-3.7h8l5.7,5.2l5.2-4.3L274.5-56.8L274.5-56.8z"/>
		<path id="newfoundland_2_" d="M366.3,66.8l-18.9,18l2,4.3l23,8.6l3.4-5.7l-2-9.5l-7.5,0.9l-4.3-4.8l7.1-7.1L366.3,66.8L366.3,66.8
			z"/>
		<path id="canada_2_" d="M82.3-151.5l3.6,5.3l1.8,7.1l8.9,2.1l6.2-6.8l5.3,2.7l15.2,1.4L134-144l1.8,14.8h6.2v-6.2l6.2,0.4
			l15.5,18.4l10.2,6.2l-5.3,8.6l2.1,2.1l20,4.1l0.4,8.9l5.3,0.9l1.4-13.4l8.4-2.1l6.2,9.5l13.4,6.2l6.6,1.4l4.5-5.3l0.4-8.6l8-5
			l2.7,7.1l-7.1,12.5l0.9,6.2l3.9-6.2l8-7.1l0.4-9.5l-4.5-7.1l1.4-5.9l10.7-5.3l4.8,3.6l0.9,31.4l7.5-6.8l4.5,2.7L273.1-77l8,1.8
			L292.7-93l9.8,10.3l-3.9,18.4l-9.8,5.3l-9.3-4.5l-16.9,3.6l1.8,5.9l-4.5,7.1l-13.7,3.2l-15.5,12.1l-13.7,18.4l-1.8,5.9l9.3,3.6
			l3.6,8.9l12.8,13l20.5,8.9l-4.5,20.5l-0.4,5.9l5.3,3.6l7.1-9.5l0.9-17.8l11.1-0.4l5.3-10.3l0.9-15.7l14.3-27.8l17.8,6.2l9.3,13
			l-4.1,12.8l7.1,4.1l17.3-11.6l4.8,31.7l16,19.3l0.4,9.8l-17.8,4.5l-8.4,8.9L326,70.3l-8.9-0.4l-15.5,12.1l9.3-2.1l11.6-2.1
			l2.1,2.7l-3,9.8l0.4,8.9l5.3,3.6l5.3-1.4l2.7-4.1h3.6l-5.7,10.7l-11.1,0.4l-4.8,7.1H311l-1.8-5.3l8.9-8.9l-10.7,3.6l-0.5-15.2
			l-3-1.8l-9.3,4.1l-0.9,7.7h-21.4l-18.2,12.5l-24.4,8l-2.7-3.6l12.3-18.4l-7-6.8l-4.5-8.6l-9.1-7l-9.6-0.7L191.7,63L65.9,42.3
			l-2.1-8.6L52.1,23.1v-8.9l1.8-8L53,1.7l-4.5-4.5l-0.9-7.1l11.6-8l-7.1-38.5l-9.8-0.4l-8.9-11.6L82.3-151.5L82.3-151.5z"/>
		<path id="usa_3_" d="M65.5,43.9l-1.8,7.1L57.5,47h-3l-1.8,7.7l-21.8,48.9l5.7,42.4l7.1,3.6l1.4,11.6h14.6l14.3,10.7l28,2.7l3,14.3
			l4.5,3.2l6.2-6.2l4.8,2.1l4.5,20.5l7.5,5l6.2-11.6l19.1-13.9l12.5,5.9l10.7,0.9l0.4-6.8l22.1,0.4l4.5,5l0.9,11.2l-2.7,6.2l3,10.7
			h6.6l6.6-10.3l-2.7-5l-2.7-10.7l3.9-12.1l18.2-15.7l13.7-4.1l-1.8-13l19.1-20.7l19.1-3.2l-3-10.7l18.7-10.7V90.8l-1.8-0.9
			l-6.6,2.1l-0.9,8.7l-22.1,0.2l-17.3,11.6l-27.3,8.9l-4.3-5.3L237,97.4l-6.1-5.9l-4.1-7.8l-8.6-7L209,76l-17.7-12.1L65.5,43.9
			L65.5,43.9z"/>
		<path id="haida_gwaii_2_" d="M38.7-9.4l-3,5.9l1.1,4.1l2,1.2l-0.5,1.6L36.1,4l0.5,6.1l2.3,2.3l1.8-2l-2.3-5.9l1.4-4.8l3.4-4.5
			l-2.5-4.1L38.7-9.4L38.7-9.4z"/>
		<path id="vancouver_2_" d="M48.7,25.4l-2.7,1.1l5,5.9l1.2,7l5,5.3l4.3-0.7v-7l-5.2-3.2L48.7,25.4L48.7,25.4z"/>
		<path id="guatemala_1_" d="M147.7,281.5l10.5,7.7l10.7-13.2l-1.8-2.7l-3.6-0.2v-7.8l-2.7-1.6l-8.2,2.5l3.2,7.3L147.7,281.5
			L147.7,281.5z"/>
		<path id="honduras_1_" d="M170.3,276.6l16.4-0.7l4.8,5.9l-3-0.7l-5.9,0.2l-7.7,7.1l-3.2,7.3l-2.1-1.1v-8l-4.8-3.2L170.3,276.6
			L170.3,276.6z"/>
		<path id="el_salvador_1_" d="M159.6,290l8.4,4.1l-0.2-6.6l-4.3-2.7L159.6,290L159.6,290z"/>
		<path id="nicaragua_1_" d="M188.4,282.5l3.9,0.7l0.2,8l-4.6,13l-12.3-1.2l-2.7-6.2l3.6-7.7l7-6.4L188.4,282.5L188.4,282.5z"/>
		<path id="costa_rica_1_" d="M187.8,305.5l2.5,4.8l2,2.7l-2.7,8l-5.2-3.6l-8.4-7.7v-5.2L187.8,305.5L187.8,305.5z"/>
		<path id="panama_1_" d="M193.5,313.7l-2.7,8.2l8.6,2.1l5.3,1.1l0.9-6.2l5.7-2.9l5.2,2.7l2,3.2l2.5-0.4l2-5.7l-6.4-2.7l-4.8-2.7
			l-4.8,3.2l-5.7,2.9l-5.9-2.3L193.5,313.7L193.5,313.7z"/>
		<path id="belize_1_" d="M165,265.2l-0.2,6.4h1.4l5.2-9.5H168L165,265.2L165,265.2z"/>
	</g>
</g>
<g id="us-east-1"
     cx="240.34494"
     cy="155.18559"></g>
<g id="us-west-2"
     cx="52.55085"
     cy="61.444069"></g>
<g id="us-west-1"
     cx="49.422886"
     cy="73.336449"></g>
<g id="us-east-2"
     cx="219.90509"
     cy="124.07967"/>
</svg>