<?xml version="1.0" encoding="UTF-8" standalone="no"?>
<!-- Generator: Adobe Illustrator 20.0.0, SVG Export Plug-In . SVG Version: 6.00 Build 0)  -->

<svg
   xmlns:dc="http://purl.org/dc/elements/1.1/"
   xmlns:cc="http://creativecommons.org/ns#"
   xmlns:rdf="http://www.w3.org/1999/02/22-rdf-syntax-ns#"
   xmlns:svg="http://www.w3.org/2000/svg"
   xmlns="http://www.w3.org/2000/svg"
   xmlns:sodipodi="http://sodipodi.sourceforge.net/DTD/sodipodi-0.dtd"
   xmlns:inkscape="http://www.inkscape.org/namespaces/inkscape"
   version="1.1"
   id="Layer_1"
   x="0px"
   y="0px"
   viewBox="0 0 181 303"
   style="enable-background:new 0 0 181 303;"
   xml:space="preserve"
   inkscape:version="0.91 r"
   sodipodi:docname="south-america.svg"><metadata
     id="metadata31"><rdf:RDF><cc:Work
         rdf:about=""><dc:format>image/svg+xml</dc:format><dc:type
           rdf:resource="http://purl.org/dc/dcmitype/StillImage" /></cc:Work></rdf:RDF></metadata><defs
     id="defs29" /><sodipodi:namedview
     pagecolor="#ffffff"
     bordercolor="#666666"
     borderopacity="1"
     objecttolerance="10"
     gridtolerance="10"
     guidetolerance="10"
     inkscape:pageopacity="0"
     inkscape:pageshadow="2"
     inkscape:window-width="640"
     inkscape:window-height="480"
     id="namedview27"
     showgrid="false"
     inkscape:zoom="0.77887789"
     inkscape:cx="90.5"
     inkscape:cy="151.5"
     inkscape:window-x="988"
     inkscape:window-y="233"
     inkscape:window-maximized="0"
     inkscape:current-layer="Layer_1" /><style
     type="text/css"
     id="style3">
	.st0{opacity:0.2;}
</style><path
     id="st._lucia_1_"
     class="st0"
     d="M81.1,5l-0.9,1.9l1.4,1.5l1.9-1L81.1,5L81.1,5z" /><path
     id="st._vincent_1_"
     class="st0"
     d="M81.2,9.9L79.7,11l1.3,2.3l2-1.1L81.2,9.9L81.2,9.9z" /><path
     id="grenada_1_"
     class="st0"
     d="M79.3,14.2l-1.4,1.4l0.5,0.9h1.8l0.5-1.5L79.3,14.2L79.3,14.2z" /><path
     id="trinidad_1_"
     class="st0"
     d="M81.3,18.6l-1.4,1.3l-1.4,0.3v1.8l2.6,2.5l1.1-1.8l0.6-2l-0.3-1.6L81.3,18.6L81.3,18.6z" /><path
     id="falklands_west_1_"
     class="st0"
     d="M113.7,274l-3.3-0.4l-3.3,2.3l2.4,2.6L113.7,274L113.7,274z" /><path
     id="falklands_east_1_"
     class="st0"
     d="M117,272.4l-1.1,3.5l-3.1,2.8l0.1,0.9l5.3-2l2.3-2.8L117,272.4L117,272.4z" /><path
     id="colombia_1_"
     class="st0"
     d="M45.5,12.3L42.9,12L25.8,26.1l-1.8,5l-2.4,0.3l1,10.9l-6,14.6l6.5,5.5l8.3,0.5l5.7,8.4  l8.3,0.3l-0.3,6.3h3.1l3.4-11.4l-3.1-3.9l0.8-7.3l6.5-0.5l-0.8-17l-14.6-4.6L37.1,24L45.5,12.3L45.5,12.3z" /><path
     id="venezuela_1_"
     class="st0"
     d="M41.5,19.9l0.5,3.3l4,1.3l0.9-6l4.3-4.4l4.3,5l9.9,2.6l8.4-1.8l5.7,7l4.3,2.6l-4.8,7.2  l1.6,5.4l-2.6,3.4L75.2,48l-6-3l-1.4,1.4v4.4l4.4,2.1l-3.3,3.5l-3.3,3.5l-4.3-0.4L57,54.7l-0.9-18l-14.8-5l-2.6-7.9L41.5,19.9  L41.5,19.9z" /><path
     id="guyana_1_"
     class="st0"
     d="M84.8,30.2l9,8.2l-3.6,4.1L90,45.1l4.8,4.9l-0.1,4.6l-8.3,3.1l-4.9-6.7l1-8l-2.1-6L84.8,30.2  L84.8,30.2z" /><path
     id="suriname_1_"
     class="st0"
     d="M95,39l2.5,2.4l4-2.5l3.6,0.1l-0.5,1.4l-1.5,3.1l-0.3,7.9l-7.3,2.9l0.4-5l-4.6-4.4l0.3-2.3  L95,39L95,39z" /><path
     id="guyane_1_"
     class="st0"
     d="M106.3,39.9l7.4,4.5l-3.9,7.7l-1.4,1.8l-4-2.4l0.1-8.2L106.3,39.9L106.3,39.9z" /><path
     id="ecuador_1_"
     class="st0"
     d="M16,57.6l-5.9,3.6l-0.4,5.5l-1.1,1.8l3.8,3.6L10.7,74l0.4,4.5l6.7,1.6l10.2-11.9V64l-4.9-0.3  L16,57.6L16,57.6z" /><path
     id="peru_1_"
     class="st0"
     d="M9.5,74.7l-2.4,2.5l0.1,3.9l21.2,38.8l22.1,14.2l3.4-5.8l0.8-12.6l-1.8-7.8l-6-10.2l-3.6,1.1  l-1.6,1.8l-7.2-8.2l1.8-9.7l8.3-5.4l-0.6-5l-8.4-0.4l-4.4-7.4l-2.4-0.8l0.1,4.4L17.9,81.2l-8.2-2L9.5,74.7L9.5,74.7z" /><path
     id="bolivia_1_"
     class="st0"
     d="M51.8,104l10.3-4.5l3.4,0.4l2.3,9.5l15.7,5.3l2.6,8l6.5,0.8l2.8,6.9l-1.9,6.3L83,137.4l-3.9,10  l-8.3-0.1l-2.6-0.5l-4.8,4.6l-2.4-0.3l-8.2-18.8l2.3-3.4l0.9-13.4l-2-7.9L51.8,104L51.8,104z" /><path
     id="paraguay_1_"
     class="st0"
     d="M93.4,137.5l2.8,3l-0.4,6.4l7.9-0.5l6,7.7l-0.5,6.9l-3.9,5.9l-7.9,0.4L97,164l2.3-5.4  l-7.8-4.9H85l-4.9-5.3l3.5-10.2L93.4,137.5L93.4,137.5z" /><path
     id="uruguay_1_"
     class="st0"
     d="M104.2,178.2l-2.5,2.8l1.1,14.8l8,2.4l10.3-10.3L104.2,178.2L104.2,178.2z" /><path
     id="argentina_1_"
     class="st0"
     d="M110.6,161l2.4,2.3l-9.3,13.8l-3.3,3.6l1.1,15.7l7.2,8.7l-6,10.4l-4.5,2H93l1.5,8.2l-8.2,2.8  l1.9,6.9l-4.9,15.6l6,4.9l-3.3,8l-5.5,8.7l2.9,6l-7.2,1.1l-5.9-7.2l-1-22.5l-9-38.1l2.8-13.3l-5.9-17l3.9-22.1l3.6-4.3l-0.9-3.3  l4.6-4.1l10.3,0.8l5.8,6.2l6.7,0.1l6.8,4.1l-2,4.6l0.5,4.8l9.5-0.5L110.6,161L110.6,161z" /><path
     id="tierra_del_fuego_chile_1_"
     class="st0"
     d="M84.8,281.4l-5.4,11.8l9.3,1l0.1-7.8L84.8,281.4L84.8,281.4z" /><path
     id="tierra_del_fuego_argentina_1_"
     class="st0"
     d="M89.7,287.3l0.4,7.2l5.5-0.5l4.8-3.1l-7.9-1.6L89.7,287.3L89.7,287.3z" /><path
     id="chile_1_"
     class="st0"
     d="M83.1,279.6l-4,4.4l-0.5,5.3l-7.8-4.4l-8.3-11.9l-2.4-4.3l3.4-4.4l-0.4-5.5l-3.9-1.6l-3.1-2.3  l0.6-3.1l4-1.1l0.8-18l-6.3-3.6l-4.1-93.7l1.1-1.9l8,18.7h2.6l0.9,3l-3.4,4.1l-3.9,22.5l5.7,17.3l-2.6,13.1l9.2,38.4l1,22.5l6.5,7.7  L83.1,279.6L83.1,279.6z" /><path
     id="chiloe_1_"
     class="st0"
     d="M56.3,232.5l-1.6,2.5l0.8,4.3l1.6,0.1l0.8-5.4L56.3,232.5L56.3,232.5z" /><path
     id="brazil_1_"
     class="st0"
     d="M121.5,187l7.8-15.1l0.3-12.7l14.7-9.4h8.2l6.4-10.9l1.1-21l-2.6-5.7l15.6-14.2l0.6-15.7  l-21.1-10.3l-25.5-7.9L114.9,63l3.3-6.8l-0.9-10.3l-2.6-0.9l-3.9,7.7l-2,2.5l-5.3-2.3l-17.6,6.2l-5.9-7.4l1-7.7l-5.5,5.7l-6.2-3.3  l-0.6,0.9V50l5.3,2.8L66,61h-5l-5-5.1L50.3,56l-0.8,6.2l3.3,4l-3.9,12.4L44.4,79l-7.2,4.5l-1.8,8.9l6.3,6.7l1.1-1.3l4.4-1.1l3.8,6.3  l10.7-4.6l4.1,0.3l2.9,10.2l15.3,4.9l2.6,8l6.5,0.8l3.1,7.7l-2.1,6.9l2.8,3.6l-0.4,5.4l7.3-0.6l6.8,8.5l-0.5,6l4,3.4l-9.5,14.4  L121.5,187L121.5,187z" />
	<g
     id="sa-east-1"
     cx="127.10593"
     cy="154.06779"></g></svg>